<?xml version="1.0" encoding="UTF-8" standalone="no"?><svg xmlns="http://www.w3.org/2000/svg" xmlns:xlink="http://www.w3.org/1999/xlink" clip-rule="evenodd" stroke-miterlimit="4.00" viewBox="0 0 470 42"><desc>SVG generated by Keynote</desc><defs></defs><g transform="matrix(1.00, 0.00, -0.00, -1.00, 0.0, 42.0)"><text xml:space="preserve" font-family="Gotham-Light" font-size="42.0" fill="#FEFFFF" transform="matrix(1.00, 0.00, -0.00, -1.00, -1.0, 9.0)">C</text><text xml:space="preserve" font-family="Gotham-Light" font-size="42.0" fill="#FEFFFF" transform="matrix(1.00, 0.00, -0.00, -1.00, 29.6, 9.0)">o</text><text xml:space="preserve" font-family="Gotham-Light" font-size="42.0" fill="#FEFFFF" transform="matrix(1.00, 0.00, -0.00, -1.00, 56.5, 9.0)">n</text><text xml:space="preserve" font-family="Gotham-Light" font-size="42.0" fill="#FEFFFF" transform="matrix(1.00, 0.00, -0.00, -1.00, 82.2, 9.0)">ﬁ</text><text xml:space="preserve" font-family="Gotham-Light" font-size="42.0" fill="#FEFFFF" transform="matrix(1.00, 0.00, -0.00, -1.00, 107.9, 9.0)">g</text><text xml:space="preserve" font-family="Gotham-Light" font-size="42.0" fill="#FEFFFF" transform="matrix(1.00, 0.00, -0.00, -1.00, 135.6, 9.0)">u</text><text xml:space="preserve" font-family="Gotham-Light" font-size="42.0" fill="#FEFFFF" transform="matrix(1.00, 0.00, -0.00, -1.00, 161.3, 9.0)">r</text><text xml:space="preserve" font-family="Gotham-Light" font-size="42.0" fill="#FEFFFF" transform="matrix(1.00, 0.00, -0.00, -1.00, 177.1, 9.0)">e</text><text xml:space="preserve" font-family="Gotham-Light" font-size="42.0" fill="#FEFFFF" transform="matrix(1.00, 0.00, -0.00, -1.00, 201.6, 9.0)"> </text><text xml:space="preserve" font-family="Gotham-Light" font-size="42.0" fill="#FEFFFF" transform="matrix(1.00, 0.00, -0.00, -1.00, 214.2, 9.0)">Y</text><text xml:space="preserve" font-family="Gotham-Light" font-size="42.0" fill="#FEFFFF" transform="matrix(1.00, 0.00, -0.00, -1.00, 239.7, 9.0)">o</text><text xml:space="preserve" font-family="Gotham-Light" font-size="42.0" fill="#FEFFFF" transform="matrix(1.00, 0.00, -0.00, -1.00, 266.5, 9.0)">u</text><text xml:space="preserve" font-family="Gotham-Light" font-size="42.0" fill="#FEFFFF" transform="matrix(1.00, 0.00, -0.00, -1.00, 292.3, 9.0)">r</text><text xml:space="preserve" font-family="Gotham-Light" font-size="42.0" fill="#FEFFFF" transform="matrix(1.00, 0.00, -0.00, -1.00, 309.1, 9.0)"> </text><text xml:space="preserve" font-family="Gotham-Light" font-size="42.0" fill="#FEFFFF" transform="matrix(1.00, 0.00, -0.00, -1.00, 321.7, 9.0)">F</text><text xml:space="preserve" font-family="Gotham-Light" font-size="42.0" fill="#FEFFFF" transform="matrix(1.00, 0.00, -0.00, -1.00, 348.2, 9.0)">a</text><text xml:space="preserve" font-family="Gotham-Light" font-size="42.0" fill="#FEFFFF" transform="matrix(1.00, 0.00, -0.00, -1.00, 372.3, 9.0)">s</text><text xml:space="preserve" font-family="Gotham-Light" font-size="42.0" fill="#FEFFFF" transform="matrix(1.00, 0.00, -0.00, -1.00, 392.8, 9.0)">t</text><text xml:space="preserve" font-family="Gotham-Light" font-size="42.0" fill="#FEFFFF" transform="matrix(1.00, 0.00, -0.00, -1.00, 409.6, 9.0)">ﬁ</text><text xml:space="preserve" font-family="Gotham-Light" font-size="42.0" fill="#FEFFFF" transform="matrix(1.00, 0.00, -0.00, -1.00, 435.2, 9.0)">l</text><text xml:space="preserve" font-family="Gotham-Light" font-size="42.0" fill="#FEFFFF" transform="matrix(1.00, 0.00, -0.00, -1.00, 445.7, 9.0)">e</text></g></svg>