<?xml version="1.0" encoding="UTF-8" standalone="no"?><svg xmlns="http://www.w3.org/2000/svg" xmlns:xlink="http://www.w3.org/1999/xlink" clip-rule="evenodd" stroke-miterlimit="4.00" viewBox="0 0 53 54"><desc>SVG generated by Keynote</desc><defs></defs><g transform="matrix(1.00, 0.00, -0.00, -1.00, 0.0, 54.0)"><g><clipPath id="clip-58"><path d="M 44.2 45.5 C 53.8 35.6 53.8 19.4 44.2 9.5 C 34.5 -0.5 18.7 -0.5 9.1 9.5 C -0.6 19.4 -0.6 35.6 9.1 45.5 C 18.7 55.5 34.5 55.5 44.2 45.5 Z M 44.2 45.5 "></path></clipPath><g clip-path="url(#clip-58)"><image xlink:href="AFF4D1F361AD28AA82012E14045EB299.jpeg" width="128.00" height="128.00" transform="matrix(1.00, 0.00, -0.00, -1.00, 1.8, 53.0)"></image><path d="M 1.8 53.0 L 51.4 53.0 L 51.4 2.0 L 1.8 2.0 Z M 1.8 53.0 " fill="#04599E" fill-opacity="0.85"></path></g></g><g><clipPath id="clip-59"><path d="M 1.8 2.0 L 51.4 2.0 L 51.4 53.0 L 1.8 53.0 Z M 1.8 2.0 "></path></clipPath><g clip-path="url(#clip-59)"><text xml:space="preserve" font-family="Helvetica-Light" font-size="26.0" fill="#FEFFFF" transform="matrix(1.00, 0.00, -0.00, -1.00, 19.0, 18.0)">1</text></g></g></g></svg>