<?xml version="1.0" encoding="UTF-8" standalone="no"?><svg xmlns="http://www.w3.org/2000/svg" xmlns:xlink="http://www.w3.org/1999/xlink" clip-rule="evenodd" stroke-miterlimit="4.00" viewBox="0 0 1024 768"><desc>SVG generated by Keynote</desc><defs></defs><g transform="matrix(1.00, 0.00, -0.00, -1.00, 0.0, 768.0)"><path d="M 0.0 768.0 L 1024.0 768.0 L 1024.0 0.0 L 0.0 0.0 Z M 0.0 768.0 " fill="#282E33"></path><text xml:space="preserve" font-family="Gotham-Medium" font-size="40.0" fill="#6DCFF8" transform="matrix(1.00, 0.00, -0.00, -1.00, 775.0, 34.0)">@</text><text xml:space="preserve" font-family="Gotham-Medium" font-size="40.0" fill="#6DCFF8" transform="matrix(1.00, 0.00, -0.00, -1.00, 814.2, 34.0)">a</text><text xml:space="preserve" font-family="Gotham-Medium" font-size="40.0" fill="#6DCFF8" transform="matrix(1.00, 0.00, -0.00, -1.00, 837.7, 34.0)">s</text><text xml:space="preserve" font-family="Gotham-Medium" font-size="40.0" fill="#6DCFF8" transform="matrix(1.00, 0.00, -0.00, -1.00, 857.7, 34.0)">f</text><text xml:space="preserve" font-family="Gotham-Medium" font-size="40.0" fill="#6DCFF8" transform="matrix(1.00, 0.00, -0.00, -1.00, 872.1, 34.0)">a</text><text xml:space="preserve" font-family="Gotham-Medium" font-size="40.0" fill="#6DCFF8" transform="matrix(1.00, 0.00, -0.00, -1.00, 895.6, 34.0)">l</text><text xml:space="preserve" font-family="Gotham-Medium" font-size="40.0" fill="#6DCFF8" transform="matrix(1.00, 0.00, -0.00, -1.00, 907.0, 34.0)">c</text><text xml:space="preserve" font-family="Gotham-Medium" font-size="40.0" fill="#6DCFF8" transform="matrix(1.00, 0.00, -0.00, -1.00, 929.3, 34.0)">o</text><text xml:space="preserve" font-family="Gotham-Medium" font-size="40.0" fill="#6DCFF8" transform="matrix(1.00, 0.00, -0.00, -1.00, 955.6, 34.0)">n</text><text xml:space="preserve" font-family="Gotham-Medium" font-size="40.0" fill="#6DCFF8" transform="matrix(1.00, 0.00, -0.00, -1.00, 980.4, 34.0)">e</text><g><clipPath id="clip-68"><path d="M 385.2 577.5 C 394.8 567.6 394.8 551.4 385.2 541.5 C 375.5 531.5 359.7 531.5 350.1 541.5 C 340.4 551.4 340.4 567.6 350.1 577.5 C 359.7 587.5 375.5 587.5 385.2 577.5 Z M 385.2 577.5 "></path></clipPath><g clip-path="url(#clip-68)"><image xlink:href="../../C60AC476-7DE6-4316-A2B2-259DC6632193/assets/AFF4D1F361AD28AA82012E14045EB299.jpeg" width="128.00" height="128.00" transform="matrix(1.00, 0.00, -0.00, -1.00, 342.8, 585.0)"></image><path d="M 342.8 585.0 L 392.4 585.0 L 392.4 534.0 L 342.8 534.0 Z M 342.8 585.0 " fill="#04599E" fill-opacity="0.85"></path></g></g><g><clipPath id="clip-69"><path d="M 342.8 534.0 L 392.4 534.0 L 392.4 585.0 L 342.8 585.0 Z M 342.8 534.0 "></path></clipPath><g clip-path="url(#clip-69)"><text xml:space="preserve" font-family="Helvetica-Light" font-size="26.0" fill="#FEFFFF" transform="matrix(1.00, 0.00, -0.00, -1.00, 360.0, 550.0)">1</text></g></g><text xml:space="preserve" font-family="Helvetica-Light" font-size="24.0" fill="#FEFFFF" transform="matrix(1.00, 0.00, -0.00, -1.00, 441.0, 551.0)">I</text><text xml:space="preserve" font-family="Helvetica-Light" font-size="24.0" fill="#FEFFFF" transform="matrix(1.00, 0.00, -0.00, -1.00, 447.7, 551.0)">n</text><text xml:space="preserve" font-family="Helvetica-Light" font-size="24.0" fill="#FEFFFF" transform="matrix(1.00, 0.00, -0.00, -1.00, 461.0, 551.0)">s</text><text xml:space="preserve" font-family="Helvetica-Light" font-size="24.0" fill="#FEFFFF" transform="matrix(1.00, 0.00, -0.00, -1.00, 473.0, 551.0)">t</text><text xml:space="preserve" font-family="Helvetica-Light" font-size="24.0" fill="#FEFFFF" transform="matrix(1.00, 0.00, -0.00, -1.00, 479.7, 551.0)">r</text><text xml:space="preserve" font-family="Helvetica-Light" font-size="24.0" fill="#FEFFFF" transform="matrix(1.00, 0.00, -0.00, -1.00, 487.7, 551.0)">u</text><text xml:space="preserve" font-family="Helvetica-Light" font-size="24.0" fill="#FEFFFF" transform="matrix(1.00, 0.00, -0.00, -1.00, 501.0, 551.0)">c</text><text xml:space="preserve" font-family="Helvetica-Light" font-size="24.0" fill="#FEFFFF" transform="matrix(1.00, 0.00, -0.00, -1.00, 514.4, 551.0)">t</text><text xml:space="preserve" font-family="Helvetica-Light" font-size="24.0" fill="#FEFFFF" transform="matrix(1.00, 0.00, -0.00, -1.00, 521.0, 551.0)">i</text><text xml:space="preserve" font-family="Helvetica-Light" font-size="24.0" fill="#FEFFFF" transform="matrix(1.00, 0.00, -0.00, -1.00, 526.4, 551.0)">o</text><text xml:space="preserve" font-family="Helvetica-Light" font-size="24.0" fill="#FEFFFF" transform="matrix(1.00, 0.00, -0.00, -1.00, 539.7, 551.0)">n</text><text xml:space="preserve" font-family="Helvetica-Light" font-size="24.0" fill="#FEFFFF" transform="matrix(1.00, 0.00, -0.00, -1.00, 553.1, 551.0)"> </text><text xml:space="preserve" font-family="Helvetica-Light" font-size="24.0" fill="#FEFFFF" transform="matrix(1.00, 0.00, -0.00, -1.00, 559.7, 551.0)">1</text><g><clipPath id="clip-70"><path d="M 385.2 481.5 C 394.8 471.6 394.8 455.4 385.2 445.5 C 375.5 435.5 359.7 435.5 350.1 445.5 C 340.4 455.4 340.4 471.6 350.1 481.5 C 359.7 491.5 375.5 491.5 385.2 481.5 Z M 385.2 481.5 "></path></clipPath><g clip-path="url(#clip-70)"><image xlink:href="../../C60AC476-7DE6-4316-A2B2-259DC6632193/assets/AFF4D1F361AD28AA82012E14045EB299.jpeg" width="128.00" height="128.00" transform="matrix(1.00, 0.00, -0.00, -1.00, 342.8, 489.0)"></image><path d="M 342.8 489.0 L 392.4 489.0 L 392.4 438.0 L 342.8 438.0 Z M 342.8 489.0 " fill="#04599E" fill-opacity="0.85"></path></g></g><g><clipPath id="clip-71"><path d="M 342.8 438.0 L 392.4 438.0 L 392.4 489.0 L 342.8 489.0 Z M 342.8 438.0 "></path></clipPath><g clip-path="url(#clip-71)"><text xml:space="preserve" font-family="Helvetica-Light" font-size="26.0" fill="#FEFFFF" transform="matrix(1.00, 0.00, -0.00, -1.00, 360.0, 454.0)">2</text></g></g><text xml:space="preserve" font-family="Helvetica-Light" font-size="24.0" fill="#FEFFFF" transform="matrix(1.00, 0.00, -0.00, -1.00, 441.0, 455.0)">I</text><text xml:space="preserve" font-family="Helvetica-Light" font-size="24.0" fill="#FEFFFF" transform="matrix(1.00, 0.00, -0.00, -1.00, 447.7, 455.0)">n</text><text xml:space="preserve" font-family="Helvetica-Light" font-size="24.0" fill="#FEFFFF" transform="matrix(1.00, 0.00, -0.00, -1.00, 461.0, 455.0)">s</text><text xml:space="preserve" font-family="Helvetica-Light" font-size="24.0" fill="#FEFFFF" transform="matrix(1.00, 0.00, -0.00, -1.00, 473.0, 455.0)">t</text><text xml:space="preserve" font-family="Helvetica-Light" font-size="24.0" fill="#FEFFFF" transform="matrix(1.00, 0.00, -0.00, -1.00, 479.7, 455.0)">r</text><text xml:space="preserve" font-family="Helvetica-Light" font-size="24.0" fill="#FEFFFF" transform="matrix(1.00, 0.00, -0.00, -1.00, 487.7, 455.0)">u</text><text xml:space="preserve" font-family="Helvetica-Light" font-size="24.0" fill="#FEFFFF" transform="matrix(1.00, 0.00, -0.00, -1.00, 501.0, 455.0)">c</text><text xml:space="preserve" font-family="Helvetica-Light" font-size="24.0" fill="#FEFFFF" transform="matrix(1.00, 0.00, -0.00, -1.00, 514.4, 455.0)">t</text><text xml:space="preserve" font-family="Helvetica-Light" font-size="24.0" fill="#FEFFFF" transform="matrix(1.00, 0.00, -0.00, -1.00, 521.0, 455.0)">i</text><text xml:space="preserve" font-family="Helvetica-Light" font-size="24.0" fill="#FEFFFF" transform="matrix(1.00, 0.00, -0.00, -1.00, 526.4, 455.0)">o</text><text xml:space="preserve" font-family="Helvetica-Light" font-size="24.0" fill="#FEFFFF" transform="matrix(1.00, 0.00, -0.00, -1.00, 539.7, 455.0)">n</text><text xml:space="preserve" font-family="Helvetica-Light" font-size="24.0" fill="#FEFFFF" transform="matrix(1.00, 0.00, -0.00, -1.00, 553.1, 455.0)"> </text><text xml:space="preserve" font-family="Helvetica-Light" font-size="24.0" fill="#FEFFFF" transform="matrix(1.00, 0.00, -0.00, -1.00, 559.7, 455.0)">2</text><g><clipPath id="clip-72"><path d="M 385.2 378.5 C 394.8 368.6 394.8 352.4 385.2 342.5 C 375.5 332.5 359.7 332.5 350.1 342.5 C 340.4 352.4 340.4 368.6 350.1 378.5 C 359.7 388.5 375.5 388.5 385.2 378.5 Z M 385.2 378.5 "></path></clipPath><g clip-path="url(#clip-72)"><image xlink:href="../../C60AC476-7DE6-4316-A2B2-259DC6632193/assets/AFF4D1F361AD28AA82012E14045EB299.jpeg" width="128.00" height="128.00" transform="matrix(1.00, 0.00, -0.00, -1.00, 342.8, 386.0)"></image><path d="M 342.8 386.0 L 392.4 386.0 L 392.4 335.0 L 342.8 335.0 Z M 342.8 386.0 " fill="#04599E" fill-opacity="0.85"></path></g></g><g><clipPath id="clip-73"><path d="M 342.8 335.0 L 392.4 335.0 L 392.4 386.0 L 342.8 386.0 Z M 342.8 335.0 "></path></clipPath><g clip-path="url(#clip-73)"><text xml:space="preserve" font-family="Helvetica-Light" font-size="26.0" fill="#FEFFFF" transform="matrix(1.00, 0.00, -0.00, -1.00, 360.0, 351.0)">3</text></g></g><text xml:space="preserve" font-family="Helvetica-Light" font-size="24.0" fill="#FEFFFF" transform="matrix(1.00, 0.00, -0.00, -1.00, 441.0, 352.0)">I</text><text xml:space="preserve" font-family="Helvetica-Light" font-size="24.0" fill="#FEFFFF" transform="matrix(1.00, 0.00, -0.00, -1.00, 447.7, 352.0)">n</text><text xml:space="preserve" font-family="Helvetica-Light" font-size="24.0" fill="#FEFFFF" transform="matrix(1.00, 0.00, -0.00, -1.00, 461.0, 352.0)">s</text><text xml:space="preserve" font-family="Helvetica-Light" font-size="24.0" fill="#FEFFFF" transform="matrix(1.00, 0.00, -0.00, -1.00, 473.0, 352.0)">t</text><text xml:space="preserve" font-family="Helvetica-Light" font-size="24.0" fill="#FEFFFF" transform="matrix(1.00, 0.00, -0.00, -1.00, 479.7, 352.0)">r</text><text xml:space="preserve" font-family="Helvetica-Light" font-size="24.0" fill="#FEFFFF" transform="matrix(1.00, 0.00, -0.00, -1.00, 487.7, 352.0)">u</text><text xml:space="preserve" font-family="Helvetica-Light" font-size="24.0" fill="#FEFFFF" transform="matrix(1.00, 0.00, -0.00, -1.00, 501.0, 352.0)">c</text><text xml:space="preserve" font-family="Helvetica-Light" font-size="24.0" fill="#FEFFFF" transform="matrix(1.00, 0.00, -0.00, -1.00, 514.4, 352.0)">t</text><text xml:space="preserve" font-family="Helvetica-Light" font-size="24.0" fill="#FEFFFF" transform="matrix(1.00, 0.00, -0.00, -1.00, 521.0, 352.0)">i</text><text xml:space="preserve" font-family="Helvetica-Light" font-size="24.0" fill="#FEFFFF" transform="matrix(1.00, 0.00, -0.00, -1.00, 526.4, 352.0)">o</text><text xml:space="preserve" font-family="Helvetica-Light" font-size="24.0" fill="#FEFFFF" transform="matrix(1.00, 0.00, -0.00, -1.00, 539.7, 352.0)">n</text><text xml:space="preserve" font-family="Helvetica-Light" font-size="24.0" fill="#FEFFFF" transform="matrix(1.00, 0.00, -0.00, -1.00, 553.1, 352.0)"> </text><text xml:space="preserve" font-family="Helvetica-Light" font-size="24.0" fill="#FEFFFF" transform="matrix(1.00, 0.00, -0.00, -1.00, 559.7, 352.0)">3</text><g><clipPath id="clip-74"><path d="M 385.2 275.5 C 394.8 265.6 394.8 249.4 385.2 239.5 C 375.5 229.5 359.7 229.5 350.1 239.5 C 340.4 249.4 340.4 265.6 350.1 275.5 C 359.7 285.5 375.5 285.5 385.2 275.5 Z M 385.2 275.5 "></path></clipPath><g clip-path="url(#clip-74)"><image xlink:href="../../C60AC476-7DE6-4316-A2B2-259DC6632193/assets/AFF4D1F361AD28AA82012E14045EB299.jpeg" width="128.00" height="128.00" transform="matrix(1.00, 0.00, -0.00, -1.00, 342.8, 283.0)"></image><path d="M 342.8 283.0 L 392.4 283.0 L 392.4 232.0 L 342.8 232.0 Z M 342.8 283.0 " fill="#04599E" fill-opacity="0.85"></path></g></g><g><clipPath id="clip-75"><path d="M 342.8 232.0 L 392.4 232.0 L 392.4 283.0 L 342.8 283.0 Z M 342.8 232.0 "></path></clipPath><g clip-path="url(#clip-75)"><text xml:space="preserve" font-family="Helvetica-Light" font-size="26.0" fill="#FEFFFF" transform="matrix(1.00, 0.00, -0.00, -1.00, 360.0, 248.0)">4</text></g></g><text xml:space="preserve" font-family="Helvetica-Light" font-size="24.0" fill="#FEFFFF" transform="matrix(1.00, 0.00, -0.00, -1.00, 441.0, 249.0)">I</text><text xml:space="preserve" font-family="Helvetica-Light" font-size="24.0" fill="#FEFFFF" transform="matrix(1.00, 0.00, -0.00, -1.00, 447.7, 249.0)">n</text><text xml:space="preserve" font-family="Helvetica-Light" font-size="24.0" fill="#FEFFFF" transform="matrix(1.00, 0.00, -0.00, -1.00, 461.0, 249.0)">s</text><text xml:space="preserve" font-family="Helvetica-Light" font-size="24.0" fill="#FEFFFF" transform="matrix(1.00, 0.00, -0.00, -1.00, 473.0, 249.0)">t</text><text xml:space="preserve" font-family="Helvetica-Light" font-size="24.0" fill="#FEFFFF" transform="matrix(1.00, 0.00, -0.00, -1.00, 479.7, 249.0)">r</text><text xml:space="preserve" font-family="Helvetica-Light" font-size="24.0" fill="#FEFFFF" transform="matrix(1.00, 0.00, -0.00, -1.00, 487.7, 249.0)">u</text><text xml:space="preserve" font-family="Helvetica-Light" font-size="24.0" fill="#FEFFFF" transform="matrix(1.00, 0.00, -0.00, -1.00, 501.0, 249.0)">c</text><text xml:space="preserve" font-family="Helvetica-Light" font-size="24.0" fill="#FEFFFF" transform="matrix(1.00, 0.00, -0.00, -1.00, 514.4, 249.0)">t</text><text xml:space="preserve" font-family="Helvetica-Light" font-size="24.0" fill="#FEFFFF" transform="matrix(1.00, 0.00, -0.00, -1.00, 521.0, 249.0)">i</text><text xml:space="preserve" font-family="Helvetica-Light" font-size="24.0" fill="#FEFFFF" transform="matrix(1.00, 0.00, -0.00, -1.00, 526.4, 249.0)">o</text><text xml:space="preserve" font-family="Helvetica-Light" font-size="24.0" fill="#FEFFFF" transform="matrix(1.00, 0.00, -0.00, -1.00, 539.7, 249.0)">n</text><text xml:space="preserve" font-family="Helvetica-Light" font-size="24.0" fill="#FEFFFF" transform="matrix(1.00, 0.00, -0.00, -1.00, 553.1, 249.0)"> </text><text xml:space="preserve" font-family="Helvetica-Light" font-size="24.0" fill="#FEFFFF" transform="matrix(1.00, 0.00, -0.00, -1.00, 559.7, 249.0)">4</text><g><clipPath id="clip-76"><path d="M 387.9 172.5 C 397.6 162.6 397.6 146.4 387.9 136.5 C 378.2 126.5 362.5 126.5 352.8 136.5 C 343.1 146.4 343.1 162.6 352.8 172.5 C 362.5 182.5 378.2 182.5 387.9 172.5 Z M 387.9 172.5 "></path></clipPath><g clip-path="url(#clip-76)"><image xlink:href="../../C60AC476-7DE6-4316-A2B2-259DC6632193/assets/AFF4D1F361AD28AA82012E14045EB299.jpeg" width="128.00" height="128.00" transform="matrix(1.00, 0.00, -0.00, -1.00, 345.5, 180.0)"></image><path d="M 345.5 180.0 L 395.2 180.0 L 395.2 129.0 L 345.5 129.0 Z M 345.5 180.0 " fill="#04599E" fill-opacity="0.85"></path></g></g><g><clipPath id="clip-77"><path d="M 345.5 129.0 L 395.2 129.0 L 395.2 180.0 L 345.5 180.0 Z M 345.5 129.0 "></path></clipPath><g clip-path="url(#clip-77)"><text xml:space="preserve" font-family="Helvetica-Light" font-size="26.0" fill="#FEFFFF" transform="matrix(1.00, 0.00, -0.00, -1.00, 363.0, 145.0)">5</text></g></g><text xml:space="preserve" font-family="Helvetica-Light" font-size="24.0" fill="#FEFFFF" transform="matrix(1.00, 0.00, -0.00, -1.00, 441.0, 146.0)">I</text><text xml:space="preserve" font-family="Helvetica-Light" font-size="24.0" fill="#FEFFFF" transform="matrix(1.00, 0.00, -0.00, -1.00, 447.7, 146.0)">n</text><text xml:space="preserve" font-family="Helvetica-Light" font-size="24.0" fill="#FEFFFF" transform="matrix(1.00, 0.00, -0.00, -1.00, 461.0, 146.0)">s</text><text xml:space="preserve" font-family="Helvetica-Light" font-size="24.0" fill="#FEFFFF" transform="matrix(1.00, 0.00, -0.00, -1.00, 473.0, 146.0)">t</text><text xml:space="preserve" font-family="Helvetica-Light" font-size="24.0" fill="#FEFFFF" transform="matrix(1.00, 0.00, -0.00, -1.00, 479.7, 146.0)">r</text><text xml:space="preserve" font-family="Helvetica-Light" font-size="24.0" fill="#FEFFFF" transform="matrix(1.00, 0.00, -0.00, -1.00, 487.7, 146.0)">u</text><text xml:space="preserve" font-family="Helvetica-Light" font-size="24.0" fill="#FEFFFF" transform="matrix(1.00, 0.00, -0.00, -1.00, 501.0, 146.0)">c</text><text xml:space="preserve" font-family="Helvetica-Light" font-size="24.0" fill="#FEFFFF" transform="matrix(1.00, 0.00, -0.00, -1.00, 514.4, 146.0)">t</text><text xml:space="preserve" font-family="Helvetica-Light" font-size="24.0" fill="#FEFFFF" transform="matrix(1.00, 0.00, -0.00, -1.00, 521.0, 146.0)">i</text><text xml:space="preserve" font-family="Helvetica-Light" font-size="24.0" fill="#FEFFFF" transform="matrix(1.00, 0.00, -0.00, -1.00, 526.4, 146.0)">o</text><text xml:space="preserve" font-family="Helvetica-Light" font-size="24.0" fill="#FEFFFF" transform="matrix(1.00, 0.00, -0.00, -1.00, 539.7, 146.0)">n</text><text xml:space="preserve" font-family="Helvetica-Light" font-size="24.0" fill="#FEFFFF" transform="matrix(1.00, 0.00, -0.00, -1.00, 553.1, 146.0)"> </text><text xml:space="preserve" font-family="Helvetica-Light" font-size="24.0" fill="#FEFFFF" transform="matrix(1.00, 0.00, -0.00, -1.00, 559.7, 146.0)">5</text><text xml:space="preserve" font-family="Gotham-Light" font-size="42.0" fill="#FEFFFF" transform="matrix(1.00, 0.00, -0.00, -1.00, 272.0, 638.0)">C</text><text xml:space="preserve" font-family="Gotham-Light" font-size="42.0" fill="#FEFFFF" transform="matrix(1.00, 0.00, -0.00, -1.00, 302.6, 638.0)">o</text><text xml:space="preserve" font-family="Gotham-Light" font-size="42.0" fill="#FEFFFF" transform="matrix(1.00, 0.00, -0.00, -1.00, 329.5, 638.0)">n</text><text xml:space="preserve" font-family="Gotham-Light" font-size="42.0" fill="#FEFFFF" transform="matrix(1.00, 0.00, -0.00, -1.00, 355.2, 638.0)">ﬁ</text><text xml:space="preserve" font-family="Gotham-Light" font-size="42.0" fill="#FEFFFF" transform="matrix(1.00, 0.00, -0.00, -1.00, 380.9, 638.0)">g</text><text xml:space="preserve" font-family="Gotham-Light" font-size="42.0" fill="#FEFFFF" transform="matrix(1.00, 0.00, -0.00, -1.00, 408.6, 638.0)">u</text><text xml:space="preserve" font-family="Gotham-Light" font-size="42.0" fill="#FEFFFF" transform="matrix(1.00, 0.00, -0.00, -1.00, 434.3, 638.0)">r</text><text xml:space="preserve" font-family="Gotham-Light" font-size="42.0" fill="#FEFFFF" transform="matrix(1.00, 0.00, -0.00, -1.00, 450.1, 638.0)">e</text><text xml:space="preserve" font-family="Gotham-Light" font-size="42.0" fill="#FEFFFF" transform="matrix(1.00, 0.00, -0.00, -1.00, 474.6, 638.0)"> </text><text xml:space="preserve" font-family="Gotham-Light" font-size="42.0" fill="#FEFFFF" transform="matrix(1.00, 0.00, -0.00, -1.00, 487.2, 638.0)">Y</text><text xml:space="preserve" font-family="Gotham-Light" font-size="42.0" fill="#FEFFFF" transform="matrix(1.00, 0.00, -0.00, -1.00, 512.7, 638.0)">o</text><text xml:space="preserve" font-family="Gotham-Light" font-size="42.0" fill="#FEFFFF" transform="matrix(1.00, 0.00, -0.00, -1.00, 539.5, 638.0)">u</text><text xml:space="preserve" font-family="Gotham-Light" font-size="42.0" fill="#FEFFFF" transform="matrix(1.00, 0.00, -0.00, -1.00, 565.3, 638.0)">r</text><text xml:space="preserve" font-family="Gotham-Light" font-size="42.0" fill="#FEFFFF" transform="matrix(1.00, 0.00, -0.00, -1.00, 582.1, 638.0)"> </text><text xml:space="preserve" font-family="Gotham-Light" font-size="42.0" fill="#FEFFFF" transform="matrix(1.00, 0.00, -0.00, -1.00, 594.7, 638.0)">F</text><text xml:space="preserve" font-family="Gotham-Light" font-size="42.0" fill="#FEFFFF" transform="matrix(1.00, 0.00, -0.00, -1.00, 621.2, 638.0)">a</text><text xml:space="preserve" font-family="Gotham-Light" font-size="42.0" fill="#FEFFFF" transform="matrix(1.00, 0.00, -0.00, -1.00, 645.3, 638.0)">s</text><text xml:space="preserve" font-family="Gotham-Light" font-size="42.0" fill="#FEFFFF" transform="matrix(1.00, 0.00, -0.00, -1.00, 665.8, 638.0)">t</text><text xml:space="preserve" font-family="Gotham-Light" font-size="42.0" fill="#FEFFFF" transform="matrix(1.00, 0.00, -0.00, -1.00, 682.6, 638.0)">ﬁ</text><text xml:space="preserve" font-family="Gotham-Light" font-size="42.0" fill="#FEFFFF" transform="matrix(1.00, 0.00, -0.00, -1.00, 708.2, 638.0)">l</text><text xml:space="preserve" font-family="Gotham-Light" font-size="42.0" fill="#FEFFFF" transform="matrix(1.00, 0.00, -0.00, -1.00, 718.7, 638.0)">e</text><path d="M 0.0 0.0 L 48.1 0.0 L 49.1 0.0 " fill="none" stroke="#FEFFFE" stroke-width="2.00" transform="matrix(0.00, -1.00, -1.00, 0.00, 507.5, 540.3)"></path><path d="M 502.7 492.3 L 507.5 482.7 L 512.3 492.3 Z M 502.7 492.3 " fill="#FEFFFE"></path><path d="M 0.0 0.0 L 48.1 0.0 L 49.1 0.0 " fill="none" stroke="#FEFFFE" stroke-width="2.00" transform="matrix(0.00, -1.00, -1.00, 0.00, 507.5, 440.8)"></path><path d="M 502.7 392.8 L 507.5 383.2 L 512.3 392.8 Z M 502.7 392.8 " fill="#FEFFFE"></path><path d="M 0.0 0.0 L 48.1 0.0 L 49.1 0.0 " fill="none" stroke="#FEFFFE" stroke-width="2.00" transform="matrix(0.00, -1.00, -1.00, 0.00, 507.5, 337.8)"></path><path d="M 502.7 289.8 L 507.5 280.2 L 512.3 289.8 Z M 502.7 289.8 " fill="#FEFFFE"></path><path d="M 0.0 0.0 L 48.1 0.0 L 49.1 0.0 " fill="none" stroke="#FEFFFE" stroke-width="2.00" transform="matrix(0.00, -1.00, -1.00, 0.00, 507.5, 234.8)"></path><path d="M 502.7 186.8 L 507.5 177.2 L 512.3 186.8 Z M 502.7 186.8 " fill="#FEFFFE"></path></g></svg>