<?xml version="1.0" encoding="UTF-8" standalone="no"?><svg xmlns="http://www.w3.org/2000/svg" xmlns:xlink="http://www.w3.org/1999/xlink" clip-rule="evenodd" stroke-miterlimit="4.00" viewBox="0 0 174 31"><desc>SVG generated by Keynote</desc><defs></defs><g transform="matrix(1.00, 0.00, -0.00, -1.00, 0.0, 31.0)"><text xml:space="preserve" font-family="Gotham-Book" font-size="32.0" fill="#E1E9ED" transform="matrix(1.00, 0.00, -0.00, -1.00, 1.0, 7.0)">S</text><text xml:space="preserve" font-family="Gotham-Book" font-size="32.0" fill="#E1E9ED" transform="matrix(1.00, 0.00, -0.00, -1.00, 21.5, 7.0)">i</text><text xml:space="preserve" font-family="Gotham-Book" font-size="32.0" fill="#E1E9ED" transform="matrix(1.00, 0.00, -0.00, -1.00, 29.9, 7.0)">g</text><text xml:space="preserve" font-family="Gotham-Book" font-size="32.0" fill="#E1E9ED" transform="matrix(1.00, 0.00, -0.00, -1.00, 51.1, 7.0)">n</text><text xml:space="preserve" font-family="Gotham-Book" font-size="32.0" fill="#E1E9ED" transform="matrix(1.00, 0.00, -0.00, -1.00, 70.9, 7.0)">e</text><text xml:space="preserve" font-family="Gotham-Book" font-size="32.0" fill="#E1E9ED" transform="matrix(1.00, 0.00, -0.00, -1.00, 89.8, 7.0)">d</text><text xml:space="preserve" font-family="Gotham-Book" font-size="32.0" fill="#E1E9ED" transform="matrix(1.00, 0.00, -0.00, -1.00, 111.0, 7.0)"> </text><text xml:space="preserve" font-family="Gotham-Book" font-size="32.0" fill="#E1E9ED" transform="matrix(1.00, 0.00, -0.00, -1.00, 120.6, 7.0)">I</text><text xml:space="preserve" font-family="Gotham-Book" font-size="32.0" fill="#E1E9ED" transform="matrix(1.00, 0.00, -0.00, -1.00, 130.0, 7.0)">P</text><text xml:space="preserve" font-family="Gotham-Book" font-size="32.0" fill="#E1E9ED" transform="matrix(1.00, 0.00, -0.00, -1.00, 149.1, 7.0)">A</text></g></svg>