<?xml version="1.0" encoding="UTF-8" standalone="no"?><svg xmlns="http://www.w3.org/2000/svg" xmlns:xlink="http://www.w3.org/1999/xlink" clip-rule="evenodd" stroke-miterlimit="4.00" viewBox="0 0 1024 768"><desc>SVG generated by Keynote</desc><defs></defs><g transform="matrix(1.00, 0.00, -0.00, -1.00, 0.0, 768.0)"><path d="M 0.0 768.0 L 1024.0 768.0 L 1024.0 0.0 L 0.0 0.0 Z M 0.0 768.0 " fill="#282E33"></path><text xml:space="preserve" font-family="Gotham-Medium" font-size="40.0" fill="#6DCFF8" transform="matrix(1.00, 0.00, -0.00, -1.00, 775.0, 34.0)">@</text><text xml:space="preserve" font-family="Gotham-Medium" font-size="40.0" fill="#6DCFF8" transform="matrix(1.00, 0.00, -0.00, -1.00, 814.2, 34.0)">a</text><text xml:space="preserve" font-family="Gotham-Medium" font-size="40.0" fill="#6DCFF8" transform="matrix(1.00, 0.00, -0.00, -1.00, 837.7, 34.0)">s</text><text xml:space="preserve" font-family="Gotham-Medium" font-size="40.0" fill="#6DCFF8" transform="matrix(1.00, 0.00, -0.00, -1.00, 857.7, 34.0)">f</text><text xml:space="preserve" font-family="Gotham-Medium" font-size="40.0" fill="#6DCFF8" transform="matrix(1.00, 0.00, -0.00, -1.00, 872.1, 34.0)">a</text><text xml:space="preserve" font-family="Gotham-Medium" font-size="40.0" fill="#6DCFF8" transform="matrix(1.00, 0.00, -0.00, -1.00, 895.6, 34.0)">l</text><text xml:space="preserve" font-family="Gotham-Medium" font-size="40.0" fill="#6DCFF8" transform="matrix(1.00, 0.00, -0.00, -1.00, 907.0, 34.0)">c</text><text xml:space="preserve" font-family="Gotham-Medium" font-size="40.0" fill="#6DCFF8" transform="matrix(1.00, 0.00, -0.00, -1.00, 929.3, 34.0)">o</text><text xml:space="preserve" font-family="Gotham-Medium" font-size="40.0" fill="#6DCFF8" transform="matrix(1.00, 0.00, -0.00, -1.00, 955.6, 34.0)">n</text><text xml:space="preserve" font-family="Gotham-Medium" font-size="40.0" fill="#6DCFF8" transform="matrix(1.00, 0.00, -0.00, -1.00, 980.4, 34.0)">e</text><g><clipPath id="clip-107"><path d="M 424.0 514.0 L 600.0 514.0 L 600.0 368.0 L 424.0 368.0 Z M 423.8 513.8 "></path></clipPath><g clip-path="url(#clip-107)"><g><clipPath id="clip-108"><path d="M 424.0 368.0 L 600.0 368.0 L 600.0 514.0 L 424.0 514.0 Z M 424.0 368.0 "></path></clipPath><g clip-path="url(#clip-108)"><g><g><clipPath id="clip-109"><path d="M 424.0 368.0 L 600.0 368.0 L 600.0 514.0 L 424.0 514.0 Z M 424.0 368.0 "></path></clipPath><g clip-path="url(#clip-109)"><path d="M 424.0 397.4 L 576.5 397.4 L 576.5 490.7 L 424.0 490.7 Z M 424.0 397.4 " fill="#E0E7EC"></path></g></g><g><clipPath id="clip-110"><path d="M 424.0 514.0 L 600.0 514.0 L 600.0 368.0 L 424.0 368.0 Z M 424.0 514.0 "></path></clipPath><g clip-path="url(#clip-110)"><g><clipPath id="clip-111"><path d="M 424.0 368.0 L 600.0 368.0 L 600.0 514.0 L 424.0 514.0 Z M 424.0 368.0 "></path></clipPath><g clip-path="url(#clip-111)"><path d="M 576.5 497.3 L 424.0 497.3 L 424.0 506.6 C 424.0 510.7 427.3 514.0 431.3 514.0 L 569.2 514.0 C 573.2 514.0 576.5 510.7 576.5 506.6 Z M 576.5 497.3 " fill="#60A6D9"></path></g></g></g></g><g><clipPath id="clip-112"><path d="M 424.0 514.0 L 600.0 514.0 L 600.0 368.0 L 424.0 368.0 Z M 424.0 514.0 "></path></clipPath><g clip-path="url(#clip-112)"><g><clipPath id="clip-113"><path d="M 424.0 368.0 L 600.0 368.0 L 600.0 514.0 L 424.0 514.0 Z M 424.0 368.0 "></path></clipPath><g clip-path="url(#clip-113)"><g><g><clipPath id="clip-114"><path d="M 497.2 368.0 L 600.0 368.0 L 600.0 445.0 L 497.2 445.0 Z M 497.2 368.0 "></path></clipPath><g clip-path="url(#clip-114)"><path d="M 551.9 379.1 C 539.8 379.1 529.9 389.0 529.9 401.2 C 529.9 413.5 539.8 423.4 551.9 423.4 C 564.1 423.4 574.0 413.5 574.0 401.2 C 574.0 389.0 564.1 379.1 551.9 379.1 M 590.9 435.7 L 590.5 435.7 L 590.5 445.0 L 567.4 445.0 L 567.4 435.7 L 506.3 435.7 C 501.3 435.7 497.2 431.6 497.2 426.6 L 497.2 377.2 C 497.2 372.1 501.3 368.0 506.3 368.0 L 590.9 368.0 C 595.9 368.0 600.0 372.1 600.0 377.2 L 600.0 426.6 C 600.0 431.6 595.9 435.7 590.9 435.7 " fill="#5EA8DC"></path></g></g></g></g></g></g></g></g></g></g></g></g><text xml:space="preserve" font-family="Gotham-Medium" font-size="52.0" fill="#FEFFFF" transform="matrix(1.00, 0.00, -0.00, -1.00, 283.0, 299.0)">S</text><text xml:space="preserve" font-family="Gotham-Medium" font-size="52.0" fill="#FEFFFF" transform="matrix(1.00, 0.00, -0.00, -1.00, 321.5, 299.0)">C</text><text xml:space="preserve" font-family="Gotham-Medium" font-size="52.0" fill="#FEFFFF" transform="matrix(1.00, 0.00, -0.00, -1.00, 365.1, 299.0)">R</text><text xml:space="preserve" font-family="Gotham-Medium" font-size="52.0" fill="#FEFFFF" transform="matrix(1.00, 0.00, -0.00, -1.00, 407.9, 299.0)">E</text><text xml:space="preserve" font-family="Gotham-Medium" font-size="52.0" fill="#FEFFFF" transform="matrix(1.00, 0.00, -0.00, -1.00, 447.9, 299.0)">E</text><text xml:space="preserve" font-family="Gotham-Medium" font-size="52.0" fill="#FEFFFF" transform="matrix(1.00, 0.00, -0.00, -1.00, 487.9, 299.0)">N</text><text xml:space="preserve" font-family="Gotham-Medium" font-size="52.0" fill="#FEFFFF" transform="matrix(1.00, 0.00, -0.00, -1.00, 534.2, 299.0)">S</text><text xml:space="preserve" font-family="Gotham-Medium" font-size="52.0" fill="#FEFFFF" transform="matrix(1.00, 0.00, -0.00, -1.00, 572.7, 299.0)">H</text><text xml:space="preserve" font-family="Gotham-Medium" font-size="52.0" fill="#FEFFFF" transform="matrix(1.00, 0.00, -0.00, -1.00, 617.4, 299.0)">O</text><text xml:space="preserve" font-family="Gotham-Medium" font-size="52.0" fill="#FEFFFF" transform="matrix(1.00, 0.00, -0.00, -1.00, 664.8, 299.0)">T</text><text xml:space="preserve" font-family="Gotham-Medium" font-size="52.0" fill="#FEFFFF" transform="matrix(1.00, 0.00, -0.00, -1.00, 703.0, 299.0)">S</text></g></svg>