<?xml version="1.0" encoding="UTF-8" standalone="no"?><svg xmlns="http://www.w3.org/2000/svg" xmlns:xlink="http://www.w3.org/1999/xlink" clip-rule="evenodd" stroke-miterlimit="4.00" viewBox="0 0 1024 768"><desc>SVG generated by Keynote</desc><defs></defs><g transform="matrix(1.00, 0.00, -0.00, -1.00, 0.0, 768.0)"><path d="M 0.0 768.0 L 1024.0 768.0 L 1024.0 0.0 L 0.0 0.0 Z M 0.0 768.0 " fill="#282E33"></path><text xml:space="preserve" font-family="Gotham-Book" font-size="100.0" fill="#FEFFFF" transform="matrix(1.00, 0.00, -0.00, -1.00, 122.0, 517.0)">A</text><text xml:space="preserve" font-family="Gotham-Book" font-size="100.0" fill="#FEFFFF" transform="matrix(1.00, 0.00, -0.00, -1.00, 201.0, 517.0)">n</text><text xml:space="preserve" font-family="Gotham-Book" font-size="100.0" fill="#FEFFFF" transform="matrix(1.00, 0.00, -0.00, -1.00, 262.6, 517.0)">d</text><text xml:space="preserve" font-family="Gotham-Book" font-size="100.0" fill="#FEFFFF" transform="matrix(1.00, 0.00, -0.00, -1.00, 329.0, 517.0)">r</text><text xml:space="preserve" font-family="Gotham-Book" font-size="100.0" fill="#FEFFFF" transform="matrix(1.00, 0.00, -0.00, -1.00, 367.3, 517.0)">e</text><text xml:space="preserve" font-family="Gotham-Book" font-size="100.0" fill="#FEFFFF" transform="matrix(1.00, 0.00, -0.00, -1.00, 426.5, 517.0)">a</text><text xml:space="preserve" font-family="Gotham-Book" font-size="100.0" fill="#FEFFFF" transform="matrix(1.00, 0.00, -0.00, -1.00, 484.4, 517.0)"> </text><text xml:space="preserve" font-family="Gotham-Book" font-size="100.0" fill="#FEFFFF" transform="matrix(1.00, 0.00, -0.00, -1.00, 514.4, 517.0)">F</text><text xml:space="preserve" font-family="Gotham-Book" font-size="100.0" fill="#FEFFFF" transform="matrix(1.00, 0.00, -0.00, -1.00, 577.5, 517.0)">a</text><text xml:space="preserve" font-family="Gotham-Book" font-size="100.0" fill="#FEFFFF" transform="matrix(1.00, 0.00, -0.00, -1.00, 635.4, 517.0)">l</text><text xml:space="preserve" font-family="Gotham-Book" font-size="100.0" fill="#FEFFFF" transform="matrix(1.00, 0.00, -0.00, -1.00, 661.7, 517.0)">c</text><text xml:space="preserve" font-family="Gotham-Book" font-size="100.0" fill="#FEFFFF" transform="matrix(1.00, 0.00, -0.00, -1.00, 717.3, 517.0)">o</text><text xml:space="preserve" font-family="Gotham-Book" font-size="100.0" fill="#FEFFFF" transform="matrix(1.00, 0.00, -0.00, -1.00, 781.9, 517.0)">n</text><text xml:space="preserve" font-family="Gotham-Book" font-size="100.0" fill="#FEFFFF" transform="matrix(1.00, 0.00, -0.00, -1.00, 843.5, 517.0)">e</text><text xml:space="preserve" font-family="Gotham-Book" font-size="100.0" fill="#FEFFFF" transform="matrix(1.00, 0.00, -0.00, -1.00, 902.7, 517.0)"> </text><text xml:space="preserve" font-family="Gotham-Book" font-size="73.0" fill="#FEFFFF" transform="matrix(1.00, 0.00, -0.00, -1.00, 51.0, 382.0)">S</text><text xml:space="preserve" font-family="Gotham-Book" font-size="73.0" fill="#FEFFFF" transform="matrix(1.00, 0.00, -0.00, -1.00, 97.7, 382.0)">e</text><text xml:space="preserve" font-family="Gotham-Book" font-size="73.0" fill="#FEFFFF" transform="matrix(1.00, 0.00, -0.00, -1.00, 140.9, 382.0)">n</text><text xml:space="preserve" font-family="Gotham-Book" font-size="73.0" fill="#FEFFFF" transform="matrix(1.00, 0.00, -0.00, -1.00, 185.9, 382.0)">i</text><text xml:space="preserve" font-family="Gotham-Book" font-size="73.0" fill="#FEFFFF" transform="matrix(1.00, 0.00, -0.00, -1.00, 205.1, 382.0)">o</text><text xml:space="preserve" font-family="Gotham-Book" font-size="73.0" fill="#FEFFFF" transform="matrix(1.00, 0.00, -0.00, -1.00, 252.3, 382.0)">r</text><text xml:space="preserve" font-family="Gotham-Book" font-size="73.0" fill="#FEFFFF" transform="matrix(1.00, 0.00, -0.00, -1.00, 281.8, 382.0)"> </text><text xml:space="preserve" font-family="Gotham-Book" font-size="73.0" fill="#FEFFFF" transform="matrix(1.00, 0.00, -0.00, -1.00, 303.7, 382.0)">S</text><text xml:space="preserve" font-family="Gotham-Book" font-size="73.0" fill="#FEFFFF" transform="matrix(1.00, 0.00, -0.00, -1.00, 350.4, 382.0)">o</text><text xml:space="preserve" font-family="Gotham-Book" font-size="73.0" fill="#FEFFFF" transform="matrix(1.00, 0.00, -0.00, -1.00, 397.6, 382.0)">f</text><text xml:space="preserve" font-family="Gotham-Book" font-size="73.0" fill="#FEFFFF" transform="matrix(1.00, 0.00, -0.00, -1.00, 424.4, 382.0)">t</text><text xml:space="preserve" font-family="Gotham-Book" font-size="73.0" fill="#FEFFFF" transform="matrix(1.00, 0.00, -0.00, -1.00, 453.9, 382.0)">w</text><text xml:space="preserve" font-family="Gotham-Book" font-size="73.0" fill="#FEFFFF" transform="matrix(1.00, 0.00, -0.00, -1.00, 515.3, 382.0)">a</text><text xml:space="preserve" font-family="Gotham-Book" font-size="73.0" fill="#FEFFFF" transform="matrix(1.00, 0.00, -0.00, -1.00, 557.5, 382.0)">r</text><text xml:space="preserve" font-family="Gotham-Book" font-size="73.0" fill="#FEFFFF" transform="matrix(1.00, 0.00, -0.00, -1.00, 585.5, 382.0)">e</text><text xml:space="preserve" font-family="Gotham-Book" font-size="73.0" fill="#FEFFFF" transform="matrix(1.00, 0.00, -0.00, -1.00, 628.7, 382.0)"> </text><text xml:space="preserve" font-family="Gotham-Book" font-size="73.0" fill="#FEFFFF" transform="matrix(1.00, 0.00, -0.00, -1.00, 650.6, 382.0)">E</text><text xml:space="preserve" font-family="Gotham-Book" font-size="73.0" fill="#FEFFFF" transform="matrix(1.00, 0.00, -0.00, -1.00, 699.5, 382.0)">n</text><text xml:space="preserve" font-family="Gotham-Book" font-size="73.0" fill="#FEFFFF" transform="matrix(1.00, 0.00, -0.00, -1.00, 744.5, 382.0)">g</text><text xml:space="preserve" font-family="Gotham-Book" font-size="73.0" fill="#FEFFFF" transform="matrix(1.00, 0.00, -0.00, -1.00, 793.0, 382.0)">i</text><text xml:space="preserve" font-family="Gotham-Book" font-size="73.0" fill="#FEFFFF" transform="matrix(1.00, 0.00, -0.00, -1.00, 812.2, 382.0)">n</text><text xml:space="preserve" font-family="Gotham-Book" font-size="73.0" fill="#FEFFFF" transform="matrix(1.00, 0.00, -0.00, -1.00, 857.1, 382.0)">e</text><text xml:space="preserve" font-family="Gotham-Book" font-size="73.0" fill="#FEFFFF" transform="matrix(1.00, 0.00, -0.00, -1.00, 900.4, 382.0)">e</text><text xml:space="preserve" font-family="Gotham-Book" font-size="73.0" fill="#FEFFFF" transform="matrix(1.00, 0.00, -0.00, -1.00, 943.6, 382.0)">r</text><text xml:space="preserve" font-family="Gotham-Book" font-size="73.0" fill="#FEFFFF" transform="matrix(1.00, 0.00, -0.00, -1.00, 973.1, 382.0)"> </text><text xml:space="preserve" font-family="Gotham-Book" font-size="73.0" fill="#FEFFFF" transform="matrix(1.00, 0.00, -0.00, -1.00, 189.0, 294.0)">T</text><text xml:space="preserve" font-family="Gotham-Book" font-size="73.0" fill="#FEFFFF" transform="matrix(1.00, 0.00, -0.00, -1.00, 230.2, 294.0)">w</text><text xml:space="preserve" font-family="Gotham-Book" font-size="73.0" fill="#FEFFFF" transform="matrix(1.00, 0.00, -0.00, -1.00, 293.0, 294.0)">i</text><text xml:space="preserve" font-family="Gotham-Book" font-size="73.0" fill="#FEFFFF" transform="matrix(1.00, 0.00, -0.00, -1.00, 312.2, 294.0)">t</text><text xml:space="preserve" font-family="Gotham-Book" font-size="73.0" fill="#FEFFFF" transform="matrix(1.00, 0.00, -0.00, -1.00, 341.7, 294.0)">t</text><text xml:space="preserve" font-family="Gotham-Book" font-size="73.0" fill="#FEFFFF" transform="matrix(1.00, 0.00, -0.00, -1.00, 370.1, 294.0)">e</text><text xml:space="preserve" font-family="Gotham-Book" font-size="73.0" fill="#FEFFFF" transform="matrix(1.00, 0.00, -0.00, -1.00, 413.3, 294.0)">r</text><text xml:space="preserve" font-family="Gotham-Book" font-size="73.0" fill="#FEFFFF" transform="matrix(1.00, 0.00, -0.00, -1.00, 442.9, 294.0)"> </text><text xml:space="preserve" font-family="Gotham-Book" font-size="73.0" fill="#FEFFFF" transform="matrix(1.00, 0.00, -0.00, -1.00, 464.8, 294.0)">+</text><text xml:space="preserve" font-family="Gotham-Book" font-size="73.0" fill="#FEFFFF" transform="matrix(1.00, 0.00, -0.00, -1.00, 510.4, 294.0)"> </text><text xml:space="preserve" font-family="Gotham-Book" font-size="73.0" fill="#FEFFFF" transform="matrix(1.00, 0.00, -0.00, -1.00, 532.3, 294.0)">F</text><text xml:space="preserve" font-family="Gotham-Book" font-size="73.0" fill="#FEFFFF" transform="matrix(1.00, 0.00, -0.00, -1.00, 578.4, 294.0)">a</text><text xml:space="preserve" font-family="Gotham-Book" font-size="73.0" fill="#FEFFFF" transform="matrix(1.00, 0.00, -0.00, -1.00, 620.6, 294.0)">s</text><text xml:space="preserve" font-family="Gotham-Book" font-size="73.0" fill="#FEFFFF" transform="matrix(1.00, 0.00, -0.00, -1.00, 656.3, 294.0)">t</text><text xml:space="preserve" font-family="Gotham-Book" font-size="73.0" fill="#FEFFFF" transform="matrix(1.00, 0.00, -0.00, -1.00, 685.8, 294.0)">l</text><text xml:space="preserve" font-family="Gotham-Book" font-size="73.0" fill="#FEFFFF" transform="matrix(1.00, 0.00, -0.00, -1.00, 705.0, 294.0)">a</text><text xml:space="preserve" font-family="Gotham-Book" font-size="73.0" fill="#FEFFFF" transform="matrix(1.00, 0.00, -0.00, -1.00, 747.2, 294.0)">n</text><text xml:space="preserve" font-family="Gotham-Book" font-size="73.0" fill="#FEFFFF" transform="matrix(1.00, 0.00, -0.00, -1.00, 792.2, 294.0)">e</text><text xml:space="preserve" font-family="Gotham-Medium" font-size="59.0" fill="#6DCFF8" transform="matrix(1.00, 0.00, -0.00, -1.00, 343.0, 167.0)">@</text><text xml:space="preserve" font-family="Gotham-Medium" font-size="59.0" fill="#6DCFF8" transform="matrix(1.00, 0.00, -0.00, -1.00, 400.8, 167.0)">a</text><text xml:space="preserve" font-family="Gotham-Medium" font-size="59.0" fill="#6DCFF8" transform="matrix(1.00, 0.00, -0.00, -1.00, 435.5, 167.0)">s</text><text xml:space="preserve" font-family="Gotham-Medium" font-size="59.0" fill="#6DCFF8" transform="matrix(1.00, 0.00, -0.00, -1.00, 465.0, 167.0)">f</text><text xml:space="preserve" font-family="Gotham-Medium" font-size="59.0" fill="#6DCFF8" transform="matrix(1.00, 0.00, -0.00, -1.00, 486.3, 167.0)">a</text><text xml:space="preserve" font-family="Gotham-Medium" font-size="59.0" fill="#6DCFF8" transform="matrix(1.00, 0.00, -0.00, -1.00, 520.9, 167.0)">l</text><text xml:space="preserve" font-family="Gotham-Medium" font-size="59.0" fill="#6DCFF8" transform="matrix(1.00, 0.00, -0.00, -1.00, 537.8, 167.0)">c</text><text xml:space="preserve" font-family="Gotham-Medium" font-size="59.0" fill="#6DCFF8" transform="matrix(1.00, 0.00, -0.00, -1.00, 570.6, 167.0)">o</text><text xml:space="preserve" font-family="Gotham-Medium" font-size="59.0" fill="#6DCFF8" transform="matrix(1.00, 0.00, -0.00, -1.00, 609.3, 167.0)">n</text><text xml:space="preserve" font-family="Gotham-Medium" font-size="59.0" fill="#6DCFF8" transform="matrix(1.00, 0.00, -0.00, -1.00, 645.9, 167.0)">e</text></g></svg>