<?xml version="1.0" encoding="UTF-8" standalone="no"?><svg xmlns="http://www.w3.org/2000/svg" xmlns:xlink="http://www.w3.org/1999/xlink" clip-rule="evenodd" stroke-miterlimit="4.00" viewBox="0 0 1024 768"><desc>SVG generated by Keynote</desc><defs></defs><g transform="matrix(1.00, 0.00, -0.00, -1.00, 0.0, 768.0)"><path d="M 0.0 768.0 L 1024.0 768.0 L 1024.0 0.0 L 0.0 0.0 Z M 0.0 768.0 " fill="#282E33"></path><text xml:space="preserve" font-family="Gotham-Medium" font-size="40.0" fill="#6DCFF8" transform="matrix(1.00, 0.00, -0.00, -1.00, 775.0, 34.0)">@</text><text xml:space="preserve" font-family="Gotham-Medium" font-size="40.0" fill="#6DCFF8" transform="matrix(1.00, 0.00, -0.00, -1.00, 814.2, 34.0)">a</text><text xml:space="preserve" font-family="Gotham-Medium" font-size="40.0" fill="#6DCFF8" transform="matrix(1.00, 0.00, -0.00, -1.00, 837.7, 34.0)">s</text><text xml:space="preserve" font-family="Gotham-Medium" font-size="40.0" fill="#6DCFF8" transform="matrix(1.00, 0.00, -0.00, -1.00, 857.7, 34.0)">f</text><text xml:space="preserve" font-family="Gotham-Medium" font-size="40.0" fill="#6DCFF8" transform="matrix(1.00, 0.00, -0.00, -1.00, 872.1, 34.0)">a</text><text xml:space="preserve" font-family="Gotham-Medium" font-size="40.0" fill="#6DCFF8" transform="matrix(1.00, 0.00, -0.00, -1.00, 895.6, 34.0)">l</text><text xml:space="preserve" font-family="Gotham-Medium" font-size="40.0" fill="#6DCFF8" transform="matrix(1.00, 0.00, -0.00, -1.00, 907.0, 34.0)">c</text><text xml:space="preserve" font-family="Gotham-Medium" font-size="40.0" fill="#6DCFF8" transform="matrix(1.00, 0.00, -0.00, -1.00, 929.3, 34.0)">o</text><text xml:space="preserve" font-family="Gotham-Medium" font-size="40.0" fill="#6DCFF8" transform="matrix(1.00, 0.00, -0.00, -1.00, 955.6, 34.0)">n</text><text xml:space="preserve" font-family="Gotham-Medium" font-size="40.0" fill="#6DCFF8" transform="matrix(1.00, 0.00, -0.00, -1.00, 980.4, 34.0)">e</text><text xml:space="preserve" font-family="Gotham-Medium" font-size="52.0" fill="#FEFFFF" transform="matrix(1.00, 0.00, -0.00, -1.00, 109.0, 461.0)">S</text><text xml:space="preserve" font-family="Gotham-Medium" font-size="52.0" fill="#FEFFFF" transform="matrix(1.00, 0.00, -0.00, -1.00, 147.5, 461.0)">U</text><text xml:space="preserve" font-family="Gotham-Medium" font-size="52.0" fill="#FEFFFF" transform="matrix(1.00, 0.00, -0.00, -1.00, 192.0, 461.0)">P</text><text xml:space="preserve" font-family="Gotham-Medium" font-size="52.0" fill="#FEFFFF" transform="matrix(1.00, 0.00, -0.00, -1.00, 232.0, 461.0)">E</text><text xml:space="preserve" font-family="Gotham-Medium" font-size="52.0" fill="#FEFFFF" transform="matrix(1.00, 0.00, -0.00, -1.00, 272.0, 461.0)">R</text><text xml:space="preserve" font-family="Gotham-Medium" font-size="52.0" fill="#FEFFFF" transform="matrix(1.00, 0.00, -0.00, -1.00, 314.8, 461.0)">C</text><text xml:space="preserve" font-family="Gotham-Medium" font-size="52.0" fill="#FEFFFF" transform="matrix(1.00, 0.00, -0.00, -1.00, 358.4, 461.0)">H</text><text xml:space="preserve" font-family="Gotham-Medium" font-size="52.0" fill="#FEFFFF" transform="matrix(1.00, 0.00, -0.00, -1.00, 403.1, 461.0)">A</text><text xml:space="preserve" font-family="Gotham-Medium" font-size="52.0" fill="#FEFFFF" transform="matrix(1.00, 0.00, -0.00, -1.00, 449.4, 461.0)">R</text><text xml:space="preserve" font-family="Gotham-Medium" font-size="52.0" fill="#FEFFFF" transform="matrix(1.00, 0.00, -0.00, -1.00, 492.2, 461.0)">G</text><text xml:space="preserve" font-family="Gotham-Medium" font-size="52.0" fill="#FEFFFF" transform="matrix(1.00, 0.00, -0.00, -1.00, 538.2, 461.0)">I</text><text xml:space="preserve" font-family="Gotham-Medium" font-size="52.0" fill="#FEFFFF" transform="matrix(1.00, 0.00, -0.00, -1.00, 559.8, 461.0)">N</text><text xml:space="preserve" font-family="Gotham-Medium" font-size="52.0" fill="#FEFFFF" transform="matrix(1.00, 0.00, -0.00, -1.00, 606.1, 461.0)">G</text><text xml:space="preserve" font-family="Gotham-Medium" font-size="52.0" fill="#FEFFFF" transform="matrix(1.00, 0.00, -0.00, -1.00, 652.1, 461.0)"> </text><text xml:space="preserve" font-family="Gotham-Medium" font-size="52.0" fill="#FEFFFF" transform="matrix(1.00, 0.00, -0.00, -1.00, 672.9, 461.0)">Y</text><text xml:space="preserve" font-family="Gotham-Medium" font-size="52.0" fill="#FEFFFF" transform="matrix(1.00, 0.00, -0.00, -1.00, 712.2, 461.0)">O</text><text xml:space="preserve" font-family="Gotham-Medium" font-size="52.0" fill="#FEFFFF" transform="matrix(1.00, 0.00, -0.00, -1.00, 761.6, 461.0)">U</text><text xml:space="preserve" font-family="Gotham-Medium" font-size="52.0" fill="#FEFFFF" transform="matrix(1.00, 0.00, -0.00, -1.00, 806.2, 461.0)">R</text><text xml:space="preserve" font-family="Gotham-Medium" font-size="52.0" fill="#FEFFFF" transform="matrix(1.00, 0.00, -0.00, -1.00, 849.0, 461.0)"> </text><text xml:space="preserve" font-family="Gotham-Medium" font-size="52.0" fill="#FEFFFF" transform="matrix(1.00, 0.00, -0.00, -1.00, 132.0, 399.0)">M</text><text xml:space="preserve" font-family="Gotham-Medium" font-size="52.0" fill="#FEFFFF" transform="matrix(1.00, 0.00, -0.00, -1.00, 182.3, 399.0)">O</text><text xml:space="preserve" font-family="Gotham-Medium" font-size="52.0" fill="#FEFFFF" transform="matrix(1.00, 0.00, -0.00, -1.00, 231.7, 399.0)">B</text><text xml:space="preserve" font-family="Gotham-Medium" font-size="52.0" fill="#FEFFFF" transform="matrix(1.00, 0.00, -0.00, -1.00, 274.5, 399.0)">I</text><text xml:space="preserve" font-family="Gotham-Medium" font-size="52.0" fill="#FEFFFF" transform="matrix(1.00, 0.00, -0.00, -1.00, 296.2, 399.0)">L</text><text xml:space="preserve" font-family="Gotham-Medium" font-size="52.0" fill="#FEFFFF" transform="matrix(1.00, 0.00, -0.00, -1.00, 333.6, 399.0)">E</text><text xml:space="preserve" font-family="Gotham-Medium" font-size="52.0" fill="#FEFFFF" transform="matrix(1.00, 0.00, -0.00, -1.00, 373.6, 399.0)"> </text><text xml:space="preserve" font-family="Gotham-Medium" font-size="52.0" fill="#FEFFFF" transform="matrix(1.00, 0.00, -0.00, -1.00, 394.4, 399.0)">A</text><text xml:space="preserve" font-family="Gotham-Medium" font-size="52.0" fill="#FEFFFF" transform="matrix(1.00, 0.00, -0.00, -1.00, 440.7, 399.0)">P</text><text xml:space="preserve" font-family="Gotham-Medium" font-size="52.0" fill="#FEFFFF" transform="matrix(1.00, 0.00, -0.00, -1.00, 480.6, 399.0)">P</text><text xml:space="preserve" font-family="Gotham-Medium" font-size="52.0" fill="#FEFFFF" transform="matrix(1.00, 0.00, -0.00, -1.00, 520.5, 399.0)"> </text><text xml:space="preserve" font-family="Gotham-Medium" font-size="52.0" fill="#FEFFFF" transform="matrix(1.00, 0.00, -0.00, -1.00, 541.3, 399.0)">R</text><text xml:space="preserve" font-family="Gotham-Medium" font-size="52.0" fill="#FEFFFF" transform="matrix(1.00, 0.00, -0.00, -1.00, 584.1, 399.0)">E</text><text xml:space="preserve" font-family="Gotham-Medium" font-size="52.0" fill="#FEFFFF" transform="matrix(1.00, 0.00, -0.00, -1.00, 624.2, 399.0)">L</text><text xml:space="preserve" font-family="Gotham-Medium" font-size="52.0" fill="#FEFFFF" transform="matrix(1.00, 0.00, -0.00, -1.00, 661.6, 399.0)">E</text><text xml:space="preserve" font-family="Gotham-Medium" font-size="52.0" fill="#FEFFFF" transform="matrix(1.00, 0.00, -0.00, -1.00, 701.6, 399.0)">A</text><text xml:space="preserve" font-family="Gotham-Medium" font-size="52.0" fill="#FEFFFF" transform="matrix(1.00, 0.00, -0.00, -1.00, 747.3, 399.0)">S</text><text xml:space="preserve" font-family="Gotham-Medium" font-size="52.0" fill="#FEFFFF" transform="matrix(1.00, 0.00, -0.00, -1.00, 785.7, 399.0)">E</text><text xml:space="preserve" font-family="Gotham-Medium" font-size="52.0" fill="#FEFFFF" transform="matrix(1.00, 0.00, -0.00, -1.00, 825.8, 399.0)"> </text><text xml:space="preserve" font-family="Gotham-Medium" font-size="52.0" fill="#FEFFFF" transform="matrix(1.00, 0.00, -0.00, -1.00, 220.0, 337.0)">W</text><text xml:space="preserve" font-family="Gotham-Medium" font-size="52.0" fill="#FEFFFF" transform="matrix(1.00, 0.00, -0.00, -1.00, 283.2, 337.0)">I</text><text xml:space="preserve" font-family="Gotham-Medium" font-size="52.0" fill="#FEFFFF" transform="matrix(1.00, 0.00, -0.00, -1.00, 304.9, 337.0)">T</text><text xml:space="preserve" font-family="Gotham-Medium" font-size="52.0" fill="#FEFFFF" transform="matrix(1.00, 0.00, -0.00, -1.00, 343.8, 337.0)">H</text><text xml:space="preserve" font-family="Gotham-Medium" font-size="52.0" fill="#FEFFFF" transform="matrix(1.00, 0.00, -0.00, -1.00, 388.5, 337.0)"> </text><text xml:space="preserve" font-family="Gotham-Medium" font-size="52.0" fill="#FEFFFF" transform="matrix(1.00, 0.00, -0.00, -1.00, 409.3, 337.0)">F</text><text xml:space="preserve" font-family="Gotham-Medium" font-size="52.0" fill="#FEFFFF" transform="matrix(1.00, 0.00, -0.00, -1.00, 444.5, 337.0)">A</text><text xml:space="preserve" font-family="Gotham-Medium" font-size="52.0" fill="#FEFFFF" transform="matrix(1.00, 0.00, -0.00, -1.00, 490.1, 337.0)">S</text><text xml:space="preserve" font-family="Gotham-Medium" font-size="52.0" fill="#FEFFFF" transform="matrix(1.00, 0.00, -0.00, -1.00, 527.8, 337.0)">T</text><text xml:space="preserve" font-family="Gotham-Medium" font-size="52.0" fill="#FEFFFF" transform="matrix(1.00, 0.00, -0.00, -1.00, 566.7, 337.0)">L</text><text xml:space="preserve" font-family="Gotham-Medium" font-size="52.0" fill="#FEFFFF" transform="matrix(1.00, 0.00, -0.00, -1.00, 604.1, 337.0)">A</text><text xml:space="preserve" font-family="Gotham-Medium" font-size="52.0" fill="#FEFFFF" transform="matrix(1.00, 0.00, -0.00, -1.00, 650.4, 337.0)">N</text><text xml:space="preserve" font-family="Gotham-Medium" font-size="52.0" fill="#FEFFFF" transform="matrix(1.00, 0.00, -0.00, -1.00, 696.7, 337.0)">E</text><image xlink:href="../../A290CFA1-303F-4D99-8297-EDA471F4854C/assets/A944B0619C162CED29EED6A454ECCB7A.png" width="120.00" height="120.00" transform="matrix(1.00, 0.00, -0.00, -1.00, 855.0, 474.0)"></image></g></svg>