<?xml version="1.0" encoding="UTF-8" standalone="no"?><svg xmlns="http://www.w3.org/2000/svg" xmlns:xlink="http://www.w3.org/1999/xlink" clip-rule="evenodd" stroke-miterlimit="4.00" viewBox="0 0 1024 768"><desc>SVG generated by Keynote</desc><defs></defs><g transform="matrix(1.00, 0.00, -0.00, -1.00, 0.0, 768.0)"><path d="M 0.0 768.0 L 1024.0 768.0 L 1024.0 0.0 L 0.0 0.0 Z M 0.0 768.0 " fill="#282E33"></path><text xml:space="preserve" font-family="Gotham-Medium" font-size="40.0" fill="#6DCFF8" transform="matrix(1.00, 0.00, -0.00, -1.00, 775.0, 34.0)">@</text><text xml:space="preserve" font-family="Gotham-Medium" font-size="40.0" fill="#6DCFF8" transform="matrix(1.00, 0.00, -0.00, -1.00, 814.2, 34.0)">a</text><text xml:space="preserve" font-family="Gotham-Medium" font-size="40.0" fill="#6DCFF8" transform="matrix(1.00, 0.00, -0.00, -1.00, 837.7, 34.0)">s</text><text xml:space="preserve" font-family="Gotham-Medium" font-size="40.0" fill="#6DCFF8" transform="matrix(1.00, 0.00, -0.00, -1.00, 857.7, 34.0)">f</text><text xml:space="preserve" font-family="Gotham-Medium" font-size="40.0" fill="#6DCFF8" transform="matrix(1.00, 0.00, -0.00, -1.00, 872.1, 34.0)">a</text><text xml:space="preserve" font-family="Gotham-Medium" font-size="40.0" fill="#6DCFF8" transform="matrix(1.00, 0.00, -0.00, -1.00, 895.6, 34.0)">l</text><text xml:space="preserve" font-family="Gotham-Medium" font-size="40.0" fill="#6DCFF8" transform="matrix(1.00, 0.00, -0.00, -1.00, 907.0, 34.0)">c</text><text xml:space="preserve" font-family="Gotham-Medium" font-size="40.0" fill="#6DCFF8" transform="matrix(1.00, 0.00, -0.00, -1.00, 929.3, 34.0)">o</text><text xml:space="preserve" font-family="Gotham-Medium" font-size="40.0" fill="#6DCFF8" transform="matrix(1.00, 0.00, -0.00, -1.00, 955.6, 34.0)">n</text><text xml:space="preserve" font-family="Gotham-Medium" font-size="40.0" fill="#6DCFF8" transform="matrix(1.00, 0.00, -0.00, -1.00, 980.4, 34.0)">e</text><text xml:space="preserve" font-family="Courier" font-size="68.0" fill="#00E944" transform="matrix(1.00, 0.00, -0.00, -1.00, 65.0, 360.0)">$</text><text xml:space="preserve" font-family="Courier" font-size="68.0" fill="#00E944" transform="matrix(1.00, 0.00, -0.00, -1.00, 146.6, 360.0)">f</text><text xml:space="preserve" font-family="Courier" font-size="68.0" fill="#00E944" transform="matrix(1.00, 0.00, -0.00, -1.00, 187.4, 360.0)">a</text><text xml:space="preserve" font-family="Courier" font-size="68.0" fill="#00E944" transform="matrix(1.00, 0.00, -0.00, -1.00, 228.2, 360.0)">s</text><text xml:space="preserve" font-family="Courier" font-size="68.0" fill="#00E944" transform="matrix(1.00, 0.00, -0.00, -1.00, 269.0, 360.0)">t</text><text xml:space="preserve" font-family="Courier" font-size="68.0" fill="#00E944" transform="matrix(1.00, 0.00, -0.00, -1.00, 309.8, 360.0)">l</text><text xml:space="preserve" font-family="Courier" font-size="68.0" fill="#00E944" transform="matrix(1.00, 0.00, -0.00, -1.00, 350.6, 360.0)">a</text><text xml:space="preserve" font-family="Courier" font-size="68.0" fill="#00E944" transform="matrix(1.00, 0.00, -0.00, -1.00, 391.5, 360.0)">n</text><text xml:space="preserve" font-family="Courier" font-size="68.0" fill="#00E944" transform="matrix(1.00, 0.00, -0.00, -1.00, 432.3, 360.0)">e</text><text xml:space="preserve" font-family="Courier" font-size="68.0" fill="#00E944" transform="matrix(1.00, 0.00, -0.00, -1.00, 513.9, 360.0)">b</text><text xml:space="preserve" font-family="Courier" font-size="68.0" fill="#00E944" transform="matrix(1.00, 0.00, -0.00, -1.00, 554.7, 360.0)">e</text><text xml:space="preserve" font-family="Courier" font-size="68.0" fill="#00E944" transform="matrix(1.00, 0.00, -0.00, -1.00, 595.5, 360.0)">t</text><text xml:space="preserve" font-family="Courier" font-size="68.0" fill="#00E944" transform="matrix(1.00, 0.00, -0.00, -1.00, 636.3, 360.0)">a</text></g></svg>