<?xml version="1.0" encoding="UTF-8" standalone="no"?><svg xmlns="http://www.w3.org/2000/svg" xmlns:xlink="http://www.w3.org/1999/xlink" clip-rule="evenodd" stroke-miterlimit="4.00" viewBox="0 0 1024 768"><desc>SVG generated by Keynote</desc><defs></defs><g transform="matrix(1.00, 0.00, -0.00, -1.00, 0.0, 768.0)"><path d="M 0.0 768.0 L 1024.0 768.0 L 1024.0 0.0 L 0.0 0.0 Z M 0.0 768.0 " fill="#282E33"></path><text xml:space="preserve" font-family="Gotham-Medium" font-size="40.0" fill="#6DCFF8" transform="matrix(1.00, 0.00, -0.00, -1.00, 775.0, 34.0)">@</text><text xml:space="preserve" font-family="Gotham-Medium" font-size="40.0" fill="#6DCFF8" transform="matrix(1.00, 0.00, -0.00, -1.00, 814.2, 34.0)">a</text><text xml:space="preserve" font-family="Gotham-Medium" font-size="40.0" fill="#6DCFF8" transform="matrix(1.00, 0.00, -0.00, -1.00, 837.7, 34.0)">s</text><text xml:space="preserve" font-family="Gotham-Medium" font-size="40.0" fill="#6DCFF8" transform="matrix(1.00, 0.00, -0.00, -1.00, 857.7, 34.0)">f</text><text xml:space="preserve" font-family="Gotham-Medium" font-size="40.0" fill="#6DCFF8" transform="matrix(1.00, 0.00, -0.00, -1.00, 872.1, 34.0)">a</text><text xml:space="preserve" font-family="Gotham-Medium" font-size="40.0" fill="#6DCFF8" transform="matrix(1.00, 0.00, -0.00, -1.00, 895.6, 34.0)">l</text><text xml:space="preserve" font-family="Gotham-Medium" font-size="40.0" fill="#6DCFF8" transform="matrix(1.00, 0.00, -0.00, -1.00, 907.0, 34.0)">c</text><text xml:space="preserve" font-family="Gotham-Medium" font-size="40.0" fill="#6DCFF8" transform="matrix(1.00, 0.00, -0.00, -1.00, 929.3, 34.0)">o</text><text xml:space="preserve" font-family="Gotham-Medium" font-size="40.0" fill="#6DCFF8" transform="matrix(1.00, 0.00, -0.00, -1.00, 955.6, 34.0)">n</text><text xml:space="preserve" font-family="Gotham-Medium" font-size="40.0" fill="#6DCFF8" transform="matrix(1.00, 0.00, -0.00, -1.00, 980.4, 34.0)">e</text><g><clipPath id="clip-6"><path d="M 392.8 271.5 L 831.1 271.5 L 831.1 441.5 L 392.8 441.5 Z M 392.8 271.5 "></path></clipPath><g clip-path="url(#clip-6)"><text xml:space="preserve" font-family="Gotham-Book" font-size="100.0" fill="#FEFFFF" transform="matrix(1.00, 0.00, -0.00, -1.00, 418.0, 337.0)">f</text><text xml:space="preserve" font-family="Gotham-Book" font-size="100.0" fill="#FEFFFF" transform="matrix(1.00, 0.00, -0.00, -1.00, 453.2, 337.0)">a</text><text xml:space="preserve" font-family="Gotham-Book" font-size="100.0" fill="#FEFFFF" transform="matrix(1.00, 0.00, -0.00, -1.00, 511.1, 337.0)">s</text><text xml:space="preserve" font-family="Gotham-Book" font-size="100.0" fill="#FEFFFF" transform="matrix(1.00, 0.00, -0.00, -1.00, 559.9, 337.0)">t</text><text xml:space="preserve" font-family="Gotham-Book" font-size="100.0" fill="#FEFFFF" transform="matrix(1.00, 0.00, -0.00, -1.00, 600.3, 337.0)">l</text><text xml:space="preserve" font-family="Gotham-Book" font-size="100.0" fill="#FEFFFF" transform="matrix(1.00, 0.00, -0.00, -1.00, 626.6, 337.0)">a</text><text xml:space="preserve" font-family="Gotham-Book" font-size="100.0" fill="#FEFFFF" transform="matrix(1.00, 0.00, -0.00, -1.00, 684.5, 337.0)">n</text><text xml:space="preserve" font-family="Gotham-Book" font-size="100.0" fill="#FEFFFF" transform="matrix(1.00, 0.00, -0.00, -1.00, 746.1, 337.0)">e</text></g></g><g><clipPath id="clip-7"><path d="M 214.9 284.0 L 414.9 284.0 L 414.9 484.0 L 214.9 484.0 Z M 214.9 284.0 "></path></clipPath><g clip-path="url(#clip-7)"><image xlink:href="../../6F7BF54E-AD0E-4EBB-BD92-F63262B99807/assets/B12C8663D3A198ADE1FE5B79B7EE823A.png" width="200.00" height="200.00" transform="matrix(1.00, 0.00, -0.00, -1.00, 215.0, 484.0)"></image></g></g></g></svg>