<?xml version="1.0" encoding="UTF-8" standalone="no"?><svg xmlns="http://www.w3.org/2000/svg" xmlns:xlink="http://www.w3.org/1999/xlink" clip-rule="evenodd" stroke-miterlimit="4.00" viewBox="0 0 597 200"><desc>SVG generated by Keynote</desc><defs></defs><g transform="matrix(1.00, 0.00, -0.00, -1.00, 0.0, 200.0)"><g><clipPath id="clip-4"><path d="M 178.8 -12.5 L 617.1 -12.5 L 617.1 157.5 L 178.8 157.5 Z M 178.8 -12.5 "></path></clipPath><g clip-path="url(#clip-4)"><text xml:space="preserve" font-family="Gotham-Book" font-size="100.0" fill="#FEFFFF" transform="matrix(1.00, 0.00, -0.00, -1.00, 204.0, 53.0)">f</text><text xml:space="preserve" font-family="Gotham-Book" font-size="100.0" fill="#FEFFFF" transform="matrix(1.00, 0.00, -0.00, -1.00, 239.2, 53.0)">a</text><text xml:space="preserve" font-family="Gotham-Book" font-size="100.0" fill="#FEFFFF" transform="matrix(1.00, 0.00, -0.00, -1.00, 297.1, 53.0)">s</text><text xml:space="preserve" font-family="Gotham-Book" font-size="100.0" fill="#FEFFFF" transform="matrix(1.00, 0.00, -0.00, -1.00, 345.9, 53.0)">t</text><text xml:space="preserve" font-family="Gotham-Book" font-size="100.0" fill="#FEFFFF" transform="matrix(1.00, 0.00, -0.00, -1.00, 386.3, 53.0)">l</text><text xml:space="preserve" font-family="Gotham-Book" font-size="100.0" fill="#FEFFFF" transform="matrix(1.00, 0.00, -0.00, -1.00, 412.6, 53.0)">a</text><text xml:space="preserve" font-family="Gotham-Book" font-size="100.0" fill="#FEFFFF" transform="matrix(1.00, 0.00, -0.00, -1.00, 470.5, 53.0)">n</text><text xml:space="preserve" font-family="Gotham-Book" font-size="100.0" fill="#FEFFFF" transform="matrix(1.00, 0.00, -0.00, -1.00, 532.1, 53.0)">e</text></g></g><g><clipPath id="clip-5"><path d="M 0.9 0.0 L 200.9 0.0 L 200.9 200.0 L 0.9 200.0 Z M 0.9 0.0 "></path></clipPath><g clip-path="url(#clip-5)"><image xlink:href="B12C8663D3A198ADE1FE5B79B7EE823A.png" width="200.00" height="200.00" transform="matrix(1.00, 0.00, -0.00, -1.00, 1.0, 200.0)"></image></g></g></g></svg>