<?xml version="1.0" encoding="UTF-8" standalone="no"?><svg xmlns="http://www.w3.org/2000/svg" xmlns:xlink="http://www.w3.org/1999/xlink" clip-rule="evenodd" stroke-miterlimit="4.00" viewBox="0 0 1024 768"><desc>SVG generated by Keynote</desc><defs></defs><g transform="matrix(1.00, 0.00, -0.00, -1.00, 0.0, 768.0)"><path d="M 0.0 768.0 L 1024.0 768.0 L 1024.0 0.0 L 0.0 0.0 Z M 0.0 768.0 " fill="#282E33"></path><text xml:space="preserve" font-family="Gotham-Book" font-size="100.0" fill="#FEFFFF" transform="matrix(1.00, 0.00, -0.00, -1.00, 306.0, 354.0)">T</text><text xml:space="preserve" font-family="Gotham-Book" font-size="100.0" fill="#FEFFFF" transform="matrix(1.00, 0.00, -0.00, -1.00, 369.2, 354.0)">h</text><text xml:space="preserve" font-family="Gotham-Book" font-size="100.0" fill="#FEFFFF" transform="matrix(1.00, 0.00, -0.00, -1.00, 430.8, 354.0)">a</text><text xml:space="preserve" font-family="Gotham-Book" font-size="100.0" fill="#FEFFFF" transform="matrix(1.00, 0.00, -0.00, -1.00, 488.7, 354.0)">n</text><text xml:space="preserve" font-family="Gotham-Book" font-size="100.0" fill="#FEFFFF" transform="matrix(1.00, 0.00, -0.00, -1.00, 550.3, 354.0)">k</text><text xml:space="preserve" font-family="Gotham-Book" font-size="100.0" fill="#FEFFFF" transform="matrix(1.00, 0.00, -0.00, -1.00, 607.2, 354.0)"> </text><text xml:space="preserve" font-family="Gotham-Book" font-size="100.0" fill="#FEFFFF" transform="matrix(1.00, 0.00, -0.00, -1.00, 637.2, 354.0)">Y</text><text xml:space="preserve" font-family="Gotham-Book" font-size="100.0" fill="#FEFFFF" transform="matrix(1.00, 0.00, -0.00, -1.00, 697.8, 354.0)">o</text><text xml:space="preserve" font-family="Gotham-Book" font-size="100.0" fill="#FEFFFF" transform="matrix(1.00, 0.00, -0.00, -1.00, 762.4, 354.0)">u</text><text xml:space="preserve" font-family="Gotham-Book" font-size="100.0" fill="#FEFFFF" transform="matrix(1.00, 0.00, -0.00, -1.00, 824.0, 354.0)">!</text><image xlink:href="../../9ADD41A9-67E6-4C1E-BAB8-71BE15642302/assets/1AC69231E99784DA2B08A6BFEC9A3C67.png" width="250.00" height="250.00" transform="matrix(0.80, 0.00, -0.00, -0.80, 101.0, 501.0)"></image><text xml:space="preserve" font-family="Gotham-Medium" font-size="59.0" fill="#6DCFF8" transform="matrix(1.00, 0.00, -0.00, -1.00, 343.0, 167.0)">@</text><text xml:space="preserve" font-family="Gotham-Medium" font-size="59.0" fill="#6DCFF8" transform="matrix(1.00, 0.00, -0.00, -1.00, 400.8, 167.0)">a</text><text xml:space="preserve" font-family="Gotham-Medium" font-size="59.0" fill="#6DCFF8" transform="matrix(1.00, 0.00, -0.00, -1.00, 435.5, 167.0)">s</text><text xml:space="preserve" font-family="Gotham-Medium" font-size="59.0" fill="#6DCFF8" transform="matrix(1.00, 0.00, -0.00, -1.00, 465.0, 167.0)">f</text><text xml:space="preserve" font-family="Gotham-Medium" font-size="59.0" fill="#6DCFF8" transform="matrix(1.00, 0.00, -0.00, -1.00, 486.3, 167.0)">a</text><text xml:space="preserve" font-family="Gotham-Medium" font-size="59.0" fill="#6DCFF8" transform="matrix(1.00, 0.00, -0.00, -1.00, 520.9, 167.0)">l</text><text xml:space="preserve" font-family="Gotham-Medium" font-size="59.0" fill="#6DCFF8" transform="matrix(1.00, 0.00, -0.00, -1.00, 537.8, 167.0)">c</text><text xml:space="preserve" font-family="Gotham-Medium" font-size="59.0" fill="#6DCFF8" transform="matrix(1.00, 0.00, -0.00, -1.00, 570.6, 167.0)">o</text><text xml:space="preserve" font-family="Gotham-Medium" font-size="59.0" fill="#6DCFF8" transform="matrix(1.00, 0.00, -0.00, -1.00, 609.3, 167.0)">n</text><text xml:space="preserve" font-family="Gotham-Medium" font-size="59.0" fill="#6DCFF8" transform="matrix(1.00, 0.00, -0.00, -1.00, 645.9, 167.0)">e</text></g></svg>