<?xml version="1.0" encoding="UTF-8" standalone="no"?><svg xmlns="http://www.w3.org/2000/svg" xmlns:xlink="http://www.w3.org/1999/xlink" clip-rule="evenodd" stroke-miterlimit="4.00" viewBox="0 0 946 43"><desc>SVG generated by Keynote</desc><defs></defs><g transform="matrix(1.00, 0.00, -0.00, -1.00, 0.0, 43.0)"><text xml:space="preserve" font-family="Helvetica-Light" font-size="31.2" fill="#FEFFFF" transform="matrix(1.00, 0.00, -0.00, -1.00, 0.4, 14.4)">•</text><text xml:space="preserve" font-family="Helvetica-Light" font-size="41.6" fill="#FEFFFF" transform="matrix(1.00, 0.00, -0.00, -1.00, 40.0, 10.0)">“</text><text xml:space="preserve" font-family="Helvetica-Light" font-size="41.6" fill="#FEFFFF" transform="matrix(1.00, 0.00, -0.00, -1.00, 56.2, 10.0)">W</text><text xml:space="preserve" font-family="Helvetica-Light" font-size="41.6" fill="#FEFFFF" transform="matrix(1.00, 0.00, -0.00, -1.00, 92.4, 10.0)">e</text><text xml:space="preserve" font-family="Helvetica-Light" font-size="41.6" fill="#FEFFFF" transform="matrix(1.00, 0.00, -0.00, -1.00, 115.5, 10.0)"> </text><text xml:space="preserve" font-family="Helvetica-Light" font-size="41.6" fill="#FEFFFF" transform="matrix(1.00, 0.00, -0.00, -1.00, 127.1, 10.0)">c</text><text xml:space="preserve" font-family="Helvetica-Light" font-size="41.6" fill="#FEFFFF" transform="matrix(1.00, 0.00, -0.00, -1.00, 150.2, 10.0)">a</text><text xml:space="preserve" font-family="Helvetica-Light" font-size="41.6" fill="#FEFFFF" transform="matrix(1.00, 0.00, -0.00, -1.00, 173.4, 10.0)">n</text><text xml:space="preserve" font-family="Helvetica-Light" font-size="41.6" fill="#FEFFFF" transform="matrix(1.00, 0.00, -0.00, -1.00, 196.5, 10.0)">’</text><text xml:space="preserve" font-family="Helvetica-Light" font-size="41.6" fill="#FEFFFF" transform="matrix(1.00, 0.00, -0.00, -1.00, 205.0, 10.0)">t</text><text xml:space="preserve" font-family="Helvetica-Light" font-size="41.6" fill="#FEFFFF" transform="matrix(1.00, 0.00, -0.00, -1.00, 216.6, 10.0)"> </text><text xml:space="preserve" font-family="Helvetica-Light" font-size="41.6" fill="#FEFFFF" transform="matrix(1.00, 0.00, -0.00, -1.00, 228.1, 10.0)">r</text><text xml:space="preserve" font-family="Helvetica-Light" font-size="41.6" fill="#FEFFFF" transform="matrix(1.00, 0.00, -0.00, -1.00, 241.2, 10.0)">e</text><text xml:space="preserve" font-family="Helvetica-Light" font-size="41.6" fill="#FEFFFF" transform="matrix(1.00, 0.00, -0.00, -1.00, 264.3, 10.0)">l</text><text xml:space="preserve" font-family="Helvetica-Light" font-size="41.6" fill="#FEFFFF" transform="matrix(1.00, 0.00, -0.00, -1.00, 273.6, 10.0)">e</text><text xml:space="preserve" font-family="Helvetica-Light" font-size="41.6" fill="#FEFFFF" transform="matrix(1.00, 0.00, -0.00, -1.00, 296.7, 10.0)">a</text><text xml:space="preserve" font-family="Helvetica-Light" font-size="41.6" fill="#FEFFFF" transform="matrix(1.00, 0.00, -0.00, -1.00, 319.8, 10.0)">s</text><text xml:space="preserve" font-family="Helvetica-Light" font-size="41.6" fill="#FEFFFF" transform="matrix(1.00, 0.00, -0.00, -1.00, 340.6, 10.0)">e</text><text xml:space="preserve" font-family="Helvetica-Light" font-size="41.6" fill="#FEFFFF" transform="matrix(1.00, 0.00, -0.00, -1.00, 363.8, 10.0)"> </text><text xml:space="preserve" font-family="Helvetica-Light" font-size="41.6" fill="#FEFFFF" transform="matrix(1.00, 0.00, -0.00, -1.00, 375.3, 10.0)">a</text><text xml:space="preserve" font-family="Helvetica-Light" font-size="41.6" fill="#FEFFFF" transform="matrix(1.00, 0.00, -0.00, -1.00, 398.5, 10.0)">n</text><text xml:space="preserve" font-family="Helvetica-Light" font-size="41.6" fill="#FEFFFF" transform="matrix(1.00, 0.00, -0.00, -1.00, 421.6, 10.0)"> </text><text xml:space="preserve" font-family="Helvetica-Light" font-size="41.6" fill="#FEFFFF" transform="matrix(1.00, 0.00, -0.00, -1.00, 433.2, 10.0)">u</text><text xml:space="preserve" font-family="Helvetica-Light" font-size="41.6" fill="#FEFFFF" transform="matrix(1.00, 0.00, -0.00, -1.00, 456.3, 10.0)">p</text><text xml:space="preserve" font-family="Helvetica-Light" font-size="41.6" fill="#FEFFFF" transform="matrix(1.00, 0.00, -0.00, -1.00, 481.7, 10.0)">d</text><text xml:space="preserve" font-family="Helvetica-Light" font-size="41.6" fill="#FEFFFF" transform="matrix(1.00, 0.00, -0.00, -1.00, 507.1, 10.0)">a</text><text xml:space="preserve" font-family="Helvetica-Light" font-size="41.6" fill="#FEFFFF" transform="matrix(1.00, 0.00, -0.00, -1.00, 530.3, 10.0)">t</text><text xml:space="preserve" font-family="Helvetica-Light" font-size="41.6" fill="#FEFFFF" transform="matrix(1.00, 0.00, -0.00, -1.00, 541.8, 10.0)">e</text><text xml:space="preserve" font-family="Helvetica-Light" font-size="41.6" fill="#FEFFFF" transform="matrix(1.00, 0.00, -0.00, -1.00, 565.0, 10.0)">,</text><text xml:space="preserve" font-family="Helvetica-Light" font-size="41.6" fill="#FEFFFF" transform="matrix(1.00, 0.00, -0.00, -1.00, 576.5, 10.0)"> </text><text xml:space="preserve" font-family="Helvetica-Light" font-size="41.6" fill="#FEFFFF" transform="matrix(1.00, 0.00, -0.00, -1.00, 588.1, 10.0)">t</text><text xml:space="preserve" font-family="Helvetica-Light" font-size="41.6" fill="#FEFFFF" transform="matrix(1.00, 0.00, -0.00, -1.00, 599.6, 10.0)">h</text><text xml:space="preserve" font-family="Helvetica-Light" font-size="41.6" fill="#FEFFFF" transform="matrix(1.00, 0.00, -0.00, -1.00, 622.8, 10.0)">e</text><text xml:space="preserve" font-family="Helvetica-Light" font-size="41.6" fill="#FEFFFF" transform="matrix(1.00, 0.00, -0.00, -1.00, 645.9, 10.0)"> </text><text xml:space="preserve" font-family="Helvetica-Light" font-size="41.6" fill="#FEFFFF" transform="matrix(1.00, 0.00, -0.00, -1.00, 657.5, 10.0)">b</text><text xml:space="preserve" font-family="Helvetica-Light" font-size="41.6" fill="#FEFFFF" transform="matrix(1.00, 0.00, -0.00, -1.00, 682.9, 10.0)">u</text><text xml:space="preserve" font-family="Helvetica-Light" font-size="41.6" fill="#FEFFFF" transform="matrix(1.00, 0.00, -0.00, -1.00, 706.0, 10.0)">i</text><text xml:space="preserve" font-family="Helvetica-Light" font-size="41.6" fill="#FEFFFF" transform="matrix(1.00, 0.00, -0.00, -1.00, 715.3, 10.0)">l</text><text xml:space="preserve" font-family="Helvetica-Light" font-size="41.6" fill="#FEFFFF" transform="matrix(1.00, 0.00, -0.00, -1.00, 724.5, 10.0)">d</text><text xml:space="preserve" font-family="Helvetica-Light" font-size="41.6" fill="#FEFFFF" transform="matrix(1.00, 0.00, -0.00, -1.00, 749.9, 10.0)"> </text><text xml:space="preserve" font-family="Helvetica-Light" font-size="41.6" fill="#FEFFFF" transform="matrix(1.00, 0.00, -0.00, -1.00, 761.5, 10.0)">i</text><text xml:space="preserve" font-family="Helvetica-Light" font-size="41.6" fill="#FEFFFF" transform="matrix(1.00, 0.00, -0.00, -1.00, 770.7, 10.0)">s</text><text xml:space="preserve" font-family="Helvetica-Light" font-size="41.6" fill="#FEFFFF" transform="matrix(1.00, 0.00, -0.00, -1.00, 791.5, 10.0)"> </text><text xml:space="preserve" font-family="Helvetica-Light" font-size="41.6" fill="#FEFFFF" transform="matrix(1.00, 0.00, -0.00, -1.00, 803.1, 10.0)">b</text><text xml:space="preserve" font-family="Helvetica-Light" font-size="41.6" fill="#FEFFFF" transform="matrix(1.00, 0.00, -0.00, -1.00, 828.5, 10.0)">r</text><text xml:space="preserve" font-family="Helvetica-Light" font-size="41.6" fill="#FEFFFF" transform="matrix(1.00, 0.00, -0.00, -1.00, 841.6, 10.0)">o</text><text xml:space="preserve" font-family="Helvetica-Light" font-size="41.6" fill="#FEFFFF" transform="matrix(1.00, 0.00, -0.00, -1.00, 864.7, 10.0)">k</text><text xml:space="preserve" font-family="Helvetica-Light" font-size="41.6" fill="#FEFFFF" transform="matrix(1.00, 0.00, -0.00, -1.00, 885.5, 10.0)">e</text><text xml:space="preserve" font-family="Helvetica-Light" font-size="41.6" fill="#FEFFFF" transform="matrix(1.00, 0.00, -0.00, -1.00, 908.6, 10.0)">n</text><text xml:space="preserve" font-family="Helvetica-Light" font-size="41.6" fill="#FEFFFF" transform="matrix(1.00, 0.00, -0.00, -1.00, 931.8, 10.0)">”</text></g></svg>