<?xml version="1.0" encoding="UTF-8" standalone="no"?><svg xmlns="http://www.w3.org/2000/svg" xmlns:xlink="http://www.w3.org/1999/xlink" clip-rule="evenodd" stroke-miterlimit="4.00" viewBox="0 0 898 85"><desc>SVG generated by Keynote</desc><defs></defs><g transform="matrix(1.00, 0.00, -0.00, -1.00, 0.0, 85.0)"><text xml:space="preserve" font-family="Helvetica-Light" font-size="31.2" fill="#FEFFFF" transform="matrix(1.00, 0.00, -0.00, -1.00, 0.4, 56.7)">•</text><text xml:space="preserve" font-family="Helvetica-Light" font-size="41.6" fill="#FEFFFF" transform="matrix(1.00, 0.00, -0.00, -1.00, 40.0, 53.0)">“</text><text xml:space="preserve" font-family="Helvetica-Light" font-size="41.6" fill="#FEFFFF" transform="matrix(1.00, 0.00, -0.00, -1.00, 56.2, 53.0)">U</text><text xml:space="preserve" font-family="Helvetica-Light" font-size="41.6" fill="#FEFFFF" transform="matrix(1.00, 0.00, -0.00, -1.00, 86.2, 53.0)">h</text><text xml:space="preserve" font-family="Helvetica-Light" font-size="41.6" fill="#FEFFFF" transform="matrix(1.00, 0.00, -0.00, -1.00, 109.3, 53.0)">,</text><text xml:space="preserve" font-family="Helvetica-Light" font-size="41.6" fill="#FEFFFF" transform="matrix(1.00, 0.00, -0.00, -1.00, 120.9, 53.0)"> </text><text xml:space="preserve" font-family="Helvetica-Light" font-size="41.6" fill="#FEFFFF" transform="matrix(1.00, 0.00, -0.00, -1.00, 132.5, 53.0)">t</text><text xml:space="preserve" font-family="Helvetica-Light" font-size="41.6" fill="#FEFFFF" transform="matrix(1.00, 0.00, -0.00, -1.00, 144.0, 53.0)">h</text><text xml:space="preserve" font-family="Helvetica-Light" font-size="41.6" fill="#FEFFFF" transform="matrix(1.00, 0.00, -0.00, -1.00, 167.2, 53.0)">a</text><text xml:space="preserve" font-family="Helvetica-Light" font-size="41.6" fill="#FEFFFF" transform="matrix(1.00, 0.00, -0.00, -1.00, 190.3, 53.0)">t</text><text xml:space="preserve" font-family="Helvetica-Light" font-size="41.6" fill="#FEFFFF" transform="matrix(1.00, 0.00, -0.00, -1.00, 201.9, 53.0)"> </text><text xml:space="preserve" font-family="Helvetica-Light" font-size="41.6" fill="#FEFFFF" transform="matrix(1.00, 0.00, -0.00, -1.00, 213.4, 53.0)">b</text><text xml:space="preserve" font-family="Helvetica-Light" font-size="41.6" fill="#FEFFFF" transform="matrix(1.00, 0.00, -0.00, -1.00, 238.8, 53.0)">u</text><text xml:space="preserve" font-family="Helvetica-Light" font-size="41.6" fill="#FEFFFF" transform="matrix(1.00, 0.00, -0.00, -1.00, 262.0, 53.0)">g</text><text xml:space="preserve" font-family="Helvetica-Light" font-size="41.6" fill="#FEFFFF" transform="matrix(1.00, 0.00, -0.00, -1.00, 287.4, 53.0)"> </text><text xml:space="preserve" font-family="Helvetica-Light" font-size="41.6" fill="#FEFFFF" transform="matrix(1.00, 0.00, -0.00, -1.00, 299.0, 53.0)">ﬁ</text><text xml:space="preserve" font-family="Helvetica-Light" font-size="41.6" fill="#FEFFFF" transform="matrix(1.00, 0.00, -0.00, -1.00, 319.8, 53.0)">x</text><text xml:space="preserve" font-family="Helvetica-Light" font-size="41.6" fill="#FEFFFF" transform="matrix(1.00, 0.00, -0.00, -1.00, 340.6, 53.0)"> </text><text xml:space="preserve" font-family="Helvetica-Light" font-size="41.6" fill="#FEFFFF" transform="matrix(1.00, 0.00, -0.00, -1.00, 352.1, 53.0)">i</text><text xml:space="preserve" font-family="Helvetica-Light" font-size="41.6" fill="#FEFFFF" transform="matrix(1.00, 0.00, -0.00, -1.00, 361.4, 53.0)">s</text><text xml:space="preserve" font-family="Helvetica-Light" font-size="41.6" fill="#FEFFFF" transform="matrix(1.00, 0.00, -0.00, -1.00, 382.2, 53.0)"> </text><text xml:space="preserve" font-family="Helvetica-Light" font-size="41.6" fill="#FEFFFF" transform="matrix(1.00, 0.00, -0.00, -1.00, 393.7, 53.0)">n</text><text xml:space="preserve" font-family="Helvetica-Light" font-size="41.6" fill="#FEFFFF" transform="matrix(1.00, 0.00, -0.00, -1.00, 416.9, 53.0)">o</text><text xml:space="preserve" font-family="Helvetica-Light" font-size="41.6" fill="#FEFFFF" transform="matrix(1.00, 0.00, -0.00, -1.00, 440.0, 53.0)">t</text><text xml:space="preserve" font-family="Helvetica-Light" font-size="41.6" fill="#FEFFFF" transform="matrix(1.00, 0.00, -0.00, -1.00, 451.5, 53.0)"> </text><text xml:space="preserve" font-family="Helvetica-Light" font-size="41.6" fill="#FEFFFF" transform="matrix(1.00, 0.00, -0.00, -1.00, 463.1, 53.0)">w</text><text xml:space="preserve" font-family="Helvetica-Light" font-size="41.6" fill="#FEFFFF" transform="matrix(1.00, 0.00, -0.00, -1.00, 493.1, 53.0)">o</text><text xml:space="preserve" font-family="Helvetica-Light" font-size="41.6" fill="#FEFFFF" transform="matrix(1.00, 0.00, -0.00, -1.00, 516.3, 53.0)">r</text><text xml:space="preserve" font-family="Helvetica-Light" font-size="41.6" fill="#FEFFFF" transform="matrix(1.00, 0.00, -0.00, -1.00, 530.9, 53.0)">t</text><text xml:space="preserve" font-family="Helvetica-Light" font-size="41.6" fill="#FEFFFF" transform="matrix(1.00, 0.00, -0.00, -1.00, 542.4, 53.0)">h</text><text xml:space="preserve" font-family="Helvetica-Light" font-size="41.6" fill="#FEFFFF" transform="matrix(1.00, 0.00, -0.00, -1.00, 565.6, 53.0)"> </text><text xml:space="preserve" font-family="Helvetica-Light" font-size="41.6" fill="#FEFFFF" transform="matrix(1.00, 0.00, -0.00, -1.00, 577.1, 53.0)">t</text><text xml:space="preserve" font-family="Helvetica-Light" font-size="41.6" fill="#FEFFFF" transform="matrix(1.00, 0.00, -0.00, -1.00, 588.7, 53.0)">h</text><text xml:space="preserve" font-family="Helvetica-Light" font-size="41.6" fill="#FEFFFF" transform="matrix(1.00, 0.00, -0.00, -1.00, 611.8, 53.0)">e</text><text xml:space="preserve" font-family="Helvetica-Light" font-size="41.6" fill="#FEFFFF" transform="matrix(1.00, 0.00, -0.00, -1.00, 635.0, 53.0)"> </text><text xml:space="preserve" font-family="Helvetica-Light" font-size="41.6" fill="#FEFFFF" transform="matrix(1.00, 0.00, -0.00, -1.00, 646.5, 53.0)">p</text><text xml:space="preserve" font-family="Helvetica-Light" font-size="41.6" fill="#FEFFFF" transform="matrix(1.00, 0.00, -0.00, -1.00, 671.9, 53.0)">a</text><text xml:space="preserve" font-family="Helvetica-Light" font-size="41.6" fill="#FEFFFF" transform="matrix(1.00, 0.00, -0.00, -1.00, 695.1, 53.0)">i</text><text xml:space="preserve" font-family="Helvetica-Light" font-size="41.6" fill="#FEFFFF" transform="matrix(1.00, 0.00, -0.00, -1.00, 704.3, 53.0)">n</text><text xml:space="preserve" font-family="Helvetica-Light" font-size="41.6" fill="#FEFFFF" transform="matrix(1.00, 0.00, -0.00, -1.00, 727.4, 53.0)"> </text><text xml:space="preserve" font-family="Helvetica-Light" font-size="41.6" fill="#FEFFFF" transform="matrix(1.00, 0.00, -0.00, -1.00, 739.0, 53.0)">o</text><text xml:space="preserve" font-family="Helvetica-Light" font-size="41.6" fill="#FEFFFF" transform="matrix(1.00, 0.00, -0.00, -1.00, 762.1, 53.0)">f</text><text xml:space="preserve" font-family="Helvetica-Light" font-size="41.6" fill="#FEFFFF" transform="matrix(1.00, 0.00, -0.00, -1.00, 773.7, 53.0)"> </text><text xml:space="preserve" font-family="Helvetica-Light" font-size="41.6" fill="#FEFFFF" transform="matrix(1.00, 0.00, -0.00, -1.00, 785.3, 53.0)">a</text><text xml:space="preserve" font-family="Helvetica-Light" font-size="41.6" fill="#FEFFFF" transform="matrix(1.00, 0.00, -0.00, -1.00, 808.4, 53.0)"> </text><text xml:space="preserve" font-family="Helvetica-Light" font-size="41.6" fill="#FEFFFF" transform="matrix(1.00, 0.00, -0.00, -1.00, 820.0, 53.0)">n</text><text xml:space="preserve" font-family="Helvetica-Light" font-size="41.6" fill="#FEFFFF" transform="matrix(1.00, 0.00, -0.00, -1.00, 843.1, 53.0)">e</text><text xml:space="preserve" font-family="Helvetica-Light" font-size="41.6" fill="#FEFFFF" transform="matrix(1.00, 0.00, -0.00, -1.00, 866.2, 53.0)">w</text><text xml:space="preserve" font-family="Helvetica-Light" font-size="41.6" fill="#FEFFFF" transform="matrix(1.00, 0.00, -0.00, -1.00, 896.3, 53.0)"> </text><text xml:space="preserve" font-family="Helvetica-Light" font-size="41.6" fill="#FEFFFF" transform="matrix(1.00, 0.00, -0.00, -1.00, 40.0, 3.0)">r</text><text xml:space="preserve" font-family="Helvetica-Light" font-size="41.6" fill="#FEFFFF" transform="matrix(1.00, 0.00, -0.00, -1.00, 53.1, 3.0)">e</text><text xml:space="preserve" font-family="Helvetica-Light" font-size="41.6" fill="#FEFFFF" transform="matrix(1.00, 0.00, -0.00, -1.00, 76.2, 3.0)">l</text><text xml:space="preserve" font-family="Helvetica-Light" font-size="41.6" fill="#FEFFFF" transform="matrix(1.00, 0.00, -0.00, -1.00, 85.5, 3.0)">e</text><text xml:space="preserve" font-family="Helvetica-Light" font-size="41.6" fill="#FEFFFF" transform="matrix(1.00, 0.00, -0.00, -1.00, 108.6, 3.0)">a</text><text xml:space="preserve" font-family="Helvetica-Light" font-size="41.6" fill="#FEFFFF" transform="matrix(1.00, 0.00, -0.00, -1.00, 131.7, 3.0)">s</text><text xml:space="preserve" font-family="Helvetica-Light" font-size="41.6" fill="#FEFFFF" transform="matrix(1.00, 0.00, -0.00, -1.00, 152.5, 3.0)">e</text><text xml:space="preserve" font-family="Helvetica-Light" font-size="41.6" fill="#FEFFFF" transform="matrix(1.00, 0.00, -0.00, -1.00, 175.7, 3.0)">”</text></g></svg>