<?xml version="1.0" encoding="UTF-8" standalone="no"?><svg xmlns="http://www.w3.org/2000/svg" xmlns:xlink="http://www.w3.org/1999/xlink" clip-rule="evenodd" stroke-miterlimit="4.00" viewBox="0 0 860 85"><desc>SVG generated by Keynote</desc><defs></defs><g transform="matrix(1.00, 0.00, -0.00, -1.00, 0.0, 85.0)"><text xml:space="preserve" font-family="Helvetica-Light" font-size="31.2" fill="#FEFFFF" transform="matrix(1.00, 0.00, -0.00, -1.00, 0.4, 56.3)">•</text><text xml:space="preserve" font-family="Helvetica-Light" font-size="41.6" fill="#FEFFFF" transform="matrix(1.00, 0.00, -0.00, -1.00, 40.0, 52.0)">“</text><text xml:space="preserve" font-family="Helvetica-Light" font-size="41.6" fill="#FEFFFF" transform="matrix(1.00, 0.00, -0.00, -1.00, 56.2, 52.0)">T</text><text xml:space="preserve" font-family="Helvetica-Light" font-size="41.6" fill="#FEFFFF" transform="matrix(1.00, 0.00, -0.00, -1.00, 79.3, 52.0)">h</text><text xml:space="preserve" font-family="Helvetica-Light" font-size="41.6" fill="#FEFFFF" transform="matrix(1.00, 0.00, -0.00, -1.00, 102.4, 52.0)">e</text><text xml:space="preserve" font-family="Helvetica-Light" font-size="41.6" fill="#FEFFFF" transform="matrix(1.00, 0.00, -0.00, -1.00, 125.6, 52.0)"> </text><text xml:space="preserve" font-family="Helvetica-Light" font-size="41.6" fill="#FEFFFF" transform="matrix(1.00, 0.00, -0.00, -1.00, 137.1, 52.0)">p</text><text xml:space="preserve" font-family="Helvetica-Light" font-size="41.6" fill="#FEFFFF" transform="matrix(1.00, 0.00, -0.00, -1.00, 162.6, 52.0)">r</text><text xml:space="preserve" font-family="Helvetica-Light" font-size="41.6" fill="#FEFFFF" transform="matrix(1.00, 0.00, -0.00, -1.00, 175.7, 52.0)">o</text><text xml:space="preserve" font-family="Helvetica-Light" font-size="41.6" fill="#FEFFFF" transform="matrix(1.00, 0.00, -0.00, -1.00, 198.8, 52.0)">v</text><text xml:space="preserve" font-family="Helvetica-Light" font-size="41.6" fill="#FEFFFF" transform="matrix(1.00, 0.00, -0.00, -1.00, 219.6, 52.0)">i</text><text xml:space="preserve" font-family="Helvetica-Light" font-size="41.6" fill="#FEFFFF" transform="matrix(1.00, 0.00, -0.00, -1.00, 228.8, 52.0)">s</text><text xml:space="preserve" font-family="Helvetica-Light" font-size="41.6" fill="#FEFFFF" transform="matrix(1.00, 0.00, -0.00, -1.00, 249.6, 52.0)">i</text><text xml:space="preserve" font-family="Helvetica-Light" font-size="41.6" fill="#FEFFFF" transform="matrix(1.00, 0.00, -0.00, -1.00, 258.9, 52.0)">o</text><text xml:space="preserve" font-family="Helvetica-Light" font-size="41.6" fill="#FEFFFF" transform="matrix(1.00, 0.00, -0.00, -1.00, 282.0, 52.0)">n</text><text xml:space="preserve" font-family="Helvetica-Light" font-size="41.6" fill="#FEFFFF" transform="matrix(1.00, 0.00, -0.00, -1.00, 305.1, 52.0)">i</text><text xml:space="preserve" font-family="Helvetica-Light" font-size="41.6" fill="#FEFFFF" transform="matrix(1.00, 0.00, -0.00, -1.00, 314.4, 52.0)">n</text><text xml:space="preserve" font-family="Helvetica-Light" font-size="41.6" fill="#FEFFFF" transform="matrix(1.00, 0.00, -0.00, -1.00, 337.5, 52.0)">g</text><text xml:space="preserve" font-family="Helvetica-Light" font-size="41.6" fill="#FEFFFF" transform="matrix(1.00, 0.00, -0.00, -1.00, 362.9, 52.0)"> </text><text xml:space="preserve" font-family="Helvetica-Light" font-size="41.6" fill="#FEFFFF" transform="matrix(1.00, 0.00, -0.00, -1.00, 374.5, 52.0)">p</text><text xml:space="preserve" font-family="Helvetica-Light" font-size="41.6" fill="#FEFFFF" transform="matrix(1.00, 0.00, -0.00, -1.00, 399.9, 52.0)">r</text><text xml:space="preserve" font-family="Helvetica-Light" font-size="41.6" fill="#FEFFFF" transform="matrix(1.00, 0.00, -0.00, -1.00, 413.0, 52.0)">o</text><text xml:space="preserve" font-family="Helvetica-Light" font-size="41.6" fill="#FEFFFF" transform="matrix(1.00, 0.00, -0.00, -1.00, 436.1, 52.0)">ﬁ</text><text xml:space="preserve" font-family="Helvetica-Light" font-size="41.6" fill="#FEFFFF" transform="matrix(1.00, 0.00, -0.00, -1.00, 456.9, 52.0)">l</text><text xml:space="preserve" font-family="Helvetica-Light" font-size="41.6" fill="#FEFFFF" transform="matrix(1.00, 0.00, -0.00, -1.00, 466.2, 52.0)">e</text><text xml:space="preserve" font-family="Helvetica-Light" font-size="41.6" fill="#FEFFFF" transform="matrix(1.00, 0.00, -0.00, -1.00, 489.3, 52.0)">s</text><text xml:space="preserve" font-family="Helvetica-Light" font-size="41.6" fill="#FEFFFF" transform="matrix(1.00, 0.00, -0.00, -1.00, 510.1, 52.0)"> </text><text xml:space="preserve" font-family="Helvetica-Light" font-size="41.6" fill="#FEFFFF" transform="matrix(1.00, 0.00, -0.00, -1.00, 521.6, 52.0)">d</text><text xml:space="preserve" font-family="Helvetica-Light" font-size="41.6" fill="#FEFFFF" transform="matrix(1.00, 0.00, -0.00, -1.00, 547.1, 52.0)">o</text><text xml:space="preserve" font-family="Helvetica-Light" font-size="41.6" fill="#FEFFFF" transform="matrix(1.00, 0.00, -0.00, -1.00, 570.2, 52.0)">e</text><text xml:space="preserve" font-family="Helvetica-Light" font-size="41.6" fill="#FEFFFF" transform="matrix(1.00, 0.00, -0.00, -1.00, 593.3, 52.0)">s</text><text xml:space="preserve" font-family="Helvetica-Light" font-size="41.6" fill="#FEFFFF" transform="matrix(1.00, 0.00, -0.00, -1.00, 614.1, 52.0)">n</text><text xml:space="preserve" font-family="Helvetica-Light" font-size="41.6" fill="#FEFFFF" transform="matrix(1.00, 0.00, -0.00, -1.00, 637.3, 52.0)">’</text><text xml:space="preserve" font-family="Helvetica-Light" font-size="41.6" fill="#FEFFFF" transform="matrix(1.00, 0.00, -0.00, -1.00, 645.7, 52.0)">t</text><text xml:space="preserve" font-family="Helvetica-Light" font-size="41.6" fill="#FEFFFF" transform="matrix(1.00, 0.00, -0.00, -1.00, 657.3, 52.0)"> </text><text xml:space="preserve" font-family="Helvetica-Light" font-size="41.6" fill="#FEFFFF" transform="matrix(1.00, 0.00, -0.00, -1.00, 668.9, 52.0)">c</text><text xml:space="preserve" font-family="Helvetica-Light" font-size="41.6" fill="#FEFFFF" transform="matrix(1.00, 0.00, -0.00, -1.00, 692.0, 52.0)">o</text><text xml:space="preserve" font-family="Helvetica-Light" font-size="41.6" fill="#FEFFFF" transform="matrix(1.00, 0.00, -0.00, -1.00, 715.1, 52.0)">n</text><text xml:space="preserve" font-family="Helvetica-Light" font-size="41.6" fill="#FEFFFF" transform="matrix(1.00, 0.00, -0.00, -1.00, 738.3, 52.0)">t</text><text xml:space="preserve" font-family="Helvetica-Light" font-size="41.6" fill="#FEFFFF" transform="matrix(1.00, 0.00, -0.00, -1.00, 749.8, 52.0)">a</text><text xml:space="preserve" font-family="Helvetica-Light" font-size="41.6" fill="#FEFFFF" transform="matrix(1.00, 0.00, -0.00, -1.00, 773.0, 52.0)">i</text><text xml:space="preserve" font-family="Helvetica-Light" font-size="41.6" fill="#FEFFFF" transform="matrix(1.00, 0.00, -0.00, -1.00, 782.2, 52.0)">n</text><text xml:space="preserve" font-family="Helvetica-Light" font-size="41.6" fill="#FEFFFF" transform="matrix(1.00, 0.00, -0.00, -1.00, 805.3, 52.0)"> </text><text xml:space="preserve" font-family="Helvetica-Light" font-size="41.6" fill="#FEFFFF" transform="matrix(1.00, 0.00, -0.00, -1.00, 816.9, 52.0)">a</text><text xml:space="preserve" font-family="Helvetica-Light" font-size="41.6" fill="#FEFFFF" transform="matrix(1.00, 0.00, -0.00, -1.00, 840.0, 52.0)">l</text><text xml:space="preserve" font-family="Helvetica-Light" font-size="41.6" fill="#FEFFFF" transform="matrix(1.00, 0.00, -0.00, -1.00, 849.2, 52.0)">l</text><text xml:space="preserve" font-family="Helvetica-Light" font-size="41.6" fill="#FEFFFF" transform="matrix(1.00, 0.00, -0.00, -1.00, 858.5, 52.0)"> </text><text xml:space="preserve" font-family="Helvetica-Light" font-size="41.6" fill="#FEFFFF" transform="matrix(1.00, 0.00, -0.00, -1.00, 40.0, 2.0)">d</text><text xml:space="preserve" font-family="Helvetica-Light" font-size="41.6" fill="#FEFFFF" transform="matrix(1.00, 0.00, -0.00, -1.00, 65.4, 2.0)">e</text><text xml:space="preserve" font-family="Helvetica-Light" font-size="41.6" fill="#FEFFFF" transform="matrix(1.00, 0.00, -0.00, -1.00, 88.5, 2.0)">v</text><text xml:space="preserve" font-family="Helvetica-Light" font-size="41.6" fill="#FEFFFF" transform="matrix(1.00, 0.00, -0.00, -1.00, 109.3, 2.0)">i</text><text xml:space="preserve" font-family="Helvetica-Light" font-size="41.6" fill="#FEFFFF" transform="matrix(1.00, 0.00, -0.00, -1.00, 118.6, 2.0)">c</text><text xml:space="preserve" font-family="Helvetica-Light" font-size="41.6" fill="#FEFFFF" transform="matrix(1.00, 0.00, -0.00, -1.00, 141.7, 2.0)">e</text><text xml:space="preserve" font-family="Helvetica-Light" font-size="41.6" fill="#FEFFFF" transform="matrix(1.00, 0.00, -0.00, -1.00, 164.8, 2.0)">s</text><text xml:space="preserve" font-family="Helvetica-Light" font-size="41.6" fill="#FEFFFF" transform="matrix(1.00, 0.00, -0.00, -1.00, 185.6, 2.0)">?</text><text xml:space="preserve" font-family="Helvetica-Light" font-size="41.6" fill="#FEFFFF" transform="matrix(1.00, 0.00, -0.00, -1.00, 206.4, 2.0)">”</text></g></svg>