<?xml version="1.0" encoding="UTF-8" standalone="no"?><svg xmlns="http://www.w3.org/2000/svg" xmlns:xlink="http://www.w3.org/1999/xlink" clip-rule="evenodd" stroke-miterlimit="4.00" viewBox="0 0 1024 768"><desc>SVG generated by Keynote</desc><defs></defs><g transform="matrix(1.00, 0.00, -0.00, -1.00, 0.0, 768.0)"><path d="M 0.0 768.0 L 1024.0 768.0 L 1024.0 0.0 L 0.0 0.0 Z M 0.0 768.0 " fill="#282E33"></path><text xml:space="preserve" font-family="Gotham-Medium" font-size="40.0" fill="#6DCFF8" transform="matrix(1.00, 0.00, -0.00, -1.00, 775.0, 34.0)">@</text><text xml:space="preserve" font-family="Gotham-Medium" font-size="40.0" fill="#6DCFF8" transform="matrix(1.00, 0.00, -0.00, -1.00, 814.2, 34.0)">a</text><text xml:space="preserve" font-family="Gotham-Medium" font-size="40.0" fill="#6DCFF8" transform="matrix(1.00, 0.00, -0.00, -1.00, 837.7, 34.0)">s</text><text xml:space="preserve" font-family="Gotham-Medium" font-size="40.0" fill="#6DCFF8" transform="matrix(1.00, 0.00, -0.00, -1.00, 857.7, 34.0)">f</text><text xml:space="preserve" font-family="Gotham-Medium" font-size="40.0" fill="#6DCFF8" transform="matrix(1.00, 0.00, -0.00, -1.00, 872.1, 34.0)">a</text><text xml:space="preserve" font-family="Gotham-Medium" font-size="40.0" fill="#6DCFF8" transform="matrix(1.00, 0.00, -0.00, -1.00, 895.6, 34.0)">l</text><text xml:space="preserve" font-family="Gotham-Medium" font-size="40.0" fill="#6DCFF8" transform="matrix(1.00, 0.00, -0.00, -1.00, 907.0, 34.0)">c</text><text xml:space="preserve" font-family="Gotham-Medium" font-size="40.0" fill="#6DCFF8" transform="matrix(1.00, 0.00, -0.00, -1.00, 929.3, 34.0)">o</text><text xml:space="preserve" font-family="Gotham-Medium" font-size="40.0" fill="#6DCFF8" transform="matrix(1.00, 0.00, -0.00, -1.00, 955.6, 34.0)">n</text><text xml:space="preserve" font-family="Gotham-Medium" font-size="40.0" fill="#6DCFF8" transform="matrix(1.00, 0.00, -0.00, -1.00, 980.4, 34.0)">e</text><image xlink:href="../../1FF54032-8218-4B85-AF6B-6ACED325E55B/assets/A916AFCD160E15115838978118613733.png" width="960.00" height="491.00" transform="matrix(1.05, 0.00, -0.00, -1.05, 8.0, 642.0)"></image><text xml:space="preserve" font-family="Gotham-Medium" font-size="45.0" fill="#FEFFFF" transform="matrix(1.00, 0.00, -0.00, -1.00, 451.0, 687.0)">?</text><text xml:space="preserve" font-family="Gotham-Medium" font-size="45.0" fill="#FEFFFF" transform="matrix(1.00, 0.00, -0.00, -1.00, 479.8, 687.0)">!</text><path d="M 0.0 0.0 L 137.7 0.0 L 137.7 27.9 L 0.0 27.9 Z M 0.0 0.0 " fill="none" stroke="#961817" stroke-width="6.00" transform="matrix(1.00, 0.00, 0.00, -1.00, 874.0, 554.9)"></path><path d="M 0.0 0.0 L 137.7 0.0 L 137.7 19.9 L 0.0 19.9 Z M 0.0 0.0 " fill="none" stroke="#961817" stroke-width="6.00" transform="matrix(1.00, 0.00, 0.00, -1.00, 171.0, 538.9)"></path><path d="M 0.0 0.0 L 101.4 0.0 L 101.4 27.9 L 0.0 27.9 Z M 0.0 0.0 " fill="none" stroke="#961817" stroke-width="6.00" transform="matrix(1.00, 0.00, 0.00, -1.00, 910.3, 505.9)"></path><path d="M 0.0 0.0 L 137.7 0.0 L 137.7 27.9 L 0.0 27.9 Z M 0.0 0.0 " fill="none" stroke="#961817" stroke-width="6.00" transform="matrix(1.00, 0.00, 0.00, -1.00, 14.0, 397.9)"></path><path d="M 0.0 0.0 L 149.7 0.0 L 149.7 19.9 L 0.0 19.9 Z M 0.0 0.0 " fill="none" stroke="#961817" stroke-width="6.00" transform="matrix(1.00, 0.00, 0.00, -1.00, 175.8, 369.9)"></path><path d="M 0.0 0.0 L 125.7 0.0 L 125.7 19.9 L 0.0 19.9 Z M 0.0 0.0 " fill="none" stroke="#961817" stroke-width="6.00" transform="matrix(1.00, 0.00, 0.00, -1.00, 174.0, 472.9)"></path><path d="M 0.0 0.0 L 228.7 0.0 L 228.7 19.9 L 0.0 19.9 Z M 0.0 0.0 " fill="none" stroke="#961817" stroke-width="6.00" transform="matrix(1.00, 0.00, 0.00, -1.00, 19.8, 601.0)"></path><path d="M 0.0 0.0 L 337.0 0.0 L 337.0 185.1 L 0.0 185.1 Z M 0.0 0.0 " fill="none" stroke="#961817" stroke-width="6.00" transform="matrix(1.00, 0.00, 0.00, -1.00, 190.8, 311.8)"></path><path d="M 0.0 0.0 L 135.3 0.0 L 135.3 19.9 L 0.0 19.9 Z M 0.0 0.0 " fill="none" stroke="#961817" stroke-width="6.00" transform="matrix(1.00, 0.00, 0.00, -1.00, 875.2, 601.0)"></path></g></svg>