<?xml version="1.0" encoding="UTF-8" standalone="no"?><svg xmlns="http://www.w3.org/2000/svg" xmlns:xlink="http://www.w3.org/1999/xlink" clip-rule="evenodd" stroke-miterlimit="4.00" viewBox="0 0 183 26"><desc>SVG generated by Keynote</desc><defs></defs><g transform="matrix(1.00, 0.00, -0.00, -1.00, 0.0, 26.0)"><text xml:space="preserve" font-family="Gotham-Book" font-size="30.0" fill="#51A7F9" transform="matrix(1.00, 0.00, -0.00, -1.00, 0.0, 2.0)">S</text><text xml:space="preserve" font-family="Gotham-Book" font-size="30.0" fill="#51A7F9" transform="matrix(1.00, 0.00, -0.00, -1.00, 19.2, 2.0)">c</text><text xml:space="preserve" font-family="Gotham-Book" font-size="30.0" fill="#51A7F9" transform="matrix(1.00, 0.00, -0.00, -1.00, 36.3, 2.0)">r</text><text xml:space="preserve" font-family="Gotham-Book" font-size="30.0" fill="#51A7F9" transform="matrix(1.00, 0.00, -0.00, -1.00, 47.8, 2.0)">e</text><text xml:space="preserve" font-family="Gotham-Book" font-size="30.0" fill="#51A7F9" transform="matrix(1.00, 0.00, -0.00, -1.00, 65.6, 2.0)">e</text><text xml:space="preserve" font-family="Gotham-Book" font-size="30.0" fill="#51A7F9" transform="matrix(1.00, 0.00, -0.00, -1.00, 83.3, 2.0)">n</text><text xml:space="preserve" font-family="Gotham-Book" font-size="30.0" fill="#51A7F9" transform="matrix(1.00, 0.00, -0.00, -1.00, 101.8, 2.0)">s</text><text xml:space="preserve" font-family="Gotham-Book" font-size="30.0" fill="#51A7F9" transform="matrix(1.00, 0.00, -0.00, -1.00, 116.8, 2.0)">h</text><text xml:space="preserve" font-family="Gotham-Book" font-size="30.0" fill="#51A7F9" transform="matrix(1.00, 0.00, -0.00, -1.00, 135.2, 2.0)">o</text><text xml:space="preserve" font-family="Gotham-Book" font-size="30.0" fill="#51A7F9" transform="matrix(1.00, 0.00, -0.00, -1.00, 154.6, 2.0)">t</text><text xml:space="preserve" font-family="Gotham-Book" font-size="30.0" fill="#51A7F9" transform="matrix(1.00, 0.00, -0.00, -1.00, 166.7, 2.0)">s</text></g></svg>