<?xml version="1.0" encoding="UTF-8" standalone="no"?><svg xmlns="http://www.w3.org/2000/svg" xmlns:xlink="http://www.w3.org/1999/xlink" clip-rule="evenodd" stroke-miterlimit="4.00" viewBox="0 0 328 31"><desc>SVG generated by Keynote</desc><defs></defs><g transform="matrix(1.00, 0.00, -0.00, -1.00, 0.0, 31.0)"><text xml:space="preserve" font-family="Gotham-Book" font-size="30.0" fill="#51A7F9" transform="matrix(1.00, 0.00, -0.00, -1.00, 1.0, 7.0)">T</text><text xml:space="preserve" font-family="Gotham-Book" font-size="30.0" fill="#51A7F9" transform="matrix(1.00, 0.00, -0.00, -1.00, 16.6, 7.0)">e</text><text xml:space="preserve" font-family="Gotham-Book" font-size="30.0" fill="#51A7F9" transform="matrix(1.00, 0.00, -0.00, -1.00, 34.4, 7.0)">s</text><text xml:space="preserve" font-family="Gotham-Book" font-size="30.0" fill="#51A7F9" transform="matrix(1.00, 0.00, -0.00, -1.00, 49.0, 7.0)">t</text><text xml:space="preserve" font-family="Gotham-Book" font-size="30.0" fill="#51A7F9" transform="matrix(1.00, 0.00, -0.00, -1.00, 61.1, 7.0)">i</text><text xml:space="preserve" font-family="Gotham-Book" font-size="30.0" fill="#51A7F9" transform="matrix(1.00, 0.00, -0.00, -1.00, 69.0, 7.0)">n</text><text xml:space="preserve" font-family="Gotham-Book" font-size="30.0" fill="#51A7F9" transform="matrix(1.00, 0.00, -0.00, -1.00, 87.5, 7.0)">g</text><text xml:space="preserve" font-family="Gotham-Book" font-size="30.0" fill="#51A7F9" transform="matrix(1.00, 0.00, -0.00, -1.00, 107.4, 7.0)"> </text><text xml:space="preserve" font-family="Gotham-Book" font-size="30.0" fill="#51A7F9" transform="matrix(1.00, 0.00, -0.00, -1.00, 116.4, 7.0)">b</text><text xml:space="preserve" font-family="Gotham-Book" font-size="30.0" fill="#51A7F9" transform="matrix(1.00, 0.00, -0.00, -1.00, 136.4, 7.0)">e</text><text xml:space="preserve" font-family="Gotham-Book" font-size="30.0" fill="#51A7F9" transform="matrix(1.00, 0.00, -0.00, -1.00, 154.1, 7.0)">f</text><text xml:space="preserve" font-family="Gotham-Book" font-size="30.0" fill="#51A7F9" transform="matrix(1.00, 0.00, -0.00, -1.00, 164.8, 7.0)">o</text><text xml:space="preserve" font-family="Gotham-Book" font-size="30.0" fill="#51A7F9" transform="matrix(1.00, 0.00, -0.00, -1.00, 184.2, 7.0)">r</text><text xml:space="preserve" font-family="Gotham-Book" font-size="30.0" fill="#51A7F9" transform="matrix(1.00, 0.00, -0.00, -1.00, 195.7, 7.0)">e</text><text xml:space="preserve" font-family="Gotham-Book" font-size="30.0" fill="#51A7F9" transform="matrix(1.00, 0.00, -0.00, -1.00, 213.5, 7.0)"> </text><text xml:space="preserve" font-family="Gotham-Book" font-size="30.0" fill="#51A7F9" transform="matrix(1.00, 0.00, -0.00, -1.00, 222.5, 7.0)">r</text><text xml:space="preserve" font-family="Gotham-Book" font-size="30.0" fill="#51A7F9" transform="matrix(1.00, 0.00, -0.00, -1.00, 233.9, 7.0)">e</text><text xml:space="preserve" font-family="Gotham-Book" font-size="30.0" fill="#51A7F9" transform="matrix(1.00, 0.00, -0.00, -1.00, 251.7, 7.0)">l</text><text xml:space="preserve" font-family="Gotham-Book" font-size="30.0" fill="#51A7F9" transform="matrix(1.00, 0.00, -0.00, -1.00, 259.6, 7.0)">e</text><text xml:space="preserve" font-family="Gotham-Book" font-size="30.0" fill="#51A7F9" transform="matrix(1.00, 0.00, -0.00, -1.00, 277.4, 7.0)">a</text><text xml:space="preserve" font-family="Gotham-Book" font-size="30.0" fill="#51A7F9" transform="matrix(1.00, 0.00, -0.00, -1.00, 294.7, 7.0)">s</text><text xml:space="preserve" font-family="Gotham-Book" font-size="30.0" fill="#51A7F9" transform="matrix(1.00, 0.00, -0.00, -1.00, 309.7, 7.0)">e</text></g></svg>