<?xml version="1.0" encoding="UTF-8" standalone="no"?><svg xmlns="http://www.w3.org/2000/svg" xmlns:xlink="http://www.w3.org/1999/xlink" clip-rule="evenodd" stroke-miterlimit="4.00" viewBox="0 0 449 34"><desc>SVG generated by Keynote</desc><defs></defs><g transform="matrix(1.00, 0.00, -0.00, -1.00, 0.0, 34.0)"><text xml:space="preserve" font-family="Gotham-Book" font-size="34.0" fill="#51A7F9" transform="matrix(1.00, 0.00, -0.00, -1.00, -1.0, 8.0)">M</text><text xml:space="preserve" font-family="Gotham-Book" font-size="34.0" fill="#51A7F9" transform="matrix(1.00, 0.00, -0.00, -1.00, 28.5, 8.0)">a</text><text xml:space="preserve" font-family="Gotham-Book" font-size="34.0" fill="#51A7F9" transform="matrix(1.00, 0.00, -0.00, -1.00, 48.2, 8.0)">n</text><text xml:space="preserve" font-family="Gotham-Book" font-size="34.0" fill="#51A7F9" transform="matrix(1.00, 0.00, -0.00, -1.00, 69.1, 8.0)">a</text><text xml:space="preserve" font-family="Gotham-Book" font-size="34.0" fill="#51A7F9" transform="matrix(1.00, 0.00, -0.00, -1.00, 88.8, 8.0)">g</text><text xml:space="preserve" font-family="Gotham-Book" font-size="34.0" fill="#51A7F9" transform="matrix(1.00, 0.00, -0.00, -1.00, 111.4, 8.0)">e</text><text xml:space="preserve" font-family="Gotham-Book" font-size="34.0" fill="#51A7F9" transform="matrix(1.00, 0.00, -0.00, -1.00, 131.5, 8.0)"> </text><text xml:space="preserve" font-family="Gotham-Book" font-size="34.0" fill="#51A7F9" transform="matrix(1.00, 0.00, -0.00, -1.00, 141.7, 8.0)">d</text><text xml:space="preserve" font-family="Gotham-Book" font-size="34.0" fill="#51A7F9" transform="matrix(1.00, 0.00, -0.00, -1.00, 164.3, 8.0)">e</text><text xml:space="preserve" font-family="Gotham-Book" font-size="34.0" fill="#51A7F9" transform="matrix(1.00, 0.00, -0.00, -1.00, 184.4, 8.0)">p</text><text xml:space="preserve" font-family="Gotham-Book" font-size="34.0" fill="#51A7F9" transform="matrix(1.00, 0.00, -0.00, -1.00, 207.0, 8.0)">l</text><text xml:space="preserve" font-family="Gotham-Book" font-size="34.0" fill="#51A7F9" transform="matrix(1.00, 0.00, -0.00, -1.00, 216.0, 8.0)">o</text><text xml:space="preserve" font-family="Gotham-Book" font-size="34.0" fill="#51A7F9" transform="matrix(1.00, 0.00, -0.00, -1.00, 236.9, 8.0)">y</text><text xml:space="preserve" font-family="Gotham-Book" font-size="34.0" fill="#51A7F9" transform="matrix(1.00, 0.00, -0.00, -1.00, 257.0, 8.0)">m</text><text xml:space="preserve" font-family="Gotham-Book" font-size="34.0" fill="#51A7F9" transform="matrix(1.00, 0.00, -0.00, -1.00, 289.3, 8.0)">e</text><text xml:space="preserve" font-family="Gotham-Book" font-size="34.0" fill="#51A7F9" transform="matrix(1.00, 0.00, -0.00, -1.00, 309.5, 8.0)">n</text><text xml:space="preserve" font-family="Gotham-Book" font-size="34.0" fill="#51A7F9" transform="matrix(1.00, 0.00, -0.00, -1.00, 330.4, 8.0)">t</text><text xml:space="preserve" font-family="Gotham-Book" font-size="34.0" fill="#51A7F9" transform="matrix(1.00, 0.00, -0.00, -1.00, 344.1, 8.0)"> </text><text xml:space="preserve" font-family="Gotham-Book" font-size="34.0" fill="#51A7F9" transform="matrix(1.00, 0.00, -0.00, -1.00, 354.3, 8.0)">a</text><text xml:space="preserve" font-family="Gotham-Book" font-size="34.0" fill="#51A7F9" transform="matrix(1.00, 0.00, -0.00, -1.00, 374.0, 8.0)">l</text><text xml:space="preserve" font-family="Gotham-Book" font-size="34.0" fill="#51A7F9" transform="matrix(1.00, 0.00, -0.00, -1.00, 383.0, 8.0)">e</text><text xml:space="preserve" font-family="Gotham-Book" font-size="34.0" fill="#51A7F9" transform="matrix(1.00, 0.00, -0.00, -1.00, 403.1, 8.0)">r</text><text xml:space="preserve" font-family="Gotham-Book" font-size="34.0" fill="#51A7F9" transform="matrix(1.00, 0.00, -0.00, -1.00, 416.9, 8.0)">t</text><text xml:space="preserve" font-family="Gotham-Book" font-size="34.0" fill="#51A7F9" transform="matrix(1.00, 0.00, -0.00, -1.00, 430.6, 8.0)">s</text></g></svg>