<?xml version="1.0" encoding="UTF-8" standalone="no"?><svg xmlns="http://www.w3.org/2000/svg" xmlns:xlink="http://www.w3.org/1999/xlink" clip-rule="evenodd" stroke-miterlimit="4.00" viewBox="0 0 282 29"><desc>SVG generated by Keynote</desc><defs></defs><g transform="matrix(1.00, 0.00, -0.00, -1.00, 0.0, 29.0)"><text xml:space="preserve" font-family="Gotham-Book" font-size="34.0" fill="#51A7F9" transform="matrix(1.00, 0.00, -0.00, -1.00, 0.0, 2.0)">G</text><text xml:space="preserve" font-family="Gotham-Book" font-size="34.0" fill="#51A7F9" transform="matrix(1.00, 0.00, -0.00, -1.00, 27.0, 2.0)">a</text><text xml:space="preserve" font-family="Gotham-Book" font-size="34.0" fill="#51A7F9" transform="matrix(1.00, 0.00, -0.00, -1.00, 46.5, 2.0)">t</text><text xml:space="preserve" font-family="Gotham-Book" font-size="34.0" fill="#51A7F9" transform="matrix(1.00, 0.00, -0.00, -1.00, 60.2, 2.0)">h</text><text xml:space="preserve" font-family="Gotham-Book" font-size="34.0" fill="#51A7F9" transform="matrix(1.00, 0.00, -0.00, -1.00, 81.2, 2.0)">e</text><text xml:space="preserve" font-family="Gotham-Book" font-size="34.0" fill="#51A7F9" transform="matrix(1.00, 0.00, -0.00, -1.00, 101.3, 2.0)">r</text><text xml:space="preserve" font-family="Gotham-Book" font-size="34.0" fill="#51A7F9" transform="matrix(1.00, 0.00, -0.00, -1.00, 115.1, 2.0)"> </text><text xml:space="preserve" font-family="Gotham-Book" font-size="34.0" fill="#51A7F9" transform="matrix(1.00, 0.00, -0.00, -1.00, 125.3, 2.0)">f</text><text xml:space="preserve" font-family="Gotham-Book" font-size="34.0" fill="#51A7F9" transform="matrix(1.00, 0.00, -0.00, -1.00, 137.4, 2.0)">e</text><text xml:space="preserve" font-family="Gotham-Book" font-size="34.0" fill="#51A7F9" transform="matrix(1.00, 0.00, -0.00, -1.00, 157.6, 2.0)">e</text><text xml:space="preserve" font-family="Gotham-Book" font-size="34.0" fill="#51A7F9" transform="matrix(1.00, 0.00, -0.00, -1.00, 177.7, 2.0)">d</text><text xml:space="preserve" font-family="Gotham-Book" font-size="34.0" fill="#51A7F9" transform="matrix(1.00, 0.00, -0.00, -1.00, 200.3, 2.0)">b</text><text xml:space="preserve" font-family="Gotham-Book" font-size="34.0" fill="#51A7F9" transform="matrix(1.00, 0.00, -0.00, -1.00, 222.8, 2.0)">a</text><text xml:space="preserve" font-family="Gotham-Book" font-size="34.0" fill="#51A7F9" transform="matrix(1.00, 0.00, -0.00, -1.00, 242.5, 2.0)">c</text><text xml:space="preserve" font-family="Gotham-Book" font-size="34.0" fill="#51A7F9" transform="matrix(1.00, 0.00, -0.00, -1.00, 261.9, 2.0)">k</text></g></svg>