<?xml version="1.0" encoding="UTF-8" standalone="no"?><svg xmlns="http://www.w3.org/2000/svg" xmlns:xlink="http://www.w3.org/1999/xlink" clip-rule="evenodd" stroke-miterlimit="4.00" viewBox="0 0 920 69"><desc>SVG generated by Keynote</desc><defs></defs><g transform="matrix(1.00, 0.00, -0.00, -1.00, 0.0, 69.0)"><text xml:space="preserve" font-family="Gotham-Book" font-size="73.0" fill="#FEFFFF" transform="matrix(1.00, 0.00, -0.00, -1.00, -2.0, 13.0)">S</text><text xml:space="preserve" font-family="Gotham-Book" font-size="73.0" fill="#FEFFFF" transform="matrix(1.00, 0.00, -0.00, -1.00, 44.7, 13.0)">e</text><text xml:space="preserve" font-family="Gotham-Book" font-size="73.0" fill="#FEFFFF" transform="matrix(1.00, 0.00, -0.00, -1.00, 87.9, 13.0)">n</text><text xml:space="preserve" font-family="Gotham-Book" font-size="73.0" fill="#FEFFFF" transform="matrix(1.00, 0.00, -0.00, -1.00, 132.9, 13.0)">i</text><text xml:space="preserve" font-family="Gotham-Book" font-size="73.0" fill="#FEFFFF" transform="matrix(1.00, 0.00, -0.00, -1.00, 152.1, 13.0)">o</text><text xml:space="preserve" font-family="Gotham-Book" font-size="73.0" fill="#FEFFFF" transform="matrix(1.00, 0.00, -0.00, -1.00, 199.3, 13.0)">r</text><text xml:space="preserve" font-family="Gotham-Book" font-size="73.0" fill="#FEFFFF" transform="matrix(1.00, 0.00, -0.00, -1.00, 228.8, 13.0)"> </text><text xml:space="preserve" font-family="Gotham-Book" font-size="73.0" fill="#FEFFFF" transform="matrix(1.00, 0.00, -0.00, -1.00, 250.7, 13.0)">S</text><text xml:space="preserve" font-family="Gotham-Book" font-size="73.0" fill="#FEFFFF" transform="matrix(1.00, 0.00, -0.00, -1.00, 297.4, 13.0)">o</text><text xml:space="preserve" font-family="Gotham-Book" font-size="73.0" fill="#FEFFFF" transform="matrix(1.00, 0.00, -0.00, -1.00, 344.6, 13.0)">f</text><text xml:space="preserve" font-family="Gotham-Book" font-size="73.0" fill="#FEFFFF" transform="matrix(1.00, 0.00, -0.00, -1.00, 371.4, 13.0)">t</text><text xml:space="preserve" font-family="Gotham-Book" font-size="73.0" fill="#FEFFFF" transform="matrix(1.00, 0.00, -0.00, -1.00, 400.9, 13.0)">w</text><text xml:space="preserve" font-family="Gotham-Book" font-size="73.0" fill="#FEFFFF" transform="matrix(1.00, 0.00, -0.00, -1.00, 462.3, 13.0)">a</text><text xml:space="preserve" font-family="Gotham-Book" font-size="73.0" fill="#FEFFFF" transform="matrix(1.00, 0.00, -0.00, -1.00, 504.5, 13.0)">r</text><text xml:space="preserve" font-family="Gotham-Book" font-size="73.0" fill="#FEFFFF" transform="matrix(1.00, 0.00, -0.00, -1.00, 532.5, 13.0)">e</text><text xml:space="preserve" font-family="Gotham-Book" font-size="73.0" fill="#FEFFFF" transform="matrix(1.00, 0.00, -0.00, -1.00, 575.7, 13.0)"> </text><text xml:space="preserve" font-family="Gotham-Book" font-size="73.0" fill="#FEFFFF" transform="matrix(1.00, 0.00, -0.00, -1.00, 597.6, 13.0)">E</text><text xml:space="preserve" font-family="Gotham-Book" font-size="73.0" fill="#FEFFFF" transform="matrix(1.00, 0.00, -0.00, -1.00, 646.5, 13.0)">n</text><text xml:space="preserve" font-family="Gotham-Book" font-size="73.0" fill="#FEFFFF" transform="matrix(1.00, 0.00, -0.00, -1.00, 691.5, 13.0)">g</text><text xml:space="preserve" font-family="Gotham-Book" font-size="73.0" fill="#FEFFFF" transform="matrix(1.00, 0.00, -0.00, -1.00, 740.0, 13.0)">i</text><text xml:space="preserve" font-family="Gotham-Book" font-size="73.0" fill="#FEFFFF" transform="matrix(1.00, 0.00, -0.00, -1.00, 759.2, 13.0)">n</text><text xml:space="preserve" font-family="Gotham-Book" font-size="73.0" fill="#FEFFFF" transform="matrix(1.00, 0.00, -0.00, -1.00, 804.1, 13.0)">e</text><text xml:space="preserve" font-family="Gotham-Book" font-size="73.0" fill="#FEFFFF" transform="matrix(1.00, 0.00, -0.00, -1.00, 847.4, 13.0)">e</text><text xml:space="preserve" font-family="Gotham-Book" font-size="73.0" fill="#FEFFFF" transform="matrix(1.00, 0.00, -0.00, -1.00, 890.6, 13.0)">r</text></g></svg>