<?xml version="1.0" encoding="UTF-8" standalone="no"?><svg xmlns="http://www.w3.org/2000/svg" xmlns:xlink="http://www.w3.org/1999/xlink" clip-rule="evenodd" stroke-miterlimit="4.00" viewBox="0 0 644 58"><desc>SVG generated by Keynote</desc><defs></defs><g transform="matrix(1.00, 0.00, -0.00, -1.00, 0.0, 58.0)"><text xml:space="preserve" font-family="Gotham-Book" font-size="73.0" fill="#FEFFFF" transform="matrix(1.00, 0.00, -0.00, -1.00, -1.0, 2.0)">T</text><text xml:space="preserve" font-family="Gotham-Book" font-size="73.0" fill="#FEFFFF" transform="matrix(1.00, 0.00, -0.00, -1.00, 40.2, 2.0)">w</text><text xml:space="preserve" font-family="Gotham-Book" font-size="73.0" fill="#FEFFFF" transform="matrix(1.00, 0.00, -0.00, -1.00, 103.0, 2.0)">i</text><text xml:space="preserve" font-family="Gotham-Book" font-size="73.0" fill="#FEFFFF" transform="matrix(1.00, 0.00, -0.00, -1.00, 122.2, 2.0)">t</text><text xml:space="preserve" font-family="Gotham-Book" font-size="73.0" fill="#FEFFFF" transform="matrix(1.00, 0.00, -0.00, -1.00, 151.7, 2.0)">t</text><text xml:space="preserve" font-family="Gotham-Book" font-size="73.0" fill="#FEFFFF" transform="matrix(1.00, 0.00, -0.00, -1.00, 180.1, 2.0)">e</text><text xml:space="preserve" font-family="Gotham-Book" font-size="73.0" fill="#FEFFFF" transform="matrix(1.00, 0.00, -0.00, -1.00, 223.3, 2.0)">r</text><text xml:space="preserve" font-family="Gotham-Book" font-size="73.0" fill="#FEFFFF" transform="matrix(1.00, 0.00, -0.00, -1.00, 252.9, 2.0)"> </text><text xml:space="preserve" font-family="Gotham-Book" font-size="73.0" fill="#FEFFFF" transform="matrix(1.00, 0.00, -0.00, -1.00, 274.8, 2.0)">+</text><text xml:space="preserve" font-family="Gotham-Book" font-size="73.0" fill="#FEFFFF" transform="matrix(1.00, 0.00, -0.00, -1.00, 320.4, 2.0)"> </text><text xml:space="preserve" font-family="Gotham-Book" font-size="73.0" fill="#FEFFFF" transform="matrix(1.00, 0.00, -0.00, -1.00, 342.3, 2.0)">F</text><text xml:space="preserve" font-family="Gotham-Book" font-size="73.0" fill="#FEFFFF" transform="matrix(1.00, 0.00, -0.00, -1.00, 388.4, 2.0)">a</text><text xml:space="preserve" font-family="Gotham-Book" font-size="73.0" fill="#FEFFFF" transform="matrix(1.00, 0.00, -0.00, -1.00, 430.6, 2.0)">s</text><text xml:space="preserve" font-family="Gotham-Book" font-size="73.0" fill="#FEFFFF" transform="matrix(1.00, 0.00, -0.00, -1.00, 466.3, 2.0)">t</text><text xml:space="preserve" font-family="Gotham-Book" font-size="73.0" fill="#FEFFFF" transform="matrix(1.00, 0.00, -0.00, -1.00, 495.8, 2.0)">l</text><text xml:space="preserve" font-family="Gotham-Book" font-size="73.0" fill="#FEFFFF" transform="matrix(1.00, 0.00, -0.00, -1.00, 515.0, 2.0)">a</text><text xml:space="preserve" font-family="Gotham-Book" font-size="73.0" fill="#FEFFFF" transform="matrix(1.00, 0.00, -0.00, -1.00, 557.2, 2.0)">n</text><text xml:space="preserve" font-family="Gotham-Book" font-size="73.0" fill="#FEFFFF" transform="matrix(1.00, 0.00, -0.00, -1.00, 602.2, 2.0)">e</text></g></svg>