<?xml version="1.0" encoding="UTF-8" standalone="no"?><svg xmlns="http://www.w3.org/2000/svg" xmlns:xlink="http://www.w3.org/1999/xlink" clip-rule="evenodd" stroke-miterlimit="4.00" viewBox="0 0 273 34"><desc>SVG generated by Keynote</desc><defs></defs><g transform="matrix(1.00, 0.00, -0.00, -1.00, 0.0, 34.0)"><text xml:space="preserve" font-family="Gotham-Book" font-size="32.8" fill="#FEFFFF" transform="matrix(1.00, 0.00, -0.00, -1.00, 0.1, 7.6)">1</text><text xml:space="preserve" font-family="Gotham-Book" font-size="32.8" fill="#FEFFFF" transform="matrix(1.00, 0.00, -0.00, -1.00, 11.9, 7.6)">.</text><text xml:space="preserve" font-family="Gotham-Book" font-size="32.8" fill="#FEFFFF" transform="matrix(1.00, 0.00, -0.00, -1.00, 46.0, 8.0)">V</text><text xml:space="preserve" font-family="Gotham-Book" font-size="32.8" fill="#FEFFFF" transform="matrix(1.00, 0.00, -0.00, -1.00, 68.3, 8.0)">e</text><text xml:space="preserve" font-family="Gotham-Book" font-size="32.8" fill="#FEFFFF" transform="matrix(1.00, 0.00, -0.00, -1.00, 87.7, 8.0)">r</text><text xml:space="preserve" font-family="Gotham-Book" font-size="32.8" fill="#FEFFFF" transform="matrix(1.00, 0.00, -0.00, -1.00, 100.9, 8.0)">s</text><text xml:space="preserve" font-family="Gotham-Book" font-size="32.8" fill="#FEFFFF" transform="matrix(1.00, 0.00, -0.00, -1.00, 117.3, 8.0)">i</text><text xml:space="preserve" font-family="Gotham-Book" font-size="32.8" fill="#FEFFFF" transform="matrix(1.00, 0.00, -0.00, -1.00, 125.9, 8.0)">o</text><text xml:space="preserve" font-family="Gotham-Book" font-size="32.8" fill="#FEFFFF" transform="matrix(1.00, 0.00, -0.00, -1.00, 147.0, 8.0)">n</text><text xml:space="preserve" font-family="Gotham-Book" font-size="32.8" fill="#FEFFFF" transform="matrix(1.00, 0.00, -0.00, -1.00, 167.2, 8.0)"> </text><text xml:space="preserve" font-family="Gotham-Book" font-size="32.8" fill="#FEFFFF" transform="matrix(1.00, 0.00, -0.00, -1.00, 177.0, 8.0)">B</text><text xml:space="preserve" font-family="Gotham-Book" font-size="32.8" fill="#FEFFFF" transform="matrix(1.00, 0.00, -0.00, -1.00, 200.7, 8.0)">u</text><text xml:space="preserve" font-family="Gotham-Book" font-size="32.8" fill="#FEFFFF" transform="matrix(1.00, 0.00, -0.00, -1.00, 220.9, 8.0)">m</text><text xml:space="preserve" font-family="Gotham-Book" font-size="32.8" fill="#FEFFFF" transform="matrix(1.00, 0.00, -0.00, -1.00, 252.0, 8.0)">p</text></g></svg>