<?xml version="1.0" encoding="UTF-8" standalone="no"?><svg xmlns="http://www.w3.org/2000/svg" xmlns:xlink="http://www.w3.org/1999/xlink" clip-rule="evenodd" stroke-miterlimit="4.00" viewBox="0 0 354 34"><desc>SVG generated by Keynote</desc><defs></defs><g transform="matrix(1.00, 0.00, -0.00, -1.00, 0.0, 34.0)"><text xml:space="preserve" font-family="Gotham-Book" font-size="32.8" fill="#FEFFFF" transform="matrix(1.00, 0.00, -0.00, -1.00, 0.1, 7.4)">7</text><text xml:space="preserve" font-family="Gotham-Book" font-size="32.8" fill="#FEFFFF" transform="matrix(1.00, 0.00, -0.00, -1.00, 16.4, 7.4)">.</text><text xml:space="preserve" font-family="Gotham-Book" font-size="32.8" fill="#FEFFFF" transform="matrix(1.00, 0.00, -0.00, -1.00, 46.0, 7.0)">A</text><text xml:space="preserve" font-family="Gotham-Book" font-size="32.8" fill="#FEFFFF" transform="matrix(1.00, 0.00, -0.00, -1.00, 71.1, 7.0)">d</text><text xml:space="preserve" font-family="Gotham-Book" font-size="32.8" fill="#FEFFFF" transform="matrix(1.00, 0.00, -0.00, -1.00, 92.8, 7.0)">d</text><text xml:space="preserve" font-family="Gotham-Book" font-size="32.8" fill="#FEFFFF" transform="matrix(1.00, 0.00, -0.00, -1.00, 114.6, 7.0)"> </text><text xml:space="preserve" font-family="Gotham-Book" font-size="32.8" fill="#FEFFFF" transform="matrix(1.00, 0.00, -0.00, -1.00, 124.4, 7.0)">R</text><text xml:space="preserve" font-family="Gotham-Book" font-size="32.8" fill="#FEFFFF" transform="matrix(1.00, 0.00, -0.00, -1.00, 147.8, 7.0)">e</text><text xml:space="preserve" font-family="Gotham-Book" font-size="32.8" fill="#FEFFFF" transform="matrix(1.00, 0.00, -0.00, -1.00, 167.1, 7.0)">l</text><text xml:space="preserve" font-family="Gotham-Book" font-size="32.8" fill="#FEFFFF" transform="matrix(1.00, 0.00, -0.00, -1.00, 175.8, 7.0)">e</text><text xml:space="preserve" font-family="Gotham-Book" font-size="32.8" fill="#FEFFFF" transform="matrix(1.00, 0.00, -0.00, -1.00, 195.2, 7.0)">a</text><text xml:space="preserve" font-family="Gotham-Book" font-size="32.8" fill="#FEFFFF" transform="matrix(1.00, 0.00, -0.00, -1.00, 214.1, 7.0)">s</text><text xml:space="preserve" font-family="Gotham-Book" font-size="32.8" fill="#FEFFFF" transform="matrix(1.00, 0.00, -0.00, -1.00, 230.4, 7.0)">e</text><text xml:space="preserve" font-family="Gotham-Book" font-size="32.8" fill="#FEFFFF" transform="matrix(1.00, 0.00, -0.00, -1.00, 249.8, 7.0)"> </text><text xml:space="preserve" font-family="Gotham-Book" font-size="32.8" fill="#FEFFFF" transform="matrix(1.00, 0.00, -0.00, -1.00, 259.7, 7.0)">N</text><text xml:space="preserve" font-family="Gotham-Book" font-size="32.8" fill="#FEFFFF" transform="matrix(1.00, 0.00, -0.00, -1.00, 285.5, 7.0)">o</text><text xml:space="preserve" font-family="Gotham-Book" font-size="32.8" fill="#FEFFFF" transform="matrix(1.00, 0.00, -0.00, -1.00, 306.7, 7.0)">t</text><text xml:space="preserve" font-family="Gotham-Book" font-size="32.8" fill="#FEFFFF" transform="matrix(1.00, 0.00, -0.00, -1.00, 319.4, 7.0)">e</text><text xml:space="preserve" font-family="Gotham-Book" font-size="32.8" fill="#FEFFFF" transform="matrix(1.00, 0.00, -0.00, -1.00, 338.8, 7.0)">s</text></g></svg>