<?xml version="1.0" encoding="UTF-8" standalone="no"?><svg xmlns="http://www.w3.org/2000/svg" xmlns:xlink="http://www.w3.org/1999/xlink" clip-rule="evenodd" stroke-miterlimit="4.00" viewBox="0 0 205 33"><desc>SVG generated by Keynote</desc><defs></defs><g transform="matrix(1.00, 0.00, -0.00, -1.00, 0.0, 33.0)"><text xml:space="preserve" font-family="Gotham-Book" font-size="32.8" fill="#FEFFFF" transform="matrix(1.00, 0.00, -0.00, -1.00, 0.1, 6.7)">8</text><text xml:space="preserve" font-family="Gotham-Book" font-size="32.8" fill="#FEFFFF" transform="matrix(1.00, 0.00, -0.00, -1.00, 20.8, 6.7)">.</text><text xml:space="preserve" font-family="Gotham-Book" font-size="32.8" fill="#FEFFFF" transform="matrix(1.00, 0.00, -0.00, -1.00, 46.0, 7.0)">D</text><text xml:space="preserve" font-family="Gotham-Book" font-size="32.8" fill="#FEFFFF" transform="matrix(1.00, 0.00, -0.00, -1.00, 71.6, 7.0)">i</text><text xml:space="preserve" font-family="Gotham-Book" font-size="32.8" fill="#FEFFFF" transform="matrix(1.00, 0.00, -0.00, -1.00, 80.2, 7.0)">s</text><text xml:space="preserve" font-family="Gotham-Book" font-size="32.8" fill="#FEFFFF" transform="matrix(1.00, 0.00, -0.00, -1.00, 96.2, 7.0)">t</text><text xml:space="preserve" font-family="Gotham-Book" font-size="32.8" fill="#FEFFFF" transform="matrix(1.00, 0.00, -0.00, -1.00, 109.5, 7.0)">r</text><text xml:space="preserve" font-family="Gotham-Book" font-size="32.8" fill="#FEFFFF" transform="matrix(1.00, 0.00, -0.00, -1.00, 122.7, 7.0)">i</text><text xml:space="preserve" font-family="Gotham-Book" font-size="32.8" fill="#FEFFFF" transform="matrix(1.00, 0.00, -0.00, -1.00, 131.3, 7.0)">b</text><text xml:space="preserve" font-family="Gotham-Book" font-size="32.8" fill="#FEFFFF" transform="matrix(1.00, 0.00, -0.00, -1.00, 153.1, 7.0)">u</text><text xml:space="preserve" font-family="Gotham-Book" font-size="32.8" fill="#FEFFFF" transform="matrix(1.00, 0.00, -0.00, -1.00, 173.3, 7.0)">t</text><text xml:space="preserve" font-family="Gotham-Book" font-size="32.8" fill="#FEFFFF" transform="matrix(1.00, 0.00, -0.00, -1.00, 186.0, 7.0)">e</text></g></svg>