<?xml version="1.0" encoding="UTF-8" standalone="no"?><svg xmlns="http://www.w3.org/2000/svg" xmlns:xlink="http://www.w3.org/1999/xlink" clip-rule="evenodd" stroke-miterlimit="4.00" viewBox="0 0 295 34"><desc>SVG generated by Keynote</desc><defs></defs><g transform="matrix(1.00, 0.00, -0.00, -1.00, 0.0, 34.0)"><text xml:space="preserve" font-family="Gotham-Book" font-size="32.8" fill="#FEFFFF" transform="matrix(1.00, 0.00, -0.00, -1.00, 0.1, 6.9)">2</text><text xml:space="preserve" font-family="Gotham-Book" font-size="32.8" fill="#FEFFFF" transform="matrix(1.00, 0.00, -0.00, -1.00, 19.8, 6.9)">.</text><text xml:space="preserve" font-family="Gotham-Book" font-size="32.8" fill="#FEFFFF" transform="matrix(1.00, 0.00, -0.00, -1.00, 46.0, 7.0)">C</text><text xml:space="preserve" font-family="Gotham-Book" font-size="32.8" fill="#FEFFFF" transform="matrix(1.00, 0.00, -0.00, -1.00, 69.8, 7.0)">o</text><text xml:space="preserve" font-family="Gotham-Book" font-size="32.8" fill="#FEFFFF" transform="matrix(1.00, 0.00, -0.00, -1.00, 91.0, 7.0)">m</text><text xml:space="preserve" font-family="Gotham-Book" font-size="32.8" fill="#FEFFFF" transform="matrix(1.00, 0.00, -0.00, -1.00, 122.2, 7.0)">m</text><text xml:space="preserve" font-family="Gotham-Book" font-size="32.8" fill="#FEFFFF" transform="matrix(1.00, 0.00, -0.00, -1.00, 153.3, 7.0)">i</text><text xml:space="preserve" font-family="Gotham-Book" font-size="32.8" fill="#FEFFFF" transform="matrix(1.00, 0.00, -0.00, -1.00, 161.9, 7.0)">t</text><text xml:space="preserve" font-family="Gotham-Book" font-size="32.8" fill="#FEFFFF" transform="matrix(1.00, 0.00, -0.00, -1.00, 175.2, 7.0)"> </text><text xml:space="preserve" font-family="Gotham-Book" font-size="32.8" fill="#FEFFFF" transform="matrix(1.00, 0.00, -0.00, -1.00, 185.0, 7.0)">&amp;</text><text xml:space="preserve" font-family="Gotham-Book" font-size="32.8" fill="#FEFFFF" transform="matrix(1.00, 0.00, -0.00, -1.00, 207.8, 7.0)"> </text><text xml:space="preserve" font-family="Gotham-Book" font-size="32.8" fill="#FEFFFF" transform="matrix(1.00, 0.00, -0.00, -1.00, 217.6, 7.0)">P</text><text xml:space="preserve" font-family="Gotham-Book" font-size="32.8" fill="#FEFFFF" transform="matrix(1.00, 0.00, -0.00, -1.00, 239.7, 7.0)">u</text><text xml:space="preserve" font-family="Gotham-Book" font-size="32.8" fill="#FEFFFF" transform="matrix(1.00, 0.00, -0.00, -1.00, 259.9, 7.0)">s</text><text xml:space="preserve" font-family="Gotham-Book" font-size="32.8" fill="#FEFFFF" transform="matrix(1.00, 0.00, -0.00, -1.00, 276.2, 7.0)">h</text></g></svg>