<?xml version="1.0" encoding="UTF-8" standalone="no"?><svg xmlns="http://www.w3.org/2000/svg" xmlns:xlink="http://www.w3.org/1999/xlink" clip-rule="evenodd" stroke-miterlimit="4.00" viewBox="0 0 1024 768"><desc>SVG generated by Keynote</desc><defs></defs><g transform="matrix(1.00, 0.00, -0.00, -1.00, 0.0, 768.0)"><path d="M 0.0 768.0 L 1024.0 768.0 L 1024.0 0.0 L 0.0 0.0 Z M 0.0 768.0 " fill="#FEFFFF"></path><g><clipPath id="clip-54"><path d="M 0.0 682.0 L 1024.0 682.0 L 1024.0 86.0 L 0.0 86.0 Z M -0.0 682.3 "></path></clipPath><g clip-path="url(#clip-54)"><image xlink:href="9DFAFC2608BCDFBF4D655D57FE806F57.png" width="1024.00" height="614.00" transform="matrix(1.00, 0.00, -0.00, -1.00, 0.0, 691.0)"></image></g></g><image xlink:href="BFED78CFFAE34A758F80A888EB75A6A9.png" width="959.00" height="539.00" transform="matrix(1.43, 0.00, -0.00, -1.43, -138.0, 769.0)"></image><g><clipPath id="clip-55"><path d="M 164.0 767.0 L 860.0 767.0 L 860.0 485.0 L 164.0 485.0 Z M 164.3 767.4 "></path></clipPath><g clip-path="url(#clip-55)"><image xlink:href="ACF6D65F6D1AEFA0ACACAFEF0125700D.png" width="818.00" height="389.00" transform="matrix(1.00, 0.00, -0.00, -1.00, 104.0, 828.0)"></image></g></g></g></svg>