<?xml version="1.0" encoding="UTF-8" standalone="no"?><svg xmlns="http://www.w3.org/2000/svg" xmlns:xlink="http://www.w3.org/1999/xlink" clip-rule="evenodd" stroke-miterlimit="4.00" viewBox="0 0 950 62"><desc>SVG generated by Keynote</desc><defs></defs><g transform="matrix(1.00, 0.00, -0.00, -1.00, 0.0, 62.0)"><text xml:space="preserve" font-family="Gotham-Medium" font-size="50.0" fill="#6DCFF8" transform="matrix(1.00, 0.00, -0.00, -1.00, 0.0, 21.0)">h</text><text xml:space="preserve" font-family="Gotham-Medium" font-size="50.0" fill="#6DCFF8" transform="matrix(1.00, 0.00, -0.00, -1.00, 31.0, 21.0)">t</text><text xml:space="preserve" font-family="Gotham-Medium" font-size="50.0" fill="#6DCFF8" transform="matrix(1.00, 0.00, -0.00, -1.00, 51.5, 21.0)">t</text><text xml:space="preserve" font-family="Gotham-Medium" font-size="50.0" fill="#6DCFF8" transform="matrix(1.00, 0.00, -0.00, -1.00, 72.0, 21.0)">p</text><text xml:space="preserve" font-family="Gotham-Medium" font-size="50.0" fill="#6DCFF8" transform="matrix(1.00, 0.00, -0.00, -1.00, 105.5, 21.0)">s</text><text xml:space="preserve" font-family="Gotham-Medium" font-size="50.0" fill="#6DCFF8" transform="matrix(1.00, 0.00, -0.00, -1.00, 130.5, 21.0)">:</text><text xml:space="preserve" font-family="Gotham-Medium" font-size="50.0" fill="#6DCFF8" transform="matrix(1.00, 0.00, -0.00, -1.00, 144.4, 21.0)">/</text><text xml:space="preserve" font-family="Gotham-Medium" font-size="50.0" fill="#6DCFF8" transform="matrix(1.00, 0.00, -0.00, -1.00, 162.3, 21.0)">/</text><text xml:space="preserve" font-family="Gotham-Medium" font-size="50.0" fill="#6DCFF8" transform="matrix(1.00, 0.00, -0.00, -1.00, 184.9, 21.0)">g</text><text xml:space="preserve" font-family="Gotham-Medium" font-size="50.0" fill="#6DCFF8" transform="matrix(1.00, 0.00, -0.00, -1.00, 218.4, 21.0)">i</text><text xml:space="preserve" font-family="Gotham-Medium" font-size="50.0" fill="#6DCFF8" transform="matrix(1.00, 0.00, -0.00, -1.00, 232.7, 21.0)">t</text><text xml:space="preserve" font-family="Gotham-Medium" font-size="50.0" fill="#6DCFF8" transform="matrix(1.00, 0.00, -0.00, -1.00, 253.2, 21.0)">h</text><text xml:space="preserve" font-family="Gotham-Medium" font-size="50.0" fill="#6DCFF8" transform="matrix(1.00, 0.00, -0.00, -1.00, 284.2, 21.0)">u</text><text xml:space="preserve" font-family="Gotham-Medium" font-size="50.0" fill="#6DCFF8" transform="matrix(1.00, 0.00, -0.00, -1.00, 315.2, 21.0)">b</text><text xml:space="preserve" font-family="Gotham-Medium" font-size="50.0" fill="#6DCFF8" transform="matrix(1.00, 0.00, -0.00, -1.00, 348.2, 21.0)">.</text><text xml:space="preserve" font-family="Gotham-Medium" font-size="50.0" fill="#6DCFF8" transform="matrix(1.00, 0.00, -0.00, -1.00, 360.7, 21.0)">c</text><text xml:space="preserve" font-family="Gotham-Medium" font-size="50.0" fill="#6DCFF8" transform="matrix(1.00, 0.00, -0.00, -1.00, 388.5, 21.0)">o</text><text xml:space="preserve" font-family="Gotham-Medium" font-size="50.0" fill="#6DCFF8" transform="matrix(1.00, 0.00, -0.00, -1.00, 421.3, 21.0)">m</text><text xml:space="preserve" font-family="Gotham-Medium" font-size="50.0" fill="#6DCFF8" transform="matrix(1.00, 0.00, -0.00, -1.00, 468.8, 21.0)">/</text><text xml:space="preserve" font-family="Gotham-Medium" font-size="50.0" fill="#6DCFF8" transform="matrix(1.00, 0.00, -0.00, -1.00, 493.6, 21.0)">f</text><text xml:space="preserve" font-family="Gotham-Medium" font-size="50.0" fill="#6DCFF8" transform="matrix(1.00, 0.00, -0.00, -1.00, 511.7, 21.0)">a</text><text xml:space="preserve" font-family="Gotham-Medium" font-size="50.0" fill="#6DCFF8" transform="matrix(1.00, 0.00, -0.00, -1.00, 541.0, 21.0)">s</text><text xml:space="preserve" font-family="Gotham-Medium" font-size="50.0" fill="#6DCFF8" transform="matrix(1.00, 0.00, -0.00, -1.00, 565.5, 21.0)">t</text><text xml:space="preserve" font-family="Gotham-Medium" font-size="50.0" fill="#6DCFF8" transform="matrix(1.00, 0.00, -0.00, -1.00, 586.0, 21.0)">l</text><text xml:space="preserve" font-family="Gotham-Medium" font-size="50.0" fill="#6DCFF8" transform="matrix(1.00, 0.00, -0.00, -1.00, 600.3, 21.0)">a</text><text xml:space="preserve" font-family="Gotham-Medium" font-size="50.0" fill="#6DCFF8" transform="matrix(1.00, 0.00, -0.00, -1.00, 629.7, 21.0)">n</text><text xml:space="preserve" font-family="Gotham-Medium" font-size="50.0" fill="#6DCFF8" transform="matrix(1.00, 0.00, -0.00, -1.00, 660.7, 21.0)">e</text><text xml:space="preserve" font-family="Gotham-Medium" font-size="50.0" fill="#6DCFF8" transform="matrix(1.00, 0.00, -0.00, -1.00, 690.9, 21.0)">/</text><text xml:space="preserve" font-family="Gotham-Medium" font-size="50.0" fill="#6DCFF8" transform="matrix(1.00, 0.00, -0.00, -1.00, 712.9, 21.0)">e</text><text xml:space="preserve" font-family="Gotham-Medium" font-size="50.0" fill="#6DCFF8" transform="matrix(1.00, 0.00, -0.00, -1.00, 741.6, 21.0)">x</text><text xml:space="preserve" font-family="Gotham-Medium" font-size="50.0" fill="#6DCFF8" transform="matrix(1.00, 0.00, -0.00, -1.00, 769.9, 21.0)">a</text><text xml:space="preserve" font-family="Gotham-Medium" font-size="50.0" fill="#6DCFF8" transform="matrix(1.00, 0.00, -0.00, -1.00, 799.2, 21.0)">m</text><text xml:space="preserve" font-family="Gotham-Medium" font-size="50.0" fill="#6DCFF8" transform="matrix(1.00, 0.00, -0.00, -1.00, 846.7, 21.0)">p</text><text xml:space="preserve" font-family="Gotham-Medium" font-size="50.0" fill="#6DCFF8" transform="matrix(1.00, 0.00, -0.00, -1.00, 880.2, 21.0)">l</text><text xml:space="preserve" font-family="Gotham-Medium" font-size="50.0" fill="#6DCFF8" transform="matrix(1.00, 0.00, -0.00, -1.00, 894.5, 21.0)">e</text><text xml:space="preserve" font-family="Gotham-Medium" font-size="50.0" fill="#6DCFF8" transform="matrix(1.00, 0.00, -0.00, -1.00, 924.7, 21.0)">s</text><g><clipPath id="clip-159"><path d="M -0.8 13.2 L 949.9 13.2 L 949.9 16.2 L -0.8 16.2 Z M -0.8 13.2 "></path></clipPath><g clip-path="url(#clip-159)"><path d="M 4.5 50.1 L 954.2 50.1 " fill="none" stroke="#6DCFF8" stroke-width="1.00" stroke-miterlimit="0.00" transform="matrix(1.00, 0.00, 0.00, -1.00, -4.3, 64.9)"></path></g></g></g></svg>