<?xml version="1.0" encoding="UTF-8" standalone="no"?><svg xmlns="http://www.w3.org/2000/svg" xmlns:xlink="http://www.w3.org/1999/xlink" clip-rule="evenodd" stroke-miterlimit="4.00" viewBox="0 0 535 79"><desc>SVG generated by Keynote</desc><defs></defs><g transform="matrix(1.00, 0.00, -0.00, -1.00, 0.0, 79.0)"><text xml:space="preserve" font-family="Gotham-Book" font-size="100.0" fill="#FEFFFF" transform="matrix(1.00, 0.00, -0.00, -1.00, -3.0, 4.0)">T</text><text xml:space="preserve" font-family="Gotham-Book" font-size="100.0" fill="#FEFFFF" transform="matrix(1.00, 0.00, -0.00, -1.00, 60.2, 4.0)">h</text><text xml:space="preserve" font-family="Gotham-Book" font-size="100.0" fill="#FEFFFF" transform="matrix(1.00, 0.00, -0.00, -1.00, 121.8, 4.0)">a</text><text xml:space="preserve" font-family="Gotham-Book" font-size="100.0" fill="#FEFFFF" transform="matrix(1.00, 0.00, -0.00, -1.00, 179.7, 4.0)">n</text><text xml:space="preserve" font-family="Gotham-Book" font-size="100.0" fill="#FEFFFF" transform="matrix(1.00, 0.00, -0.00, -1.00, 241.3, 4.0)">k</text><text xml:space="preserve" font-family="Gotham-Book" font-size="100.0" fill="#FEFFFF" transform="matrix(1.00, 0.00, -0.00, -1.00, 298.2, 4.0)"> </text><text xml:space="preserve" font-family="Gotham-Book" font-size="100.0" fill="#FEFFFF" transform="matrix(1.00, 0.00, -0.00, -1.00, 328.2, 4.0)">Y</text><text xml:space="preserve" font-family="Gotham-Book" font-size="100.0" fill="#FEFFFF" transform="matrix(1.00, 0.00, -0.00, -1.00, 388.8, 4.0)">o</text><text xml:space="preserve" font-family="Gotham-Book" font-size="100.0" fill="#FEFFFF" transform="matrix(1.00, 0.00, -0.00, -1.00, 453.4, 4.0)">u</text><text xml:space="preserve" font-family="Gotham-Book" font-size="100.0" fill="#FEFFFF" transform="matrix(1.00, 0.00, -0.00, -1.00, 515.0, 4.0)">!</text></g></svg>