<?xml version="1.0" encoding="UTF-8" standalone="no"?><svg xmlns="http://www.w3.org/2000/svg" xmlns:xlink="http://www.w3.org/1999/xlink" clip-rule="evenodd" stroke-miterlimit="4.00" viewBox="0 0 258 65"><desc>SVG generated by Keynote</desc><defs></defs><g transform="matrix(1.00, 0.00, -0.00, -1.00, 0.0, 65.0)"><text xml:space="preserve" font-family="Gotham-Medium" font-size="32.0" fill="#FEFFFF" transform="matrix(1.00, 0.00, -0.00, -1.00, 80.0, 40.0)">B</text><text xml:space="preserve" font-family="Gotham-Medium" font-size="32.0" fill="#FEFFFF" transform="matrix(1.00, 0.00, -0.00, -1.00, 106.3, 40.0)">E</text><text xml:space="preserve" font-family="Gotham-Medium" font-size="32.0" fill="#FEFFFF" transform="matrix(1.00, 0.00, -0.00, -1.00, 130.9, 40.0)">T</text><text xml:space="preserve" font-family="Gotham-Medium" font-size="32.0" fill="#FEFFFF" transform="matrix(1.00, 0.00, -0.00, -1.00, 152.0, 40.0)">A</text><text xml:space="preserve" font-family="LucidaGrande-Bold" font-weight="bold" font-size="32.0" fill="#FEFFFF" transform="matrix(1.00, 0.00, -0.00, -1.00, 180.5, 40.0)"> </text><text xml:space="preserve" font-family="Gotham-Medium" font-size="32.0" fill="#FEFFFF" transform="matrix(1.00, 0.00, -0.00, -1.00, -1.0, 2.0)">D</text><text xml:space="preserve" font-family="Gotham-Medium" font-size="32.0" fill="#FEFFFF" transform="matrix(1.00, 0.00, -0.00, -1.00, 27.2, 2.0)">E</text><text xml:space="preserve" font-family="Gotham-Medium" font-size="32.0" fill="#FEFFFF" transform="matrix(1.00, 0.00, -0.00, -1.00, 51.9, 2.0)">P</text><text xml:space="preserve" font-family="Gotham-Medium" font-size="32.0" fill="#FEFFFF" transform="matrix(1.00, 0.00, -0.00, -1.00, 76.4, 2.0)">L</text><text xml:space="preserve" font-family="Gotham-Medium" font-size="32.0" fill="#FEFFFF" transform="matrix(1.00, 0.00, -0.00, -1.00, 98.2, 2.0)">O</text><text xml:space="preserve" font-family="Gotham-Medium" font-size="32.0" fill="#FEFFFF" transform="matrix(1.00, 0.00, -0.00, -1.00, 126.6, 2.0)">Y</text><text xml:space="preserve" font-family="Gotham-Medium" font-size="32.0" fill="#FEFFFF" transform="matrix(1.00, 0.00, -0.00, -1.00, 152.8, 2.0)">M</text><text xml:space="preserve" font-family="Gotham-Medium" font-size="32.0" fill="#FEFFFF" transform="matrix(1.00, 0.00, -0.00, -1.00, 183.7, 2.0)">E</text><text xml:space="preserve" font-family="Gotham-Medium" font-size="32.0" fill="#FEFFFF" transform="matrix(1.00, 0.00, -0.00, -1.00, 208.4, 2.0)">N</text><text xml:space="preserve" font-family="Gotham-Medium" font-size="32.0" fill="#FEFFFF" transform="matrix(1.00, 0.00, -0.00, -1.00, 236.9, 2.0)">T</text></g></svg>