<?xml version="1.0" encoding="UTF-8" standalone="no"?><svg xmlns="http://www.w3.org/2000/svg" xmlns:xlink="http://www.w3.org/1999/xlink" clip-rule="evenodd" stroke-miterlimit="4.00" viewBox="0 0 1024 768"><desc>SVG generated by Keynote</desc><defs></defs><g transform="matrix(1.00, 0.00, -0.00, -1.00, 0.0, 768.0)"><path d="M 0.0 768.0 L 1024.0 768.0 L 1024.0 0.0 L 0.0 0.0 Z M 0.0 768.0 " fill="#282E33"></path><text xml:space="preserve" font-family="Gotham-Medium" font-size="40.0" fill="#6DCFF8" transform="matrix(1.00, 0.00, -0.00, -1.00, 775.0, 34.0)">@</text><text xml:space="preserve" font-family="Gotham-Medium" font-size="40.0" fill="#6DCFF8" transform="matrix(1.00, 0.00, -0.00, -1.00, 814.2, 34.0)">a</text><text xml:space="preserve" font-family="Gotham-Medium" font-size="40.0" fill="#6DCFF8" transform="matrix(1.00, 0.00, -0.00, -1.00, 837.7, 34.0)">s</text><text xml:space="preserve" font-family="Gotham-Medium" font-size="40.0" fill="#6DCFF8" transform="matrix(1.00, 0.00, -0.00, -1.00, 857.7, 34.0)">f</text><text xml:space="preserve" font-family="Gotham-Medium" font-size="40.0" fill="#6DCFF8" transform="matrix(1.00, 0.00, -0.00, -1.00, 872.1, 34.0)">a</text><text xml:space="preserve" font-family="Gotham-Medium" font-size="40.0" fill="#6DCFF8" transform="matrix(1.00, 0.00, -0.00, -1.00, 895.6, 34.0)">l</text><text xml:space="preserve" font-family="Gotham-Medium" font-size="40.0" fill="#6DCFF8" transform="matrix(1.00, 0.00, -0.00, -1.00, 907.0, 34.0)">c</text><text xml:space="preserve" font-family="Gotham-Medium" font-size="40.0" fill="#6DCFF8" transform="matrix(1.00, 0.00, -0.00, -1.00, 929.3, 34.0)">o</text><text xml:space="preserve" font-family="Gotham-Medium" font-size="40.0" fill="#6DCFF8" transform="matrix(1.00, 0.00, -0.00, -1.00, 955.6, 34.0)">n</text><text xml:space="preserve" font-family="Gotham-Medium" font-size="40.0" fill="#6DCFF8" transform="matrix(1.00, 0.00, -0.00, -1.00, 980.4, 34.0)">e</text><g><clipPath id="clip-23"><path d="M 657.0 511.0 L 834.0 511.0 L 834.0 366.0 L 657.0 366.0 Z M 657.2 511.5 "></path></clipPath><g clip-path="url(#clip-23)"><g><clipPath id="clip-24"><path d="M 657.0 366.0 L 834.0 366.0 L 834.0 511.0 L 657.0 511.0 Z M 657.0 366.0 "></path></clipPath><g clip-path="url(#clip-24)"><g><g><clipPath id="clip-25"><path d="M 657.0 366.0 L 834.0 366.0 L 834.0 511.0 L 657.0 511.0 Z M 657.0 366.0 "></path></clipPath><g clip-path="url(#clip-25)"><path d="M 657.0 395.2 L 810.4 395.2 L 810.4 487.8 L 657.0 487.8 Z M 657.0 395.2 " fill="#E0E7EC"></path></g></g><g><clipPath id="clip-26"><path d="M 657.0 511.0 L 834.0 511.0 L 834.0 366.0 L 657.0 366.0 Z M 657.0 511.0 "></path></clipPath><g clip-path="url(#clip-26)"><g><clipPath id="clip-27"><path d="M 657.0 366.0 L 834.0 366.0 L 834.0 511.0 L 657.0 511.0 Z M 657.0 366.0 "></path></clipPath><g clip-path="url(#clip-27)"><path d="M 810.4 494.5 L 657.0 494.5 L 657.0 503.7 C 657.0 507.7 660.3 511.0 664.4 511.0 L 803.0 511.0 C 807.1 511.0 810.4 507.7 810.4 503.7 Z M 810.4 494.5 " fill="#60A6D9"></path></g></g></g></g><g><clipPath id="clip-28"><path d="M 657.0 511.0 L 834.0 511.0 L 834.0 366.0 L 657.0 366.0 Z M 657.0 511.0 "></path></clipPath><g clip-path="url(#clip-28)"><g><clipPath id="clip-29"><path d="M 657.0 366.0 L 834.0 366.0 L 834.0 511.0 L 657.0 511.0 Z M 657.0 366.0 "></path></clipPath><g clip-path="url(#clip-29)"><g><g><clipPath id="clip-30"><path d="M 730.6 366.0 L 834.0 366.0 L 834.0 442.5 L 730.6 442.5 Z M 730.6 366.0 "></path></clipPath><g clip-path="url(#clip-30)"><path d="M 785.7 377.0 C 773.4 377.0 763.5 386.9 763.5 399.0 C 763.5 411.1 773.4 421.0 785.7 421.0 C 797.9 421.0 807.8 411.1 807.8 399.0 C 807.8 386.9 797.9 377.0 785.7 377.0 M 824.8 433.3 L 824.4 433.3 L 824.4 442.5 L 801.2 442.5 L 801.2 433.3 L 739.7 433.3 C 734.7 433.3 730.6 429.2 730.6 424.2 L 730.6 375.1 C 730.6 370.1 734.7 366.0 739.7 366.0 L 824.8 366.0 C 829.9 366.0 834.0 370.1 834.0 375.1 L 834.0 424.2 C 834.0 429.2 829.9 433.3 824.8 433.3 " fill="#5EA8DC"></path></g></g></g></g></g></g></g></g></g></g></g></g><text xml:space="preserve" font-family="Gotham-Medium" font-size="32.0" fill="#FEFFFF" transform="matrix(1.00, 0.00, -0.00, -1.00, 617.0, 304.0)">A</text><text xml:space="preserve" font-family="Gotham-Medium" font-size="32.0" fill="#FEFFFF" transform="matrix(1.00, 0.00, -0.00, -1.00, 645.5, 304.0)">P</text><text xml:space="preserve" font-family="Gotham-Medium" font-size="32.0" fill="#FEFFFF" transform="matrix(1.00, 0.00, -0.00, -1.00, 670.1, 304.0)">P</text><text xml:space="preserve" font-family="Gotham-Medium" font-size="32.0" fill="#FEFFFF" transform="matrix(1.00, 0.00, -0.00, -1.00, 694.6, 304.0)"> </text><text xml:space="preserve" font-family="Gotham-Medium" font-size="32.0" fill="#FEFFFF" transform="matrix(1.00, 0.00, -0.00, -1.00, 707.4, 304.0)">S</text><text xml:space="preserve" font-family="Gotham-Medium" font-size="32.0" fill="#FEFFFF" transform="matrix(1.00, 0.00, -0.00, -1.00, 730.6, 304.0)">T</text><text xml:space="preserve" font-family="Gotham-Medium" font-size="32.0" fill="#FEFFFF" transform="matrix(1.00, 0.00, -0.00, -1.00, 753.4, 304.0)">O</text><text xml:space="preserve" font-family="Gotham-Medium" font-size="32.0" fill="#FEFFFF" transform="matrix(1.00, 0.00, -0.00, -1.00, 783.8, 304.0)">R</text><text xml:space="preserve" font-family="Gotham-Medium" font-size="32.0" fill="#FEFFFF" transform="matrix(1.00, 0.00, -0.00, -1.00, 810.1, 304.0)">E</text><text xml:space="preserve" font-family="Gotham-Medium" font-size="32.0" fill="#FEFFFF" transform="matrix(1.00, 0.00, -0.00, -1.00, 834.7, 304.0)"> </text><text xml:space="preserve" font-family="Gotham-Medium" font-size="32.0" fill="#FEFFFF" transform="matrix(1.00, 0.00, -0.00, -1.00, 847.5, 304.0)">&amp;</text><text xml:space="preserve" font-family="Gotham-Medium" font-size="32.0" fill="#FEFFFF" transform="matrix(1.00, 0.00, -0.00, -1.00, 873.0, 304.0)"> </text><text xml:space="preserve" font-family="Gotham-Medium" font-size="32.0" fill="#FEFFFF" transform="matrix(1.00, 0.00, -0.00, -1.00, 885.8, 304.0)"> </text><text xml:space="preserve" font-family="Gotham-Medium" font-size="32.0" fill="#FEFFFF" transform="matrix(1.00, 0.00, -0.00, -1.00, 607.0, 266.0)">G</text><text xml:space="preserve" font-family="Gotham-Medium" font-size="32.0" fill="#FEFFFF" transform="matrix(1.00, 0.00, -0.00, -1.00, 635.3, 266.0)">O</text><text xml:space="preserve" font-family="Gotham-Medium" font-size="32.0" fill="#FEFFFF" transform="matrix(1.00, 0.00, -0.00, -1.00, 665.7, 266.0)">O</text><text xml:space="preserve" font-family="Gotham-Medium" font-size="32.0" fill="#FEFFFF" transform="matrix(1.00, 0.00, -0.00, -1.00, 696.1, 266.0)">G</text><text xml:space="preserve" font-family="Gotham-Medium" font-size="32.0" fill="#FEFFFF" transform="matrix(1.00, 0.00, -0.00, -1.00, 724.4, 266.0)">L</text><text xml:space="preserve" font-family="Gotham-Medium" font-size="32.0" fill="#FEFFFF" transform="matrix(1.00, 0.00, -0.00, -1.00, 747.4, 266.0)">E</text><text xml:space="preserve" font-family="Gotham-Medium" font-size="32.0" fill="#FEFFFF" transform="matrix(1.00, 0.00, -0.00, -1.00, 772.0, 266.0)"> </text><text xml:space="preserve" font-family="Gotham-Medium" font-size="32.0" fill="#FEFFFF" transform="matrix(1.00, 0.00, -0.00, -1.00, 784.8, 266.0)">P</text><text xml:space="preserve" font-family="Gotham-Medium" font-size="32.0" fill="#FEFFFF" transform="matrix(1.00, 0.00, -0.00, -1.00, 809.4, 266.0)">L</text><text xml:space="preserve" font-family="Gotham-Medium" font-size="32.0" fill="#FEFFFF" transform="matrix(1.00, 0.00, -0.00, -1.00, 832.4, 266.0)">A</text><text xml:space="preserve" font-family="Gotham-Medium" font-size="32.0" fill="#FEFFFF" transform="matrix(1.00, 0.00, -0.00, -1.00, 857.4, 266.0)">Y</text><text xml:space="preserve" font-family="Gotham-Medium" font-size="32.0" fill="#FEFFFF" transform="matrix(1.00, 0.00, -0.00, -1.00, 883.5, 266.0)"> </text><text xml:space="preserve" font-family="Gotham-Medium" font-size="32.0" fill="#FEFFFF" transform="matrix(1.00, 0.00, -0.00, -1.00, 646.0, 228.0)">R</text><text xml:space="preserve" font-family="Gotham-Medium" font-size="32.0" fill="#FEFFFF" transform="matrix(1.00, 0.00, -0.00, -1.00, 672.3, 228.0)">E</text><text xml:space="preserve" font-family="Gotham-Medium" font-size="32.0" fill="#FEFFFF" transform="matrix(1.00, 0.00, -0.00, -1.00, 697.0, 228.0)">L</text><text xml:space="preserve" font-family="Gotham-Medium" font-size="32.0" fill="#FEFFFF" transform="matrix(1.00, 0.00, -0.00, -1.00, 720.0, 228.0)">E</text><text xml:space="preserve" font-family="Gotham-Medium" font-size="32.0" fill="#FEFFFF" transform="matrix(1.00, 0.00, -0.00, -1.00, 744.6, 228.0)">A</text><text xml:space="preserve" font-family="Gotham-Medium" font-size="32.0" fill="#FEFFFF" transform="matrix(1.00, 0.00, -0.00, -1.00, 772.7, 228.0)">S</text><text xml:space="preserve" font-family="Gotham-Medium" font-size="32.0" fill="#FEFFFF" transform="matrix(1.00, 0.00, -0.00, -1.00, 796.4, 228.0)">E</text><text xml:space="preserve" font-family="Gotham-Medium" font-size="32.0" fill="#FEFFFF" transform="matrix(1.00, 0.00, -0.00, -1.00, 821.0, 228.0)">S</text><text xml:space="preserve" font-family="Gotham-Medium" font-size="32.0" fill="#FEFFFF" transform="matrix(1.00, 0.00, -0.00, -1.00, 253.0, 288.0)">B</text><text xml:space="preserve" font-family="Gotham-Medium" font-size="32.0" fill="#FEFFFF" transform="matrix(1.00, 0.00, -0.00, -1.00, 279.3, 288.0)">E</text><text xml:space="preserve" font-family="Gotham-Medium" font-size="32.0" fill="#FEFFFF" transform="matrix(1.00, 0.00, -0.00, -1.00, 303.9, 288.0)">T</text><text xml:space="preserve" font-family="Gotham-Medium" font-size="32.0" fill="#FEFFFF" transform="matrix(1.00, 0.00, -0.00, -1.00, 325.0, 288.0)">A</text><text xml:space="preserve" font-family="LucidaGrande-Bold" font-weight="bold" font-size="32.0" fill="#FEFFFF" transform="matrix(1.00, 0.00, -0.00, -1.00, 353.5, 288.0)"> </text><text xml:space="preserve" font-family="Gotham-Medium" font-size="32.0" fill="#FEFFFF" transform="matrix(1.00, 0.00, -0.00, -1.00, 172.0, 250.0)">D</text><text xml:space="preserve" font-family="Gotham-Medium" font-size="32.0" fill="#FEFFFF" transform="matrix(1.00, 0.00, -0.00, -1.00, 200.2, 250.0)">E</text><text xml:space="preserve" font-family="Gotham-Medium" font-size="32.0" fill="#FEFFFF" transform="matrix(1.00, 0.00, -0.00, -1.00, 224.9, 250.0)">P</text><text xml:space="preserve" font-family="Gotham-Medium" font-size="32.0" fill="#FEFFFF" transform="matrix(1.00, 0.00, -0.00, -1.00, 249.4, 250.0)">L</text><text xml:space="preserve" font-family="Gotham-Medium" font-size="32.0" fill="#FEFFFF" transform="matrix(1.00, 0.00, -0.00, -1.00, 271.2, 250.0)">O</text><text xml:space="preserve" font-family="Gotham-Medium" font-size="32.0" fill="#FEFFFF" transform="matrix(1.00, 0.00, -0.00, -1.00, 299.6, 250.0)">Y</text><text xml:space="preserve" font-family="Gotham-Medium" font-size="32.0" fill="#FEFFFF" transform="matrix(1.00, 0.00, -0.00, -1.00, 325.8, 250.0)">M</text><text xml:space="preserve" font-family="Gotham-Medium" font-size="32.0" fill="#FEFFFF" transform="matrix(1.00, 0.00, -0.00, -1.00, 356.7, 250.0)">E</text><text xml:space="preserve" font-family="Gotham-Medium" font-size="32.0" fill="#FEFFFF" transform="matrix(1.00, 0.00, -0.00, -1.00, 381.4, 250.0)">N</text><text xml:space="preserve" font-family="Gotham-Medium" font-size="32.0" fill="#FEFFFF" transform="matrix(1.00, 0.00, -0.00, -1.00, 409.9, 250.0)">T</text><g><clipPath id="clip-31"><path d="M 225.0 356.0 L 381.0 356.0 L 381.0 527.0 L 225.0 527.0 Z M 225.0 356.0 "></path></clipPath><g clip-path="url(#clip-31)"><g><g><clipPath id="clip-32"><path d="M 225.0 527.0 L 381.0 527.0 L 381.0 356.0 L 225.0 356.0 Z M 225.0 527.0 "></path></clipPath><g clip-path="url(#clip-32)"><g><clipPath id="clip-33"><path d="M 225.0 356.0 L 381.0 356.0 L 381.0 527.0 L 225.0 527.0 Z M 225.0 356.0 "></path></clipPath><g clip-path="url(#clip-33)"><g><g><clipPath id="clip-34"><path d="M 303.3 397.1 L 381.0 397.1 L 381.0 474.9 L 303.3 474.9 Z M 303.3 397.1 "></path></clipPath><g clip-path="url(#clip-34)"><path d="M 359.7 427.7 C 355.1 418.0 343.5 413.8 333.9 418.4 C 324.2 423.0 320.1 434.6 324.6 444.3 C 329.2 454.0 340.8 458.2 350.5 453.6 C 360.1 449.0 364.3 437.4 359.7 427.7 M 314.4 457.9 L 318.6 451.8 C 317.9 450.7 317.2 449.5 316.5 448.2 C 315.9 446.9 315.5 445.6 315.1 444.2 L 307.6 443.7 C 305.4 443.5 303.6 441.7 303.5 439.4 L 303.3 436.4 C 303.2 434.2 304.8 432.2 307.0 431.8 L 314.4 430.5 C 314.9 427.8 315.9 425.1 317.2 422.6 L 312.3 416.9 C 310.9 415.2 310.9 412.7 312.4 411.0 L 314.4 408.8 C 315.9 407.1 318.5 406.8 320.3 408.1 L 326.4 412.4 C 327.6 411.7 328.8 410.9 330.0 410.3 C 331.3 409.7 332.6 409.2 334.0 408.8 L 334.5 401.4 C 334.7 399.1 336.5 397.3 338.8 397.2 L 341.7 397.1 C 344.0 397.0 346.0 398.6 346.4 400.8 L 347.7 408.2 C 350.4 408.7 353.1 409.7 355.5 411.0 L 361.2 406.1 C 362.9 404.6 365.4 404.7 367.1 406.2 L 369.3 408.2 C 371.0 409.7 371.3 412.2 370.0 414.1 L 365.7 420.2 C 366.5 421.4 367.2 422.6 367.8 423.8 C 368.4 425.1 368.9 426.5 369.3 427.8 L 376.7 428.3 C 379.0 428.5 380.7 430.3 380.8 432.6 L 381.0 435.6 C 381.1 437.4 380.0 439.1 378.4 439.9 C 378.1 440.0 377.7 440.2 377.3 440.2 L 369.9 441.5 C 369.4 444.3 368.5 446.9 367.1 449.4 L 372.0 455.1 C 373.5 456.8 373.4 459.3 371.9 461.0 L 369.9 463.2 C 369.5 463.7 369.0 464.0 368.5 464.3 C 367.1 465.0 365.4 464.9 364.0 463.9 L 357.9 459.6 C 356.8 460.4 355.6 461.1 354.3 461.7 C 353.0 462.3 351.7 462.8 350.4 463.2 L 349.8 470.6 C 349.7 472.3 348.7 473.7 347.3 474.4 C 346.8 474.6 346.2 474.8 345.6 474.8 L 342.6 474.9 C 340.3 475.1 338.4 473.5 338.0 471.2 L 336.7 463.9 C 333.9 463.3 331.3 462.4 328.8 461.0 L 323.2 465.9 C 322.8 466.2 322.5 466.4 322.2 466.6 C 320.6 467.3 318.6 467.1 317.2 465.9 L 315.0 463.8 C 313.3 462.3 313.1 459.8 314.4 457.9 " fill="#A9B5BF"></path></g></g></g></g></g></g></g><g><clipPath id="clip-35"><path d="M 225.0 527.0 L 381.0 527.0 L 381.0 356.0 L 225.0 356.0 Z M 225.0 527.0 "></path></clipPath><g clip-path="url(#clip-35)"><g><clipPath id="clip-36"><path d="M 225.0 356.0 L 381.0 356.0 L 381.0 527.0 L 225.0 527.0 Z M 225.0 356.0 "></path></clipPath><g clip-path="url(#clip-36)"><g><g><clipPath id="clip-37"><path d="M 225.0 390.3 L 325.7 390.3 L 325.7 491.2 L 225.0 491.2 Z M 225.0 390.3 "></path></clipPath><g clip-path="url(#clip-37)"><path d="M 292.4 457.5 C 301.6 448.0 301.4 432.9 292.0 423.6 C 282.6 414.4 267.4 414.6 258.2 424.1 C 249.0 433.5 249.2 448.7 258.7 457.9 C 268.1 467.1 283.2 466.9 292.4 457.5 M 249.6 480.7 L 251.9 471.9 C 250.6 470.9 249.3 469.9 248.1 468.7 C 247.0 467.5 245.9 466.3 244.9 465.0 L 236.1 467.5 C 232.7 468.6 229.0 466.8 227.6 463.5 L 226.0 459.8 C 224.6 456.5 225.8 452.6 228.9 450.8 L 236.8 446.2 C 236.4 442.9 236.3 439.6 236.7 436.3 L 228.7 431.9 C 225.5 430.1 224.2 426.3 225.5 422.9 L 227.0 419.2 C 228.3 415.9 232.0 414.0 235.5 415.0 L 244.3 417.3 C 245.2 416.0 246.3 414.7 247.4 413.5 C 248.6 412.3 249.9 411.2 251.1 410.2 L 248.6 401.4 C 247.6 398.0 249.3 394.3 252.7 392.9 L 256.3 391.3 C 259.6 389.9 263.5 391.1 265.3 394.3 L 269.9 402.2 C 273.2 401.7 276.5 401.7 279.7 402.0 L 284.2 394.0 C 285.9 390.9 289.7 389.5 293.1 390.8 L 296.8 392.3 C 300.1 393.7 302.0 397.3 301.0 400.8 L 298.7 409.6 C 300.0 410.6 301.3 411.6 302.5 412.8 C 303.7 414.0 304.8 415.2 305.8 416.5 L 314.5 414.0 C 318.0 413.0 321.7 414.7 323.1 418.1 L 324.7 421.7 C 325.8 424.5 325.2 427.5 323.2 429.6 C 322.8 430.0 322.3 430.4 321.7 430.7 L 313.8 435.4 C 314.3 438.6 314.3 441.9 314.0 445.2 L 322.0 449.6 C 325.1 451.4 326.5 455.2 325.1 458.6 L 323.7 462.3 C 323.3 463.2 322.8 464.0 322.2 464.6 C 320.4 466.4 317.8 467.2 315.2 466.6 L 306.4 464.3 C 305.4 465.6 304.4 466.8 303.2 468.0 C 302.0 469.2 300.8 470.3 299.5 471.3 L 302.1 480.1 C 302.8 482.6 302.1 485.3 300.3 487.1 C 299.7 487.8 298.9 488.3 298.0 488.7 L 294.3 490.3 C 291.0 491.7 287.2 490.4 285.3 487.3 L 280.7 479.4 C 277.5 479.8 274.2 479.9 270.9 479.5 L 266.5 487.5 C 266.2 488.1 265.8 488.6 265.4 489.1 C 263.4 491.1 260.3 491.8 257.6 490.7 L 253.9 489.2 C 250.5 487.9 248.7 484.2 249.6 480.7 " fill="#DEE5EB"></path></g></g></g><path d="M 0.0 0.0 C 10.1 9.4 23.6 15.1 38.5 15.1 C 57.0 15.1 73.5 6.2 83.8 -7.7 " fill="none" stroke="#5EA8DC" stroke-width="5.00" stroke-miterlimit="0.00" stroke-linecap="round" transform="matrix(1.35, 0.00, 0.00, 1.36, 251.3, 503.1)"></path><path d="M 260.9 498.2 L 241.6 492.1 L 246.0 512.0 Z M 260.9 498.2 " fill="#5EA8DC"></path><path d="M 0.0 0.0 C -9.5 -7.2 -21.3 -11.5 -34.1 -11.5 C -49.6 -11.5 -63.6 -5.3 -73.8 4.8 " fill="none" stroke="#5EA8DC" stroke-width="5.00" stroke-miterlimit="0.00" stroke-linecap="round" transform="matrix(1.35, 0.00, 0.00, 1.36, 349.6, 375.0)"></path><path d="M 340.4 380.7 L 360.3 384.9 L 353.9 365.6 Z M 340.4 380.7 " fill="#5EA8DC"></path></g></g></g></g></g></g></g></g></svg>