<?xml version="1.0" encoding="UTF-8" standalone="no"?><svg xmlns="http://www.w3.org/2000/svg" xmlns:xlink="http://www.w3.org/1999/xlink" clip-rule="evenodd" stroke-miterlimit="4.00" viewBox="0 0 281 103"><desc>SVG generated by Keynote</desc><defs></defs><g transform="matrix(1.00, 0.00, -0.00, -1.00, 0.0, 103.0)"><text xml:space="preserve" font-family="Gotham-Medium" font-size="32.0" fill="#FEFFFF" transform="matrix(1.00, 0.00, -0.00, -1.00, 10.0, 78.0)">A</text><text xml:space="preserve" font-family="Gotham-Medium" font-size="32.0" fill="#FEFFFF" transform="matrix(1.00, 0.00, -0.00, -1.00, 38.5, 78.0)">P</text><text xml:space="preserve" font-family="Gotham-Medium" font-size="32.0" fill="#FEFFFF" transform="matrix(1.00, 0.00, -0.00, -1.00, 63.1, 78.0)">P</text><text xml:space="preserve" font-family="Gotham-Medium" font-size="32.0" fill="#FEFFFF" transform="matrix(1.00, 0.00, -0.00, -1.00, 87.6, 78.0)"> </text><text xml:space="preserve" font-family="Gotham-Medium" font-size="32.0" fill="#FEFFFF" transform="matrix(1.00, 0.00, -0.00, -1.00, 100.4, 78.0)">S</text><text xml:space="preserve" font-family="Gotham-Medium" font-size="32.0" fill="#FEFFFF" transform="matrix(1.00, 0.00, -0.00, -1.00, 123.6, 78.0)">T</text><text xml:space="preserve" font-family="Gotham-Medium" font-size="32.0" fill="#FEFFFF" transform="matrix(1.00, 0.00, -0.00, -1.00, 146.4, 78.0)">O</text><text xml:space="preserve" font-family="Gotham-Medium" font-size="32.0" fill="#FEFFFF" transform="matrix(1.00, 0.00, -0.00, -1.00, 176.8, 78.0)">R</text><text xml:space="preserve" font-family="Gotham-Medium" font-size="32.0" fill="#FEFFFF" transform="matrix(1.00, 0.00, -0.00, -1.00, 203.1, 78.0)">E</text><text xml:space="preserve" font-family="Gotham-Medium" font-size="32.0" fill="#FEFFFF" transform="matrix(1.00, 0.00, -0.00, -1.00, 227.7, 78.0)"> </text><text xml:space="preserve" font-family="Gotham-Medium" font-size="32.0" fill="#FEFFFF" transform="matrix(1.00, 0.00, -0.00, -1.00, 240.5, 78.0)">&amp;</text><text xml:space="preserve" font-family="Gotham-Medium" font-size="32.0" fill="#FEFFFF" transform="matrix(1.00, 0.00, -0.00, -1.00, 266.0, 78.0)"> </text><text xml:space="preserve" font-family="Gotham-Medium" font-size="32.0" fill="#FEFFFF" transform="matrix(1.00, 0.00, -0.00, -1.00, 278.8, 78.0)"> </text><text xml:space="preserve" font-family="Gotham-Medium" font-size="32.0" fill="#FEFFFF" transform="matrix(1.00, 0.00, -0.00, -1.00, 0.0, 40.0)">G</text><text xml:space="preserve" font-family="Gotham-Medium" font-size="32.0" fill="#FEFFFF" transform="matrix(1.00, 0.00, -0.00, -1.00, 28.3, 40.0)">O</text><text xml:space="preserve" font-family="Gotham-Medium" font-size="32.0" fill="#FEFFFF" transform="matrix(1.00, 0.00, -0.00, -1.00, 58.7, 40.0)">O</text><text xml:space="preserve" font-family="Gotham-Medium" font-size="32.0" fill="#FEFFFF" transform="matrix(1.00, 0.00, -0.00, -1.00, 89.1, 40.0)">G</text><text xml:space="preserve" font-family="Gotham-Medium" font-size="32.0" fill="#FEFFFF" transform="matrix(1.00, 0.00, -0.00, -1.00, 117.4, 40.0)">L</text><text xml:space="preserve" font-family="Gotham-Medium" font-size="32.0" fill="#FEFFFF" transform="matrix(1.00, 0.00, -0.00, -1.00, 140.4, 40.0)">E</text><text xml:space="preserve" font-family="Gotham-Medium" font-size="32.0" fill="#FEFFFF" transform="matrix(1.00, 0.00, -0.00, -1.00, 165.0, 40.0)"> </text><text xml:space="preserve" font-family="Gotham-Medium" font-size="32.0" fill="#FEFFFF" transform="matrix(1.00, 0.00, -0.00, -1.00, 177.8, 40.0)">P</text><text xml:space="preserve" font-family="Gotham-Medium" font-size="32.0" fill="#FEFFFF" transform="matrix(1.00, 0.00, -0.00, -1.00, 202.4, 40.0)">L</text><text xml:space="preserve" font-family="Gotham-Medium" font-size="32.0" fill="#FEFFFF" transform="matrix(1.00, 0.00, -0.00, -1.00, 225.4, 40.0)">A</text><text xml:space="preserve" font-family="Gotham-Medium" font-size="32.0" fill="#FEFFFF" transform="matrix(1.00, 0.00, -0.00, -1.00, 250.4, 40.0)">Y</text><text xml:space="preserve" font-family="Gotham-Medium" font-size="32.0" fill="#FEFFFF" transform="matrix(1.00, 0.00, -0.00, -1.00, 276.5, 40.0)"> </text><text xml:space="preserve" font-family="Gotham-Medium" font-size="32.0" fill="#FEFFFF" transform="matrix(1.00, 0.00, -0.00, -1.00, 39.0, 2.0)">R</text><text xml:space="preserve" font-family="Gotham-Medium" font-size="32.0" fill="#FEFFFF" transform="matrix(1.00, 0.00, -0.00, -1.00, 65.3, 2.0)">E</text><text xml:space="preserve" font-family="Gotham-Medium" font-size="32.0" fill="#FEFFFF" transform="matrix(1.00, 0.00, -0.00, -1.00, 90.0, 2.0)">L</text><text xml:space="preserve" font-family="Gotham-Medium" font-size="32.0" fill="#FEFFFF" transform="matrix(1.00, 0.00, -0.00, -1.00, 113.0, 2.0)">E</text><text xml:space="preserve" font-family="Gotham-Medium" font-size="32.0" fill="#FEFFFF" transform="matrix(1.00, 0.00, -0.00, -1.00, 137.6, 2.0)">A</text><text xml:space="preserve" font-family="Gotham-Medium" font-size="32.0" fill="#FEFFFF" transform="matrix(1.00, 0.00, -0.00, -1.00, 165.7, 2.0)">S</text><text xml:space="preserve" font-family="Gotham-Medium" font-size="32.0" fill="#FEFFFF" transform="matrix(1.00, 0.00, -0.00, -1.00, 189.4, 2.0)">E</text><text xml:space="preserve" font-family="Gotham-Medium" font-size="32.0" fill="#FEFFFF" transform="matrix(1.00, 0.00, -0.00, -1.00, 214.0, 2.0)">S</text></g></svg>