<?xml version="1.0" encoding="UTF-8" standalone="no"?><svg xmlns="http://www.w3.org/2000/svg" xmlns:xlink="http://www.w3.org/1999/xlink" clip-rule="evenodd" stroke-miterlimit="4.00" viewBox="0 0 159 174"><desc>SVG generated by Keynote</desc><defs></defs><g transform="matrix(1.00, 0.00, -0.00, -1.00, 0.0, 174.0)"><g><clipPath id="clip-16"><path d="M 1.0 1.0 L 157.0 1.0 L 157.0 172.0 L 1.0 172.0 Z M 1.0 1.0 "></path></clipPath><g clip-path="url(#clip-16)"><g><g><clipPath id="clip-17"><path d="M 1.0 172.0 L 157.0 172.0 L 157.0 1.0 L 1.0 1.0 Z M 1.0 172.0 "></path></clipPath><g clip-path="url(#clip-17)"><g><clipPath id="clip-18"><path d="M 1.0 1.0 L 157.0 1.0 L 157.0 172.0 L 1.0 172.0 Z M 1.0 1.0 "></path></clipPath><g clip-path="url(#clip-18)"><g><g><clipPath id="clip-19"><path d="M 79.3 42.1 L 157.0 42.1 L 157.0 119.9 L 79.3 119.9 Z M 79.3 42.1 "></path></clipPath><g clip-path="url(#clip-19)"><path d="M 135.7 72.7 C 131.1 63.0 119.5 58.8 109.9 63.4 C 100.2 68.0 96.1 79.6 100.6 89.3 C 105.2 99.0 116.8 103.2 126.5 98.6 C 136.1 94.0 140.3 82.4 135.7 72.7 M 90.4 102.9 L 94.6 96.8 C 93.9 95.7 93.2 94.5 92.5 93.2 C 91.9 91.9 91.5 90.6 91.1 89.2 L 83.6 88.7 C 81.4 88.5 79.6 86.7 79.5 84.4 L 79.3 81.4 C 79.2 79.2 80.8 77.2 83.0 76.8 L 90.4 75.5 C 90.9 72.8 91.9 70.1 93.2 67.6 L 88.3 61.9 C 86.9 60.2 86.9 57.7 88.4 56.0 L 90.4 53.8 C 91.9 52.1 94.5 51.8 96.3 53.1 L 102.4 57.4 C 103.6 56.7 104.8 55.9 106.0 55.3 C 107.3 54.7 108.6 54.2 110.0 53.8 L 110.5 46.4 C 110.7 44.1 112.5 42.3 114.8 42.2 L 117.7 42.1 C 120.0 42.0 122.0 43.6 122.4 45.8 L 123.7 53.2 C 126.4 53.7 129.1 54.7 131.5 56.0 L 137.2 51.1 C 138.9 49.6 141.4 49.7 143.1 51.2 L 145.3 53.2 C 147.0 54.7 147.3 57.2 146.0 59.1 L 141.7 65.2 C 142.5 66.4 143.2 67.6 143.8 68.8 C 144.4 70.1 144.9 71.5 145.3 72.8 L 152.7 73.3 C 155.0 73.5 156.7 75.3 156.8 77.6 L 157.0 80.6 C 157.1 82.4 156.0 84.1 154.4 84.9 C 154.1 85.0 153.7 85.2 153.3 85.2 L 145.9 86.5 C 145.4 89.3 144.5 91.9 143.1 94.4 L 148.0 100.1 C 149.5 101.8 149.4 104.3 147.9 106.0 L 145.9 108.2 C 145.5 108.7 145.0 109.0 144.5 109.3 C 143.1 110.0 141.4 109.9 140.0 108.9 L 133.9 104.6 C 132.8 105.4 131.6 106.1 130.3 106.7 C 129.0 107.3 127.7 107.8 126.4 108.2 L 125.8 115.6 C 125.7 117.3 124.7 118.7 123.3 119.4 C 122.8 119.6 122.2 119.8 121.6 119.8 L 118.6 119.9 C 116.3 120.1 114.4 118.5 114.0 116.2 L 112.7 108.9 C 109.9 108.3 107.3 107.4 104.8 106.0 L 99.2 110.9 C 98.8 111.2 98.5 111.4 98.2 111.6 C 96.6 112.3 94.6 112.1 93.2 110.9 L 91.0 108.8 C 89.3 107.3 89.1 104.8 90.4 102.9 " fill="#A9B5BF"></path></g></g></g></g></g></g></g><g><clipPath id="clip-20"><path d="M 1.0 172.0 L 157.0 172.0 L 157.0 1.0 L 1.0 1.0 Z M 1.0 172.0 "></path></clipPath><g clip-path="url(#clip-20)"><g><clipPath id="clip-21"><path d="M 1.0 1.0 L 157.0 1.0 L 157.0 172.0 L 1.0 172.0 Z M 1.0 1.0 "></path></clipPath><g clip-path="url(#clip-21)"><g><g><clipPath id="clip-22"><path d="M 1.0 35.3 L 101.7 35.3 L 101.7 136.2 L 1.0 136.2 Z M 1.0 35.3 "></path></clipPath><g clip-path="url(#clip-22)"><path d="M 68.4 102.5 C 77.6 93.0 77.4 77.9 68.0 68.6 C 58.6 59.4 43.4 59.6 34.2 69.1 C 25.0 78.5 25.2 93.7 34.7 102.9 C 44.1 112.1 59.2 111.9 68.4 102.5 M 25.6 125.7 L 27.9 116.9 C 26.6 115.9 25.3 114.9 24.1 113.7 C 23.0 112.5 21.9 111.3 20.9 110.0 L 12.1 112.5 C 8.7 113.6 5.0 111.8 3.6 108.5 L 2.0 104.8 C 0.6 101.5 1.8 97.6 4.9 95.8 L 12.8 91.2 C 12.4 87.9 12.3 84.6 12.7 81.3 L 4.7 76.9 C 1.5 75.1 0.2 71.3 1.5 67.9 L 3.0 64.2 C 4.3 60.9 8.0 59.0 11.5 60.0 L 20.3 62.3 C 21.2 61.0 22.3 59.7 23.4 58.5 C 24.6 57.3 25.9 56.2 27.1 55.2 L 24.6 46.4 C 23.6 43.0 25.3 39.3 28.7 37.9 L 32.3 36.3 C 35.6 34.9 39.5 36.1 41.3 39.3 L 45.9 47.2 C 49.2 46.7 52.5 46.7 55.7 47.0 L 60.2 39.0 C 61.9 35.9 65.7 34.5 69.1 35.8 L 72.8 37.3 C 76.1 38.7 78.0 42.3 77.0 45.8 L 74.7 54.6 C 76.0 55.6 77.3 56.6 78.5 57.8 C 79.7 59.0 80.8 60.2 81.8 61.5 L 90.5 59.0 C 94.0 58.0 97.7 59.7 99.1 63.1 L 100.7 66.7 C 101.8 69.5 101.2 72.5 99.2 74.6 C 98.8 75.0 98.3 75.4 97.7 75.7 L 89.8 80.4 C 90.3 83.6 90.3 86.9 90.0 90.2 L 98.0 94.6 C 101.1 96.4 102.5 100.2 101.1 103.6 L 99.7 107.3 C 99.3 108.2 98.8 109.0 98.2 109.6 C 96.4 111.4 93.8 112.2 91.2 111.6 L 82.4 109.3 C 81.4 110.6 80.4 111.8 79.2 113.0 C 78.0 114.2 76.8 115.3 75.5 116.3 L 78.1 125.1 C 78.8 127.6 78.1 130.3 76.3 132.1 C 75.7 132.8 74.9 133.3 74.0 133.7 L 70.3 135.3 C 67.0 136.7 63.2 135.4 61.3 132.3 L 56.7 124.4 C 53.5 124.8 50.2 124.9 46.9 124.5 L 42.5 132.5 C 42.2 133.1 41.8 133.6 41.4 134.1 C 39.4 136.1 36.3 136.8 33.6 135.7 L 29.9 134.2 C 26.5 132.9 24.7 129.2 25.6 125.7 " fill="#DEE5EB"></path></g></g></g><path d="M 0.0 0.0 C 10.1 9.4 23.6 15.1 38.5 15.1 C 57.0 15.1 73.5 6.2 83.8 -7.7 " fill="none" stroke="#5EA8DC" stroke-width="5.00" stroke-miterlimit="0.00" stroke-linecap="round" transform="matrix(1.35, 0.00, 0.00, 1.36, 27.3, 148.1)"></path><path d="M 36.9 143.2 L 17.6 137.1 L 22.0 157.0 Z M 36.9 143.2 " fill="#5EA8DC"></path><path d="M 0.0 0.0 C -9.5 -7.2 -21.3 -11.5 -34.1 -11.5 C -49.6 -11.5 -63.6 -5.3 -73.8 4.8 " fill="none" stroke="#5EA8DC" stroke-width="5.00" stroke-miterlimit="0.00" stroke-linecap="round" transform="matrix(1.35, 0.00, 0.00, 1.36, 125.6, 20.0)"></path><path d="M 116.4 25.7 L 136.3 29.9 L 129.9 10.6 Z M 116.4 25.7 " fill="#5EA8DC"></path></g></g></g></g></g></g></g></g></svg>