<?xml version="1.0" encoding="UTF-8" standalone="no"?><svg xmlns="http://www.w3.org/2000/svg" xmlns:xlink="http://www.w3.org/1999/xlink" clip-rule="evenodd" stroke-miterlimit="4.00" viewBox="0 0 155 26"><desc>SVG generated by Keynote</desc><defs></defs><g transform="matrix(1.00, 0.00, -0.00, -1.00, 0.0, 26.0)"><text xml:space="preserve" font-family="Gotham-Book" font-size="30.0" fill="#51A7F9" transform="matrix(1.00, 0.00, -0.00, -1.00, -1.0, 2.0)">P</text><text xml:space="preserve" font-family="Gotham-Book" font-size="30.0" fill="#51A7F9" transform="matrix(1.00, 0.00, -0.00, -1.00, 19.2, 2.0)">u</text><text xml:space="preserve" font-family="Gotham-Book" font-size="30.0" fill="#51A7F9" transform="matrix(1.00, 0.00, -0.00, -1.00, 37.7, 2.0)">s</text><text xml:space="preserve" font-family="Gotham-Book" font-size="30.0" fill="#51A7F9" transform="matrix(1.00, 0.00, -0.00, -1.00, 52.6, 2.0)">h</text><text xml:space="preserve" font-family="Gotham-Book" font-size="30.0" fill="#51A7F9" transform="matrix(1.00, 0.00, -0.00, -1.00, 71.1, 2.0)"> </text><text xml:space="preserve" font-family="Gotham-Book" font-size="30.0" fill="#51A7F9" transform="matrix(1.00, 0.00, -0.00, -1.00, 80.1, 2.0)">c</text><text xml:space="preserve" font-family="Gotham-Book" font-size="30.0" fill="#51A7F9" transform="matrix(1.00, 0.00, -0.00, -1.00, 96.8, 2.0)">e</text><text xml:space="preserve" font-family="Gotham-Book" font-size="30.0" fill="#51A7F9" transform="matrix(1.00, 0.00, -0.00, -1.00, 114.5, 2.0)">r</text><text xml:space="preserve" font-family="Gotham-Book" font-size="30.0" fill="#51A7F9" transform="matrix(1.00, 0.00, -0.00, -1.00, 126.7, 2.0)">t</text><text xml:space="preserve" font-family="Gotham-Book" font-size="30.0" fill="#51A7F9" transform="matrix(1.00, 0.00, -0.00, -1.00, 138.8, 2.0)">s</text></g></svg>