<?xml version="1.0" encoding="UTF-8" standalone="no"?><svg xmlns="http://www.w3.org/2000/svg" xmlns:xlink="http://www.w3.org/1999/xlink" clip-rule="evenodd" stroke-miterlimit="4.00" viewBox="0 0 375 26"><desc>SVG generated by Keynote</desc><defs></defs><g transform="matrix(1.00, 0.00, -0.00, -1.00, 0.0, 26.0)"><text xml:space="preserve" font-family="Gotham-Book" font-size="30.0" fill="#51A7F9" transform="matrix(1.00, 0.00, -0.00, -1.00, 0.0, 3.0)">C</text><text xml:space="preserve" font-family="Gotham-Book" font-size="30.0" fill="#51A7F9" transform="matrix(1.00, 0.00, -0.00, -1.00, 22.1, 3.0)">u</text><text xml:space="preserve" font-family="Gotham-Book" font-size="30.0" fill="#51A7F9" transform="matrix(1.00, 0.00, -0.00, -1.00, 40.6, 3.0)">s</text><text xml:space="preserve" font-family="Gotham-Book" font-size="30.0" fill="#51A7F9" transform="matrix(1.00, 0.00, -0.00, -1.00, 55.3, 3.0)">t</text><text xml:space="preserve" font-family="Gotham-Book" font-size="30.0" fill="#51A7F9" transform="matrix(1.00, 0.00, -0.00, -1.00, 66.9, 3.0)">o</text><text xml:space="preserve" font-family="Gotham-Book" font-size="30.0" fill="#51A7F9" transform="matrix(1.00, 0.00, -0.00, -1.00, 86.3, 3.0)">m</text><text xml:space="preserve" font-family="Gotham-Book" font-size="30.0" fill="#51A7F9" transform="matrix(1.00, 0.00, -0.00, -1.00, 114.8, 3.0)">e</text><text xml:space="preserve" font-family="Gotham-Book" font-size="30.0" fill="#51A7F9" transform="matrix(1.00, 0.00, -0.00, -1.00, 132.6, 3.0)">r</text><text xml:space="preserve" font-family="Gotham-Book" font-size="30.0" fill="#51A7F9" transform="matrix(1.00, 0.00, -0.00, -1.00, 144.8, 3.0)"> </text><text xml:space="preserve" font-family="Gotham-Book" font-size="30.0" fill="#51A7F9" transform="matrix(1.00, 0.00, -0.00, -1.00, 153.8, 3.0)">e</text><text xml:space="preserve" font-family="Gotham-Book" font-size="30.0" fill="#51A7F9" transform="matrix(1.00, 0.00, -0.00, -1.00, 171.5, 3.0)">m</text><text xml:space="preserve" font-family="Gotham-Book" font-size="30.0" fill="#51A7F9" transform="matrix(1.00, 0.00, -0.00, -1.00, 200.0, 3.0)">a</text><text xml:space="preserve" font-family="Gotham-Book" font-size="30.0" fill="#51A7F9" transform="matrix(1.00, 0.00, -0.00, -1.00, 217.4, 3.0)">i</text><text xml:space="preserve" font-family="Gotham-Book" font-size="30.0" fill="#51A7F9" transform="matrix(1.00, 0.00, -0.00, -1.00, 225.3, 3.0)">l</text><text xml:space="preserve" font-family="Gotham-Book" font-size="30.0" fill="#51A7F9" transform="matrix(1.00, 0.00, -0.00, -1.00, 233.2, 3.0)"> </text><text xml:space="preserve" font-family="Gotham-Book" font-size="30.0" fill="#51A7F9" transform="matrix(1.00, 0.00, -0.00, -1.00, 242.2, 3.0)">o</text><text xml:space="preserve" font-family="Gotham-Book" font-size="30.0" fill="#51A7F9" transform="matrix(1.00, 0.00, -0.00, -1.00, 261.6, 3.0)">u</text><text xml:space="preserve" font-family="Gotham-Book" font-size="30.0" fill="#51A7F9" transform="matrix(1.00, 0.00, -0.00, -1.00, 280.1, 3.0)">t</text><text xml:space="preserve" font-family="Gotham-Book" font-size="30.0" fill="#51A7F9" transform="matrix(1.00, 0.00, -0.00, -1.00, 292.2, 3.0)">r</text><text xml:space="preserve" font-family="Gotham-Book" font-size="30.0" fill="#51A7F9" transform="matrix(1.00, 0.00, -0.00, -1.00, 303.7, 3.0)">e</text><text xml:space="preserve" font-family="Gotham-Book" font-size="30.0" fill="#51A7F9" transform="matrix(1.00, 0.00, -0.00, -1.00, 321.4, 3.0)">a</text><text xml:space="preserve" font-family="Gotham-Book" font-size="30.0" fill="#51A7F9" transform="matrix(1.00, 0.00, -0.00, -1.00, 338.8, 3.0)">c</text><text xml:space="preserve" font-family="Gotham-Book" font-size="30.0" fill="#51A7F9" transform="matrix(1.00, 0.00, -0.00, -1.00, 355.9, 3.0)">h</text></g></svg>