<?xml version="1.0" encoding="UTF-8" standalone="no"?><svg xmlns="http://www.w3.org/2000/svg" xmlns:xlink="http://www.w3.org/1999/xlink" clip-rule="evenodd" stroke-miterlimit="4.00" viewBox="0 0 462 30"><desc>SVG generated by Keynote</desc><defs></defs><g transform="matrix(1.00, 0.00, -0.00, -1.00, 0.0, 30.0)"><text xml:space="preserve" font-family="Gotham-Book" font-size="30.0" fill="#51A7F9" transform="matrix(1.00, 0.00, -0.00, -1.00, 0.0, 7.0)">C</text><text xml:space="preserve" font-family="Gotham-Book" font-size="30.0" fill="#51A7F9" transform="matrix(1.00, 0.00, -0.00, -1.00, 21.8, 7.0)">o</text><text xml:space="preserve" font-family="Gotham-Book" font-size="30.0" fill="#51A7F9" transform="matrix(1.00, 0.00, -0.00, -1.00, 41.2, 7.0)">n</text><text xml:space="preserve" font-family="Gotham-Book" font-size="30.0" fill="#51A7F9" transform="matrix(1.00, 0.00, -0.00, -1.00, 59.7, 7.0)">t</text><text xml:space="preserve" font-family="Gotham-Book" font-size="30.0" fill="#51A7F9" transform="matrix(1.00, 0.00, -0.00, -1.00, 71.8, 7.0)">i</text><text xml:space="preserve" font-family="Gotham-Book" font-size="30.0" fill="#51A7F9" transform="matrix(1.00, 0.00, -0.00, -1.00, 79.7, 7.0)">n</text><text xml:space="preserve" font-family="Gotham-Book" font-size="30.0" fill="#51A7F9" transform="matrix(1.00, 0.00, -0.00, -1.00, 98.2, 7.0)">u</text><text xml:space="preserve" font-family="Gotham-Book" font-size="30.0" fill="#51A7F9" transform="matrix(1.00, 0.00, -0.00, -1.00, 116.7, 7.0)">o</text><text xml:space="preserve" font-family="Gotham-Book" font-size="30.0" fill="#51A7F9" transform="matrix(1.00, 0.00, -0.00, -1.00, 136.1, 7.0)">u</text><text xml:space="preserve" font-family="Gotham-Book" font-size="30.0" fill="#51A7F9" transform="matrix(1.00, 0.00, -0.00, -1.00, 154.5, 7.0)">s</text><text xml:space="preserve" font-family="Gotham-Book" font-size="30.0" fill="#51A7F9" transform="matrix(1.00, 0.00, -0.00, -1.00, 169.5, 7.0)"> </text><text xml:space="preserve" font-family="Gotham-Book" font-size="30.0" fill="#51A7F9" transform="matrix(1.00, 0.00, -0.00, -1.00, 178.5, 7.0)">I</text><text xml:space="preserve" font-family="Gotham-Book" font-size="30.0" fill="#51A7F9" transform="matrix(1.00, 0.00, -0.00, -1.00, 187.2, 7.0)">n</text><text xml:space="preserve" font-family="Gotham-Book" font-size="30.0" fill="#51A7F9" transform="matrix(1.00, 0.00, -0.00, -1.00, 205.7, 7.0)">t</text><text xml:space="preserve" font-family="Gotham-Book" font-size="30.0" fill="#51A7F9" transform="matrix(1.00, 0.00, -0.00, -1.00, 217.3, 7.0)">e</text><text xml:space="preserve" font-family="Gotham-Book" font-size="30.0" fill="#51A7F9" transform="matrix(1.00, 0.00, -0.00, -1.00, 235.1, 7.0)">g</text><text xml:space="preserve" font-family="Gotham-Book" font-size="30.0" fill="#51A7F9" transform="matrix(1.00, 0.00, -0.00, -1.00, 255.0, 7.0)">r</text><text xml:space="preserve" font-family="Gotham-Book" font-size="30.0" fill="#51A7F9" transform="matrix(1.00, 0.00, -0.00, -1.00, 266.4, 7.0)">a</text><text xml:space="preserve" font-family="Gotham-Book" font-size="30.0" fill="#51A7F9" transform="matrix(1.00, 0.00, -0.00, -1.00, 283.6, 7.0)">t</text><text xml:space="preserve" font-family="Gotham-Book" font-size="30.0" fill="#51A7F9" transform="matrix(1.00, 0.00, -0.00, -1.00, 295.8, 7.0)">i</text><text xml:space="preserve" font-family="Gotham-Book" font-size="30.0" fill="#51A7F9" transform="matrix(1.00, 0.00, -0.00, -1.00, 303.7, 7.0)">o</text><text xml:space="preserve" font-family="Gotham-Book" font-size="30.0" fill="#51A7F9" transform="matrix(1.00, 0.00, -0.00, -1.00, 323.0, 7.0)">n</text><text xml:space="preserve" font-family="Gotham-Book" font-size="30.0" fill="#51A7F9" transform="matrix(1.00, 0.00, -0.00, -1.00, 341.5, 7.0)"> </text><text xml:space="preserve" font-family="Gotham-Book" font-size="30.0" fill="#51A7F9" transform="matrix(1.00, 0.00, -0.00, -1.00, 350.5, 7.0)">+</text><text xml:space="preserve" font-family="Gotham-Book" font-size="30.0" fill="#51A7F9" transform="matrix(1.00, 0.00, -0.00, -1.00, 369.3, 7.0)"> </text><text xml:space="preserve" font-family="Gotham-Book" font-size="30.0" fill="#51A7F9" transform="matrix(1.00, 0.00, -0.00, -1.00, 378.3, 7.0)">s</text><text xml:space="preserve" font-family="Gotham-Book" font-size="30.0" fill="#51A7F9" transform="matrix(1.00, 0.00, -0.00, -1.00, 393.2, 7.0)">e</text><text xml:space="preserve" font-family="Gotham-Book" font-size="30.0" fill="#51A7F9" transform="matrix(1.00, 0.00, -0.00, -1.00, 411.0, 7.0)">t</text><text xml:space="preserve" font-family="Gotham-Book" font-size="30.0" fill="#51A7F9" transform="matrix(1.00, 0.00, -0.00, -1.00, 423.1, 7.0)">u</text><text xml:space="preserve" font-family="Gotham-Book" font-size="30.0" fill="#51A7F9" transform="matrix(1.00, 0.00, -0.00, -1.00, 441.6, 7.0)">p</text></g></svg>