<?xml version="1.0" encoding="UTF-8" standalone="no"?><svg xmlns="http://www.w3.org/2000/svg" xmlns:xlink="http://www.w3.org/1999/xlink" clip-rule="evenodd" stroke-miterlimit="4.00" viewBox="0 0 360 33"><desc>SVG generated by Keynote</desc><defs></defs><g transform="matrix(1.00, 0.00, -0.00, -1.00, 0.0, 33.0)"><text xml:space="preserve" font-family="Gotham-Book" font-size="34.0" fill="#51A7F9" transform="matrix(1.00, 0.00, -0.00, -1.00, -1.0, 7.0)">R</text><text xml:space="preserve" font-family="Gotham-Book" font-size="34.0" fill="#51A7F9" transform="matrix(1.00, 0.00, -0.00, -1.00, 23.2, 7.0)">e</text><text xml:space="preserve" font-family="Gotham-Book" font-size="34.0" fill="#51A7F9" transform="matrix(1.00, 0.00, -0.00, -1.00, 42.5, 7.0)">v</text><text xml:space="preserve" font-family="Gotham-Book" font-size="34.0" fill="#51A7F9" transform="matrix(1.00, 0.00, -0.00, -1.00, 62.5, 7.0)">i</text><text xml:space="preserve" font-family="Gotham-Book" font-size="34.0" fill="#51A7F9" transform="matrix(1.00, 0.00, -0.00, -1.00, 71.4, 7.0)">e</text><text xml:space="preserve" font-family="Gotham-Book" font-size="34.0" fill="#51A7F9" transform="matrix(1.00, 0.00, -0.00, -1.00, 90.7, 7.0)">w</text><text xml:space="preserve" font-family="Gotham-Book" font-size="34.0" fill="#51A7F9" transform="matrix(1.00, 0.00, -0.00, -1.00, 120.0, 7.0)"> </text><text xml:space="preserve" font-family="Gotham-Book" font-size="34.0" fill="#51A7F9" transform="matrix(1.00, 0.00, -0.00, -1.00, 130.2, 7.0)">i</text><text xml:space="preserve" font-family="Gotham-Book" font-size="34.0" fill="#51A7F9" transform="matrix(1.00, 0.00, -0.00, -1.00, 139.1, 7.0)">n</text><text xml:space="preserve" font-family="Gotham-Book" font-size="34.0" fill="#51A7F9" transform="matrix(1.00, 0.00, -0.00, -1.00, 160.1, 7.0)">-</text><text xml:space="preserve" font-family="Gotham-Book" font-size="34.0" fill="#51A7F9" transform="matrix(1.00, 0.00, -0.00, -1.00, 173.9, 7.0)">a</text><text xml:space="preserve" font-family="Gotham-Book" font-size="34.0" fill="#51A7F9" transform="matrix(1.00, 0.00, -0.00, -1.00, 193.6, 7.0)">p</text><text xml:space="preserve" font-family="Gotham-Book" font-size="34.0" fill="#51A7F9" transform="matrix(1.00, 0.00, -0.00, -1.00, 216.2, 7.0)">p</text><text xml:space="preserve" font-family="Gotham-Book" font-size="34.0" fill="#51A7F9" transform="matrix(1.00, 0.00, -0.00, -1.00, 238.8, 7.0)"> </text><text xml:space="preserve" font-family="Gotham-Book" font-size="34.0" fill="#51A7F9" transform="matrix(1.00, 0.00, -0.00, -1.00, 249.0, 7.0)">e</text><text xml:space="preserve" font-family="Gotham-Book" font-size="34.0" fill="#51A7F9" transform="matrix(1.00, 0.00, -0.00, -1.00, 268.2, 7.0)">v</text><text xml:space="preserve" font-family="Gotham-Book" font-size="34.0" fill="#51A7F9" transform="matrix(1.00, 0.00, -0.00, -1.00, 287.2, 7.0)">e</text><text xml:space="preserve" font-family="Gotham-Book" font-size="34.0" fill="#51A7F9" transform="matrix(1.00, 0.00, -0.00, -1.00, 307.3, 7.0)">n</text><text xml:space="preserve" font-family="Gotham-Book" font-size="34.0" fill="#51A7F9" transform="matrix(1.00, 0.00, -0.00, -1.00, 328.3, 7.0)">t</text><text xml:space="preserve" font-family="Gotham-Book" font-size="34.0" fill="#51A7F9" transform="matrix(1.00, 0.00, -0.00, -1.00, 342.0, 7.0)">s</text></g></svg>