<?xml version="1.0" encoding="UTF-8" standalone="no"?><svg xmlns="http://www.w3.org/2000/svg" xmlns:xlink="http://www.w3.org/1999/xlink" clip-rule="evenodd" stroke-miterlimit="4.00" viewBox="0 0 200 219"><desc>SVG generated by Keynote</desc><defs></defs><g transform="matrix(1.00, 0.00, -0.00, -1.00, 0.0, 219.0)"><g><clipPath id="clip-131"><path d="M 1.0 2.0 L 199.0 2.0 L 199.0 218.0 L 1.0 218.0 Z M 1.0 2.0 "></path></clipPath><g clip-path="url(#clip-131)"><g><g><clipPath id="clip-132"><path d="M 1.0 218.0 L 199.0 218.0 L 199.0 2.0 L 1.0 2.0 Z M 1.0 218.0 "></path></clipPath><g clip-path="url(#clip-132)"><g><clipPath id="clip-133"><path d="M 1.0 2.0 L 199.0 2.0 L 199.0 218.0 L 1.0 218.0 Z M 1.0 2.0 "></path></clipPath><g clip-path="url(#clip-133)"><g><g><clipPath id="clip-134"><path d="M 100.4 53.9 L 199.0 53.9 L 199.0 152.2 L 100.4 152.2 Z M 100.4 53.9 "></path></clipPath><g clip-path="url(#clip-134)"><path d="M 172.0 92.6 C 166.2 80.3 151.5 75.1 139.2 80.9 C 126.9 86.7 121.7 101.3 127.5 113.6 C 133.3 125.8 148.0 131.1 160.3 125.3 C 172.5 119.5 177.8 104.8 172.0 92.6 M 114.4 130.8 L 119.9 123.0 C 118.9 121.6 118.0 120.1 117.2 118.4 C 116.4 116.8 115.8 115.1 115.3 113.5 L 105.9 112.8 C 103.0 112.5 100.8 110.2 100.6 107.4 L 100.4 103.6 C 100.3 100.8 102.3 98.2 105.1 97.7 L 114.5 96.1 C 115.2 92.6 116.4 89.3 118.0 86.2 L 111.8 79.0 C 110.0 76.8 110.0 73.6 111.9 71.5 L 114.5 68.7 C 116.4 66.6 119.6 66.2 122.0 67.8 L 129.7 73.3 C 131.2 72.3 132.7 71.4 134.3 70.6 C 135.9 69.8 137.6 69.3 139.3 68.7 L 140.0 59.3 C 140.2 56.5 142.5 54.2 145.4 54.1 L 149.2 53.9 C 152.0 53.8 154.6 55.8 155.0 58.6 L 156.7 67.9 C 160.2 68.6 163.5 69.8 166.7 71.5 L 173.9 65.3 C 176.0 63.4 179.2 63.5 181.4 65.4 L 184.2 67.9 C 186.3 69.8 186.7 73.0 185.0 75.4 L 179.6 83.1 C 180.6 84.6 181.5 86.1 182.2 87.7 C 183.0 89.3 183.6 91.0 184.1 92.7 L 193.6 93.4 C 196.4 93.6 198.7 95.9 198.8 98.8 L 199.0 102.5 C 199.1 104.9 197.8 107.0 195.8 107.9 C 195.3 108.1 194.8 108.3 194.3 108.4 L 185.0 110.0 C 184.3 113.5 183.1 116.9 181.4 120.0 L 187.6 127.2 C 189.5 129.3 189.4 132.5 187.5 134.7 L 184.9 137.5 C 184.4 138.0 183.8 138.5 183.2 138.8 C 181.4 139.6 179.2 139.5 177.5 138.3 L 169.7 132.9 C 168.3 133.8 166.7 134.8 165.1 135.5 C 163.5 136.3 161.8 136.9 160.1 137.4 L 159.4 146.8 C 159.3 148.9 158.0 150.7 156.2 151.5 C 155.5 151.8 154.8 152.0 154.0 152.1 L 150.3 152.2 C 147.4 152.4 144.9 150.4 144.4 147.6 L 142.7 138.2 C 139.3 137.6 135.9 136.4 132.8 134.7 L 125.6 140.9 C 125.2 141.2 124.8 141.5 124.3 141.7 C 122.3 142.6 119.8 142.3 118.1 140.8 L 115.3 138.2 C 113.1 136.3 112.8 133.1 114.4 130.8 " fill="#A9B5BF"></path></g></g></g></g></g></g></g><g><clipPath id="clip-135"><path d="M 1.0 218.0 L 199.0 218.0 L 199.0 2.0 L 1.0 2.0 Z M 1.0 218.0 "></path></clipPath><g clip-path="url(#clip-135)"><g><clipPath id="clip-136"><path d="M 1.0 2.0 L 199.0 2.0 L 199.0 218.0 L 1.0 218.0 Z M 1.0 2.0 "></path></clipPath><g clip-path="url(#clip-136)"><g><g><clipPath id="clip-137"><path d="M 1.0 45.3 L 128.8 45.3 L 128.8 172.8 L 1.0 172.8 Z M 1.0 45.3 "></path></clipPath><g clip-path="url(#clip-137)"><path d="M 86.6 130.2 C 98.2 118.2 98.0 99.1 86.0 87.4 C 74.0 75.8 54.9 76.0 43.2 88.0 C 31.5 99.9 31.8 119.1 43.7 130.7 C 55.7 142.4 74.9 142.1 86.6 130.2 M 32.2 159.6 L 35.2 148.4 C 33.5 147.2 31.9 145.9 30.4 144.4 C 28.9 142.9 27.5 141.3 26.2 139.7 L 15.1 142.9 C 10.7 144.2 6.1 142.0 4.2 137.8 L 2.3 133.1 C 0.4 128.9 2.1 124.0 6.0 121.7 L 16.0 115.9 C 15.4 111.8 15.4 107.6 15.8 103.5 L 5.7 97.9 C 1.7 95.7 -0.0 90.8 1.6 86.6 L 3.5 81.9 C 5.2 77.6 9.8 75.3 14.3 76.5 L 25.4 79.4 C 26.7 77.8 28.0 76.1 29.5 74.6 C 31.0 73.1 32.5 71.8 34.2 70.5 L 31.0 59.4 C 29.7 55.0 31.9 50.3 36.1 48.5 L 40.7 46.6 C 45.0 44.8 49.9 46.4 52.2 50.3 L 58.0 60.3 C 62.2 59.7 66.3 59.7 70.5 60.1 L 76.1 50.0 C 78.3 46.0 83.2 44.3 87.4 46.0 L 92.1 47.9 C 96.4 49.6 98.7 54.2 97.5 58.6 L 94.6 69.7 C 96.2 71.0 97.9 72.3 99.4 73.8 C 100.9 75.2 102.3 76.8 103.6 78.4 L 114.7 75.3 C 119.1 74.0 123.7 76.2 125.5 80.4 L 127.5 85.0 C 129.0 88.5 128.2 92.4 125.7 94.9 C 125.1 95.5 124.5 96.0 123.7 96.4 L 113.8 102.3 C 114.3 106.4 114.4 110.5 113.9 114.7 L 124.1 120.3 C 128.1 122.5 129.8 127.3 128.1 131.6 L 126.2 136.3 C 125.8 137.4 125.1 138.4 124.3 139.2 C 122.1 141.5 118.7 142.5 115.5 141.7 L 104.3 138.8 C 103.1 140.4 101.7 142.0 100.3 143.5 C 98.8 145.0 97.2 146.4 95.6 147.7 L 98.8 158.8 C 99.7 162.0 98.8 165.3 96.6 167.6 C 95.8 168.4 94.8 169.1 93.7 169.6 L 89.0 171.6 C 84.8 173.4 79.9 171.8 77.6 167.8 L 71.7 157.8 C 67.6 158.4 63.4 158.5 59.3 158.0 L 53.7 168.1 C 53.3 168.9 52.8 169.5 52.2 170.1 C 49.7 172.6 45.8 173.6 42.3 172.2 L 37.7 170.3 C 33.4 168.6 31.1 164.0 32.2 159.6 " fill="#DEE5EB"></path></g></g></g><path d="M 0.0 0.0 C 10.1 9.4 23.6 15.1 38.5 15.1 C 57.0 15.1 73.5 6.2 83.8 -7.7 " fill="none" stroke="#5EA8DC" stroke-width="5.00" stroke-miterlimit="0.00" stroke-linecap="round" transform="matrix(1.72, 0.00, 0.00, 1.72, 34.3, 187.8)"></path><path d="M 46.6 181.7 L 22.0 174.0 L 27.6 199.0 Z M 46.6 181.7 " fill="#5EA8DC"></path><path d="M 0.0 0.0 C -9.5 -7.2 -21.3 -11.5 -34.1 -11.5 C -49.6 -11.5 -63.6 -5.3 -73.8 4.8 " fill="none" stroke="#5EA8DC" stroke-width="5.00" stroke-miterlimit="0.00" stroke-linecap="round" transform="matrix(1.72, 0.00, 0.00, 1.72, 159.1, 26.0)"></path><path d="M 147.5 33.3 L 172.7 38.5 L 164.7 14.1 Z M 147.5 33.3 " fill="#5EA8DC"></path></g></g></g></g></g></g></g></g></svg>