<?xml version="1.0" encoding="UTF-8" standalone="no"?><svg xmlns="http://www.w3.org/2000/svg" xmlns:xlink="http://www.w3.org/1999/xlink" clip-rule="evenodd" stroke-miterlimit="4.00" viewBox="0 0 1024 768"><desc>SVG generated by Keynote</desc><defs></defs><g transform="matrix(1.00, 0.00, -0.00, -1.00, 0.0, 768.0)"><path d="M 0.0 768.0 L 1024.0 768.0 L 1024.0 0.0 L 0.0 0.0 Z M 0.0 768.0 " fill="#282E33"></path><text xml:space="preserve" font-family="Gotham-Medium" font-size="40.0" fill="#6DCFF8" transform="matrix(1.00, 0.00, -0.00, -1.00, 775.0, 34.0)">@</text><text xml:space="preserve" font-family="Gotham-Medium" font-size="40.0" fill="#6DCFF8" transform="matrix(1.00, 0.00, -0.00, -1.00, 814.2, 34.0)">a</text><text xml:space="preserve" font-family="Gotham-Medium" font-size="40.0" fill="#6DCFF8" transform="matrix(1.00, 0.00, -0.00, -1.00, 837.7, 34.0)">s</text><text xml:space="preserve" font-family="Gotham-Medium" font-size="40.0" fill="#6DCFF8" transform="matrix(1.00, 0.00, -0.00, -1.00, 857.7, 34.0)">f</text><text xml:space="preserve" font-family="Gotham-Medium" font-size="40.0" fill="#6DCFF8" transform="matrix(1.00, 0.00, -0.00, -1.00, 872.1, 34.0)">a</text><text xml:space="preserve" font-family="Gotham-Medium" font-size="40.0" fill="#6DCFF8" transform="matrix(1.00, 0.00, -0.00, -1.00, 895.6, 34.0)">l</text><text xml:space="preserve" font-family="Gotham-Medium" font-size="40.0" fill="#6DCFF8" transform="matrix(1.00, 0.00, -0.00, -1.00, 907.0, 34.0)">c</text><text xml:space="preserve" font-family="Gotham-Medium" font-size="40.0" fill="#6DCFF8" transform="matrix(1.00, 0.00, -0.00, -1.00, 929.3, 34.0)">o</text><text xml:space="preserve" font-family="Gotham-Medium" font-size="40.0" fill="#6DCFF8" transform="matrix(1.00, 0.00, -0.00, -1.00, 955.6, 34.0)">n</text><text xml:space="preserve" font-family="Gotham-Medium" font-size="40.0" fill="#6DCFF8" transform="matrix(1.00, 0.00, -0.00, -1.00, 980.4, 34.0)">e</text><text xml:space="preserve" font-family="Gotham-Medium" font-size="52.0" fill="#FEFFFF" transform="matrix(1.00, 0.00, -0.00, -1.00, 117.0, 431.0)">H</text><text xml:space="preserve" font-family="Gotham-Medium" font-size="52.0" fill="#FEFFFF" transform="matrix(1.00, 0.00, -0.00, -1.00, 161.7, 431.0)">O</text><text xml:space="preserve" font-family="Gotham-Medium" font-size="52.0" fill="#FEFFFF" transform="matrix(1.00, 0.00, -0.00, -1.00, 209.1, 431.0)">W</text><text xml:space="preserve" font-family="Gotham-Medium" font-size="52.0" fill="#FEFFFF" transform="matrix(1.00, 0.00, -0.00, -1.00, 272.4, 431.0)"> </text><text xml:space="preserve" font-family="Gotham-Medium" font-size="52.0" fill="#FEFFFF" transform="matrix(1.00, 0.00, -0.00, -1.00, 293.2, 431.0)">W</text><text xml:space="preserve" font-family="Gotham-Medium" font-size="52.0" fill="#FEFFFF" transform="matrix(1.00, 0.00, -0.00, -1.00, 354.4, 431.0)">O</text><text xml:space="preserve" font-family="Gotham-Medium" font-size="52.0" fill="#FEFFFF" transform="matrix(1.00, 0.00, -0.00, -1.00, 403.8, 431.0)">U</text><text xml:space="preserve" font-family="Gotham-Medium" font-size="52.0" fill="#FEFFFF" transform="matrix(1.00, 0.00, -0.00, -1.00, 448.4, 431.0)">L</text><text xml:space="preserve" font-family="Gotham-Medium" font-size="52.0" fill="#FEFFFF" transform="matrix(1.00, 0.00, -0.00, -1.00, 485.8, 431.0)">D</text><text xml:space="preserve" font-family="Gotham-Medium" font-size="52.0" fill="#FEFFFF" transform="matrix(1.00, 0.00, -0.00, -1.00, 531.6, 431.0)"> </text><text xml:space="preserve" font-family="Gotham-Medium" font-size="52.0" fill="#FEFFFF" transform="matrix(1.00, 0.00, -0.00, -1.00, 552.4, 431.0)">Y</text><text xml:space="preserve" font-family="Gotham-Medium" font-size="52.0" fill="#FEFFFF" transform="matrix(1.00, 0.00, -0.00, -1.00, 591.8, 431.0)">O</text><text xml:space="preserve" font-family="Gotham-Medium" font-size="52.0" fill="#FEFFFF" transform="matrix(1.00, 0.00, -0.00, -1.00, 641.2, 431.0)">U</text><text xml:space="preserve" font-family="Gotham-Medium" font-size="52.0" fill="#FEFFFF" transform="matrix(1.00, 0.00, -0.00, -1.00, 685.7, 431.0)"> </text><text xml:space="preserve" font-family="Gotham-Medium" font-size="52.0" fill="#FEFFFF" transform="matrix(1.00, 0.00, -0.00, -1.00, 706.5, 431.0)">L</text><text xml:space="preserve" font-family="Gotham-Medium" font-size="52.0" fill="#FEFFFF" transform="matrix(1.00, 0.00, -0.00, -1.00, 743.9, 431.0)">I</text><text xml:space="preserve" font-family="Gotham-Medium" font-size="52.0" fill="#FEFFFF" transform="matrix(1.00, 0.00, -0.00, -1.00, 765.6, 431.0)">K</text><text xml:space="preserve" font-family="Gotham-Medium" font-size="52.0" fill="#FEFFFF" transform="matrix(1.00, 0.00, -0.00, -1.00, 808.5, 431.0)">E</text><text xml:space="preserve" font-family="Gotham-Medium" font-size="52.0" fill="#FEFFFF" transform="matrix(1.00, 0.00, -0.00, -1.00, 848.5, 431.0)"> </text><text xml:space="preserve" font-family="Gotham-Medium" font-size="52.0" fill="#FEFFFF" transform="matrix(1.00, 0.00, -0.00, -1.00, 869.3, 431.0)">2</text><text xml:space="preserve" font-family="Gotham-Medium" font-size="52.0" fill="#FEFFFF" transform="matrix(1.00, 0.00, -0.00, -1.00, 906.4, 431.0)"> </text><text xml:space="preserve" font-family="Gotham-Medium" font-size="52.0" fill="#FEFFFF" transform="matrix(1.00, 0.00, -0.00, -1.00, 75.0, 369.0)">E</text><text xml:space="preserve" font-family="Gotham-Medium" font-size="52.0" fill="#FEFFFF" transform="matrix(1.00, 0.00, -0.00, -1.00, 115.0, 369.0)">X</text><text xml:space="preserve" font-family="Gotham-Medium" font-size="52.0" fill="#FEFFFF" transform="matrix(1.00, 0.00, -0.00, -1.00, 158.1, 369.0)">T</text><text xml:space="preserve" font-family="Gotham-Medium" font-size="52.0" fill="#FEFFFF" transform="matrix(1.00, 0.00, -0.00, -1.00, 197.0, 369.0)">R</text><text xml:space="preserve" font-family="Gotham-Medium" font-size="52.0" fill="#FEFFFF" transform="matrix(1.00, 0.00, -0.00, -1.00, 239.8, 369.0)">A</text><text xml:space="preserve" font-family="Gotham-Medium" font-size="52.0" fill="#FEFFFF" transform="matrix(1.00, 0.00, -0.00, -1.00, 286.1, 369.0)"> </text><text xml:space="preserve" font-family="Gotham-Medium" font-size="52.0" fill="#FEFFFF" transform="matrix(1.00, 0.00, -0.00, -1.00, 306.9, 369.0)">H</text><text xml:space="preserve" font-family="Gotham-Medium" font-size="52.0" fill="#FEFFFF" transform="matrix(1.00, 0.00, -0.00, -1.00, 351.6, 369.0)">O</text><text xml:space="preserve" font-family="Gotham-Medium" font-size="52.0" fill="#FEFFFF" transform="matrix(1.00, 0.00, -0.00, -1.00, 401.0, 369.0)">U</text><text xml:space="preserve" font-family="Gotham-Medium" font-size="52.0" fill="#FEFFFF" transform="matrix(1.00, 0.00, -0.00, -1.00, 445.6, 369.0)">R</text><text xml:space="preserve" font-family="Gotham-Medium" font-size="52.0" fill="#FEFFFF" transform="matrix(1.00, 0.00, -0.00, -1.00, 488.4, 369.0)">S</text><text xml:space="preserve" font-family="Gotham-Medium" font-size="52.0" fill="#FEFFFF" transform="matrix(1.00, 0.00, -0.00, -1.00, 526.9, 369.0)"> </text><text xml:space="preserve" font-family="Gotham-Medium" font-size="52.0" fill="#FEFFFF" transform="matrix(1.00, 0.00, -0.00, -1.00, 547.7, 369.0)">B</text><text xml:space="preserve" font-family="Gotham-Medium" font-size="52.0" fill="#FEFFFF" transform="matrix(1.00, 0.00, -0.00, -1.00, 590.4, 369.0)">A</text><text xml:space="preserve" font-family="Gotham-Medium" font-size="52.0" fill="#FEFFFF" transform="matrix(1.00, 0.00, -0.00, -1.00, 634.5, 369.0)">C</text><text xml:space="preserve" font-family="Gotham-Medium" font-size="52.0" fill="#FEFFFF" transform="matrix(1.00, 0.00, -0.00, -1.00, 678.0, 369.0)">K</text><text xml:space="preserve" font-family="Gotham-Medium" font-size="52.0" fill="#FEFFFF" transform="matrix(1.00, 0.00, -0.00, -1.00, 720.9, 369.0)"> </text><text xml:space="preserve" font-family="Gotham-Medium" font-size="52.0" fill="#FEFFFF" transform="matrix(1.00, 0.00, -0.00, -1.00, 741.7, 369.0)">E</text><text xml:space="preserve" font-family="Gotham-Medium" font-size="52.0" fill="#FEFFFF" transform="matrix(1.00, 0.00, -0.00, -1.00, 781.8, 369.0)">V</text><text xml:space="preserve" font-family="Gotham-Medium" font-size="52.0" fill="#FEFFFF" transform="matrix(1.00, 0.00, -0.00, -1.00, 826.0, 369.0)">E</text><text xml:space="preserve" font-family="Gotham-Medium" font-size="52.0" fill="#FEFFFF" transform="matrix(1.00, 0.00, -0.00, -1.00, 866.0, 369.0)">R</text><text xml:space="preserve" font-family="Gotham-Medium" font-size="52.0" fill="#FEFFFF" transform="matrix(1.00, 0.00, -0.00, -1.00, 907.5, 369.0)">Y</text><text xml:space="preserve" font-family="Gotham-Medium" font-size="52.0" fill="#FEFFFF" transform="matrix(1.00, 0.00, -0.00, -1.00, 950.0, 369.0)"> </text><text xml:space="preserve" font-family="Gotham-Medium" font-size="52.0" fill="#FEFFFF" transform="matrix(1.00, 0.00, -0.00, -1.00, 402.0, 307.0)">W</text><text xml:space="preserve" font-family="Gotham-Medium" font-size="52.0" fill="#FEFFFF" transform="matrix(1.00, 0.00, -0.00, -1.00, 465.2, 307.0)">E</text><text xml:space="preserve" font-family="Gotham-Medium" font-size="52.0" fill="#FEFFFF" transform="matrix(1.00, 0.00, -0.00, -1.00, 505.3, 307.0)">E</text><text xml:space="preserve" font-family="Gotham-Medium" font-size="52.0" fill="#FEFFFF" transform="matrix(1.00, 0.00, -0.00, -1.00, 545.3, 307.0)">K</text><text xml:space="preserve" font-family="Gotham-Medium" font-size="52.0" fill="#FEFFFF" transform="matrix(1.00, 0.00, -0.00, -1.00, 588.2, 307.0)">?</text></g></svg>