<?xml version="1.0" encoding="UTF-8" standalone="no"?><svg xmlns="http://www.w3.org/2000/svg" xmlns:xlink="http://www.w3.org/1999/xlink" clip-rule="evenodd" stroke-miterlimit="4.00" viewBox="0 0 1024 768"><desc>SVG generated by Keynote</desc><defs></defs><g transform="matrix(1.00, 0.00, -0.00, -1.00, 0.0, 768.0)"><path d="M 0.0 768.0 L 1024.0 768.0 L 1024.0 0.0 L 0.0 0.0 Z M 0.0 768.0 " fill="#282E33"></path><text xml:space="preserve" font-family="Gotham-Medium" font-size="40.0" fill="#6DCFF8" transform="matrix(1.00, 0.00, -0.00, -1.00, 775.0, 34.0)">@</text><text xml:space="preserve" font-family="Gotham-Medium" font-size="40.0" fill="#6DCFF8" transform="matrix(1.00, 0.00, -0.00, -1.00, 814.2, 34.0)">a</text><text xml:space="preserve" font-family="Gotham-Medium" font-size="40.0" fill="#6DCFF8" transform="matrix(1.00, 0.00, -0.00, -1.00, 837.7, 34.0)">s</text><text xml:space="preserve" font-family="Gotham-Medium" font-size="40.0" fill="#6DCFF8" transform="matrix(1.00, 0.00, -0.00, -1.00, 857.7, 34.0)">f</text><text xml:space="preserve" font-family="Gotham-Medium" font-size="40.0" fill="#6DCFF8" transform="matrix(1.00, 0.00, -0.00, -1.00, 872.1, 34.0)">a</text><text xml:space="preserve" font-family="Gotham-Medium" font-size="40.0" fill="#6DCFF8" transform="matrix(1.00, 0.00, -0.00, -1.00, 895.6, 34.0)">l</text><text xml:space="preserve" font-family="Gotham-Medium" font-size="40.0" fill="#6DCFF8" transform="matrix(1.00, 0.00, -0.00, -1.00, 907.0, 34.0)">c</text><text xml:space="preserve" font-family="Gotham-Medium" font-size="40.0" fill="#6DCFF8" transform="matrix(1.00, 0.00, -0.00, -1.00, 929.3, 34.0)">o</text><text xml:space="preserve" font-family="Gotham-Medium" font-size="40.0" fill="#6DCFF8" transform="matrix(1.00, 0.00, -0.00, -1.00, 955.6, 34.0)">n</text><text xml:space="preserve" font-family="Gotham-Medium" font-size="40.0" fill="#6DCFF8" transform="matrix(1.00, 0.00, -0.00, -1.00, 980.4, 34.0)">e</text><text xml:space="preserve" font-family="Gotham-Light" font-size="42.0" fill="#FEFFFF" transform="matrix(1.00, 0.00, -0.00, -1.00, 272.0, 638.0)">C</text><text xml:space="preserve" font-family="Gotham-Light" font-size="42.0" fill="#FEFFFF" transform="matrix(1.00, 0.00, -0.00, -1.00, 302.6, 638.0)">o</text><text xml:space="preserve" font-family="Gotham-Light" font-size="42.0" fill="#FEFFFF" transform="matrix(1.00, 0.00, -0.00, -1.00, 329.5, 638.0)">n</text><text xml:space="preserve" font-family="Gotham-Light" font-size="42.0" fill="#FEFFFF" transform="matrix(1.00, 0.00, -0.00, -1.00, 355.2, 638.0)">ﬁ</text><text xml:space="preserve" font-family="Gotham-Light" font-size="42.0" fill="#FEFFFF" transform="matrix(1.00, 0.00, -0.00, -1.00, 380.9, 638.0)">g</text><text xml:space="preserve" font-family="Gotham-Light" font-size="42.0" fill="#FEFFFF" transform="matrix(1.00, 0.00, -0.00, -1.00, 408.6, 638.0)">u</text><text xml:space="preserve" font-family="Gotham-Light" font-size="42.0" fill="#FEFFFF" transform="matrix(1.00, 0.00, -0.00, -1.00, 434.3, 638.0)">r</text><text xml:space="preserve" font-family="Gotham-Light" font-size="42.0" fill="#FEFFFF" transform="matrix(1.00, 0.00, -0.00, -1.00, 450.1, 638.0)">e</text><text xml:space="preserve" font-family="Gotham-Light" font-size="42.0" fill="#FEFFFF" transform="matrix(1.00, 0.00, -0.00, -1.00, 474.6, 638.0)"> </text><text xml:space="preserve" font-family="Gotham-Light" font-size="42.0" fill="#FEFFFF" transform="matrix(1.00, 0.00, -0.00, -1.00, 487.2, 638.0)">Y</text><text xml:space="preserve" font-family="Gotham-Light" font-size="42.0" fill="#FEFFFF" transform="matrix(1.00, 0.00, -0.00, -1.00, 512.7, 638.0)">o</text><text xml:space="preserve" font-family="Gotham-Light" font-size="42.0" fill="#FEFFFF" transform="matrix(1.00, 0.00, -0.00, -1.00, 539.5, 638.0)">u</text><text xml:space="preserve" font-family="Gotham-Light" font-size="42.0" fill="#FEFFFF" transform="matrix(1.00, 0.00, -0.00, -1.00, 565.3, 638.0)">r</text><text xml:space="preserve" font-family="Gotham-Light" font-size="42.0" fill="#FEFFFF" transform="matrix(1.00, 0.00, -0.00, -1.00, 582.1, 638.0)"> </text><text xml:space="preserve" font-family="Gotham-Light" font-size="42.0" fill="#FEFFFF" transform="matrix(1.00, 0.00, -0.00, -1.00, 594.7, 638.0)">F</text><text xml:space="preserve" font-family="Gotham-Light" font-size="42.0" fill="#FEFFFF" transform="matrix(1.00, 0.00, -0.00, -1.00, 621.2, 638.0)">a</text><text xml:space="preserve" font-family="Gotham-Light" font-size="42.0" fill="#FEFFFF" transform="matrix(1.00, 0.00, -0.00, -1.00, 645.3, 638.0)">s</text><text xml:space="preserve" font-family="Gotham-Light" font-size="42.0" fill="#FEFFFF" transform="matrix(1.00, 0.00, -0.00, -1.00, 665.8, 638.0)">t</text><text xml:space="preserve" font-family="Gotham-Light" font-size="42.0" fill="#FEFFFF" transform="matrix(1.00, 0.00, -0.00, -1.00, 682.6, 638.0)">ﬁ</text><text xml:space="preserve" font-family="Gotham-Light" font-size="42.0" fill="#FEFFFF" transform="matrix(1.00, 0.00, -0.00, -1.00, 708.2, 638.0)">l</text><text xml:space="preserve" font-family="Gotham-Light" font-size="42.0" fill="#FEFFFF" transform="matrix(1.00, 0.00, -0.00, -1.00, 718.7, 638.0)">e</text></g></svg>