<?xml version="1.0" encoding="UTF-8" standalone="no"?><svg xmlns="http://www.w3.org/2000/svg" xmlns:xlink="http://www.w3.org/1999/xlink" clip-rule="evenodd" stroke-miterlimit="4.00" viewBox="0 0 1024 768"><desc>SVG generated by Keynote</desc><defs></defs><g transform="matrix(1.00, 0.00, -0.00, -1.00, 0.0, 768.0)"><path d="M 0.0 768.0 L 1024.0 768.0 L 1024.0 0.0 L 0.0 0.0 Z M 0.0 768.0 " fill="#282E33"></path><text xml:space="preserve" font-family="Gotham-Medium" font-size="40.0" fill="#6DCFF8" transform="matrix(1.00, 0.00, -0.00, -1.00, 775.0, 34.0)">@</text><text xml:space="preserve" font-family="Gotham-Medium" font-size="40.0" fill="#6DCFF8" transform="matrix(1.00, 0.00, -0.00, -1.00, 814.2, 34.0)">a</text><text xml:space="preserve" font-family="Gotham-Medium" font-size="40.0" fill="#6DCFF8" transform="matrix(1.00, 0.00, -0.00, -1.00, 837.7, 34.0)">s</text><text xml:space="preserve" font-family="Gotham-Medium" font-size="40.0" fill="#6DCFF8" transform="matrix(1.00, 0.00, -0.00, -1.00, 857.7, 34.0)">f</text><text xml:space="preserve" font-family="Gotham-Medium" font-size="40.0" fill="#6DCFF8" transform="matrix(1.00, 0.00, -0.00, -1.00, 872.1, 34.0)">a</text><text xml:space="preserve" font-family="Gotham-Medium" font-size="40.0" fill="#6DCFF8" transform="matrix(1.00, 0.00, -0.00, -1.00, 895.6, 34.0)">l</text><text xml:space="preserve" font-family="Gotham-Medium" font-size="40.0" fill="#6DCFF8" transform="matrix(1.00, 0.00, -0.00, -1.00, 907.0, 34.0)">c</text><text xml:space="preserve" font-family="Gotham-Medium" font-size="40.0" fill="#6DCFF8" transform="matrix(1.00, 0.00, -0.00, -1.00, 929.3, 34.0)">o</text><text xml:space="preserve" font-family="Gotham-Medium" font-size="40.0" fill="#6DCFF8" transform="matrix(1.00, 0.00, -0.00, -1.00, 955.6, 34.0)">n</text><text xml:space="preserve" font-family="Gotham-Medium" font-size="40.0" fill="#6DCFF8" transform="matrix(1.00, 0.00, -0.00, -1.00, 980.4, 34.0)">e</text><text xml:space="preserve" font-family="Courier" font-size="41.0" fill="#00E944" transform="matrix(1.00, 0.00, -0.00, -1.00, 57.0, 471.0)">$</text><text xml:space="preserve" font-family="Courier" font-size="41.0" fill="#00E944" transform="matrix(1.00, 0.00, -0.00, -1.00, 81.6, 471.0)"> </text><text xml:space="preserve" font-family="Courier" font-size="41.0" fill="#00E944" transform="matrix(1.00, 0.00, -0.00, -1.00, 106.2, 471.0)">c</text><text xml:space="preserve" font-family="Courier" font-size="41.0" fill="#00E944" transform="matrix(1.00, 0.00, -0.00, -1.00, 130.8, 471.0)">e</text><text xml:space="preserve" font-family="Courier" font-size="41.0" fill="#00E944" transform="matrix(1.00, 0.00, -0.00, -1.00, 155.4, 471.0)">r</text><text xml:space="preserve" font-family="Courier" font-size="41.0" fill="#00E944" transform="matrix(1.00, 0.00, -0.00, -1.00, 180.0, 471.0)">t</text><text xml:space="preserve" font-family="Courier" font-size="41.0" fill="#00E944" transform="matrix(1.00, 0.00, -0.00, -1.00, 57.0, 422.0)">$</text><text xml:space="preserve" font-family="Courier" font-size="41.0" fill="#00E944" transform="matrix(1.00, 0.00, -0.00, -1.00, 81.6, 422.0)"> </text><text xml:space="preserve" font-family="Courier" font-size="41.0" fill="#00E944" transform="matrix(1.00, 0.00, -0.00, -1.00, 106.2, 422.0)">s</text><text xml:space="preserve" font-family="Courier" font-size="41.0" fill="#00E944" transform="matrix(1.00, 0.00, -0.00, -1.00, 130.8, 422.0)">i</text><text xml:space="preserve" font-family="Courier" font-size="41.0" fill="#00E944" transform="matrix(1.00, 0.00, -0.00, -1.00, 155.4, 422.0)">g</text><text xml:space="preserve" font-family="Courier" font-size="41.0" fill="#00E944" transform="matrix(1.00, 0.00, -0.00, -1.00, 180.0, 422.0)">h</text><text xml:space="preserve" font-family="Courier" font-size="41.0" fill="#00E944" transform="matrix(1.00, 0.00, -0.00, -1.00, 57.0, 374.0)">$</text><text xml:space="preserve" font-family="Courier" font-size="41.0" fill="#00E944" transform="matrix(1.00, 0.00, -0.00, -1.00, 81.6, 374.0)"> </text><text xml:space="preserve" font-family="Courier" font-size="41.0" fill="#00E944" transform="matrix(1.00, 0.00, -0.00, -1.00, 106.2, 374.0)">g</text><text xml:space="preserve" font-family="Courier" font-size="41.0" fill="#00E944" transform="matrix(1.00, 0.00, -0.00, -1.00, 130.8, 374.0)">y</text><text xml:space="preserve" font-family="Courier" font-size="41.0" fill="#00E944" transform="matrix(1.00, 0.00, -0.00, -1.00, 155.4, 374.0)">m</text></g></svg>