<?xml version="1.0" encoding="UTF-8" standalone="no"?><svg xmlns="http://www.w3.org/2000/svg" xmlns:xlink="http://www.w3.org/1999/xlink" clip-rule="evenodd" stroke-miterlimit="4.00" viewBox="0 0 148 136"><desc>SVG generated by Keynote</desc><defs></defs><g transform="matrix(1.00, 0.00, -0.00, -1.00, 0.0, 136.0)"><text xml:space="preserve" font-family="Courier" font-size="41.0" fill="#00E944" transform="matrix(1.00, 0.00, -0.00, -1.00, -1.0, 107.0)">$</text><text xml:space="preserve" font-family="Courier" font-size="41.0" fill="#00E944" transform="matrix(1.00, 0.00, -0.00, -1.00, 23.6, 107.0)"> </text><text xml:space="preserve" font-family="Courier" font-size="41.0" fill="#00E944" transform="matrix(1.00, 0.00, -0.00, -1.00, 48.2, 107.0)">c</text><text xml:space="preserve" font-family="Courier" font-size="41.0" fill="#00E944" transform="matrix(1.00, 0.00, -0.00, -1.00, 72.8, 107.0)">e</text><text xml:space="preserve" font-family="Courier" font-size="41.0" fill="#00E944" transform="matrix(1.00, 0.00, -0.00, -1.00, 97.4, 107.0)">r</text><text xml:space="preserve" font-family="Courier" font-size="41.0" fill="#00E944" transform="matrix(1.00, 0.00, -0.00, -1.00, 122.0, 107.0)">t</text><text xml:space="preserve" font-family="Courier" font-size="41.0" fill="#00E944" transform="matrix(1.00, 0.00, -0.00, -1.00, -1.0, 58.0)">$</text><text xml:space="preserve" font-family="Courier" font-size="41.0" fill="#00E944" transform="matrix(1.00, 0.00, -0.00, -1.00, 23.6, 58.0)"> </text><text xml:space="preserve" font-family="Courier" font-size="41.0" fill="#00E944" transform="matrix(1.00, 0.00, -0.00, -1.00, 48.2, 58.0)">s</text><text xml:space="preserve" font-family="Courier" font-size="41.0" fill="#00E944" transform="matrix(1.00, 0.00, -0.00, -1.00, 72.8, 58.0)">i</text><text xml:space="preserve" font-family="Courier" font-size="41.0" fill="#00E944" transform="matrix(1.00, 0.00, -0.00, -1.00, 97.4, 58.0)">g</text><text xml:space="preserve" font-family="Courier" font-size="41.0" fill="#00E944" transform="matrix(1.00, 0.00, -0.00, -1.00, 122.0, 58.0)">h</text><text xml:space="preserve" font-family="Courier" font-size="41.0" fill="#00E944" transform="matrix(1.00, 0.00, -0.00, -1.00, -1.0, 10.0)">$</text><text xml:space="preserve" font-family="Courier" font-size="41.0" fill="#00E944" transform="matrix(1.00, 0.00, -0.00, -1.00, 23.6, 10.0)"> </text><text xml:space="preserve" font-family="Courier" font-size="41.0" fill="#00E944" transform="matrix(1.00, 0.00, -0.00, -1.00, 48.2, 10.0)">g</text><text xml:space="preserve" font-family="Courier" font-size="41.0" fill="#00E944" transform="matrix(1.00, 0.00, -0.00, -1.00, 72.8, 10.0)">y</text><text xml:space="preserve" font-family="Courier" font-size="41.0" fill="#00E944" transform="matrix(1.00, 0.00, -0.00, -1.00, 97.4, 10.0)">m</text></g></svg>